<?xml version="1.0" encoding="utf-8"?>
<!-- Generator: Adobe Illustrator 15.0.0, SVG Export Plug-In . SVG Version: 6.00 Build 0)  -->
<!DOCTYPE svg PUBLIC "-//W3C//DTD SVG 1.1//EN" "http://www.w3.org/Graphics/SVG/1.1/DTD/svg11.dtd">
<svg version="1.1" id="Calque_1" xmlns="http://www.w3.org/2000/svg" xmlns:xlink="http://www.w3.org/1999/xlink" x="0px" y="0px"
	 width="1058px" height="500px" viewBox="-211 0 1058 500" enable-background="new -211 0 1058 500" xml:space="preserve">
<line fill="none" stroke="#CCCCCC" x1="0" y1="480" x2="0" y2="0"/>
<text transform="matrix(1 0 0 1 3 490.0996)" font-family="'ArialMT'" font-size="10">1980</text>
<line fill="none" stroke="#CCCCCC" x1="117.639" y1="480" x2="117.639" y2="0"/>
<text transform="matrix(1 0 0 1 105.1265 490.0996)" font-family="'ArialMT'" font-size="10">1985</text>
<line fill="none" stroke="#CCCCCC" x1="235.278" y1="480" x2="235.278" y2="0"/>
<text transform="matrix(1 0 0 1 222.7656 490.0996)" font-family="'ArialMT'" font-size="10">1990</text>
<line fill="none" stroke="#CCCCCC" x1="352.917" y1="480" x2="352.917" y2="0"/>
<text transform="matrix(1 0 0 1 340.4043 490.0996)" font-family="'ArialMT'" font-size="10">1995</text>
<line fill="none" stroke="#CCCCCC" x1="470.556" y1="480" x2="470.556" y2="0"/>
<text transform="matrix(1 0 0 1 458.043 490.0996)" font-family="'ArialMT'" font-size="10">2000</text>
<line fill="none" stroke="#CCCCCC" x1="588.194" y1="480" x2="588.194" y2="0"/>
<text transform="matrix(1 0 0 1 575.6816 490.0996)" font-family="'ArialMT'" font-size="10">2005</text>
<line fill="none" stroke="#CCCCCC" x1="705.833" y1="480" x2="705.833" y2="0"/>
<text transform="matrix(1 0 0 1 693.3213 490.0996)" font-family="'ArialMT'" font-size="10">2010</text>
<line fill="none" stroke="#CCCCCC" x1="823.473" y1="480" x2="823.473" y2="0"/>
<text transform="matrix(1 0 0 1 810.96 490.0996)" font-family="'ArialMT'" font-size="10">2015</text>
<path fill="none" stroke="#CCCCCC" d="M0,0v480h847V0"/>
<path fill="#FAC255" d="M0,443.282L23.528,448l23.528-16.539l23.528-15.323l23.528,37.681l23.527-14.749l23.528-95.952
	l23.528,50.814l23.528-19.484l23.528,58.724l23.528-15.616l23.528,7.516l23.528-46.557l23.528,51.247l23.527,23.188l23.528-69.758
	l23.527-31.396l23.528,46.34l23.527,6.881l23.527,18.784l23.528-56.664l23.527,14.748l23.528-24.823l23.527,43.532l23.528-112.641
	l23.527,113.778l23.528-16.182l23.527,11.59l23.527-57.301l23.528,0.947l23.527,28.47l23.528-10.091l23.527-7.871l23.528-54.018
	l23.527-34.915l23.528,31.979L847,370.645V480h-23.527h-23.528h-23.527h-23.528h-23.527h-23.528h-23.527h-23.528H635.25h-23.527
	h-23.528h-23.527h-23.528h-23.527h-23.528h-23.527h-23.528H423.5h-23.527h-23.528h-23.527h-23.528h-23.527h-23.528h-23.528h-23.528
	H211.75h-23.528h-23.528h-23.528h-23.528H94.111H70.583H47.056H23.528H0V443.282z"/>
<path fill="#69BFBF" d="M0,26.704l23.528,250.63l23.528,8.509l23.528-5.671l23.528,63.102l23.527-198.157l23.528,83.021
	l23.528-69.24l23.528,78.745l23.528-79.284l23.528,31.235l23.528-96.634l23.528,49.67l23.528,15.733l23.527,6.243l23.528,5.895
	l23.527,9.671l23.528-80.343l23.527,71.819l23.527-6.228l23.528,52.976l23.527-46.211l23.528,47.066l23.527-7.103l23.528-24.503
	l23.527-24.716l23.528,31.932l23.527,31.33l23.527-55.39l23.528,31.387l23.527-1.264l23.528,43.137l23.527,39.853l23.528-18.173
	l23.527-74.187l23.528,22.032L847,223.548v147.096l-23.527-76.305l-23.528-31.979l-23.527,34.915l-23.528,54.018l-23.527,7.871
	l-23.528,10.091l-23.527-28.47l-23.528-0.947l-23.527,57.301l-23.527-11.59l-23.528,16.182l-23.527-113.778l-23.528,112.641
	l-23.527-43.532l-23.528,24.823l-23.527-14.748L447.027,423.8L423.5,405.016l-23.527-6.881l-23.528-46.34l-23.527,31.396
	l-23.528,69.758l-23.527-23.188l-23.528-51.247l-23.528,46.557l-23.528-7.516l-23.528,15.616l-23.528-58.724l-23.528,19.484
	l-23.528-50.814l-23.528,95.952l-23.527,14.749l-23.528-37.681l-23.528,15.323L23.528,448L0,443.282V26.704z"/>
<path fill="#EE7203" d="M0,14.02L23.528,0l23.528,48.539l23.528-25.878l23.528,12.248l23.527-12.583l23.528,21.477l23.528-10.699
	l23.528-24.848l23.528,30.563l23.528,20.617l23.528-24.788l23.528,12.895l23.528-30.068l23.527,17.058l23.528-3.322l23.527,16.312
	l23.528-2.761L423.5,69.118l23.527-9.383l23.528-14.694l23.527-33.177l23.528,104.678l23.527-29.787l23.528-67.241l23.527,25.211
	l23.528,2.351L635.25,74.65l23.527-20.064l23.528-24.026l23.527,40.001l23.528,53.619l23.527-17.428l23.528-18.171l23.527-69.201
	l23.528,49.3L847,48.387v175.161l-23.527-9.963l-23.528-22.032l-23.527,74.187l-23.528,18.173l-23.527-39.853l-23.528-43.137
	l-23.527,1.264L658.777,170.8l-23.527,55.39l-23.527-31.33l-23.528-31.932l-23.527,24.716l-23.528,24.503l-23.527,7.103
	l-23.528-47.066l-23.527,46.211l-23.528-52.976l-23.527,6.228l-23.527-71.819l-23.528,80.343l-23.527-9.671l-23.528-5.895
	l-23.527-6.243l-23.528-15.733l-23.528-49.67l-23.528,96.634l-23.528-31.235l-23.528,79.284l-23.528-78.745l-23.528,69.24
	l-23.528-83.021L94.111,343.273l-23.528-63.102l-23.528,5.671l-23.528-8.509L0,26.704V14.02z"/>
<path fill="#76B82A" d="M0,12.017L23.528,0l23.528,5.393L70.583,6.18l23.528,14.184L117.639,0l23.528,9.125l23.528,14.047
	l23.528-21.403l23.528,11.787l23.528-6.032l23.528-0.763l23.528,8.782l23.528-10.082l23.527,8.352l23.528-1.676l23.527,10.769
	l23.528,0.652l23.527-3.154l23.527,3.631l23.528,1.89L494.083,4.81l23.528,42.568l23.527-8.266l23.528-32.091l23.527,10.151
	l23.528-2.572l23.527,21.232l23.527-17.167l23.528-5.391l23.527,21.216l23.528,22.824l23.527-39.9l23.528,30.819l23.527-38.542
	l23.528,23.518L847,13.548v34.839l-23.527,20.292l-23.528-49.3L776.417,88.58l-23.528,18.171l-23.527,17.428l-23.528-53.619
	L682.306,30.56l-23.528,24.026L635.25,74.65l-23.527-27.574l-23.528-2.351l-23.527-25.211l-23.528,67.241l-23.527,29.787
	L494.083,11.864l-23.527,33.177l-23.528,14.694L423.5,69.118l-23.527-24.357l-23.528,2.761L352.917,31.21l-23.528,3.322
	l-23.527-17.058l-23.528,30.068l-23.528-12.895l-23.528,24.788L211.75,38.819L188.222,8.255l-23.528,24.848l-23.528,10.699
	l-23.528-21.477L94.111,34.909L70.583,22.661L47.056,48.539L23.528,0L0,14.02V12.017z"/>
<path fill="#AE69BF" d="M0,0h23.528h23.528h23.528h23.528h23.527h23.528h23.528h23.528h23.528h23.528h23.528h23.528h23.528h23.527
	h23.528h23.527h23.528H423.5h23.527h23.528h23.527h23.528h23.527h23.528h23.527h23.528h23.527h23.527h23.528h23.527h23.528h23.527
	h23.528h23.527h23.528H847v13.548l-23.527,19.659L799.944,9.689l-23.527,38.542l-23.528-30.819l-23.527,39.9l-23.528-22.824
	l-23.527-21.216l-23.528,5.391L635.25,35.832L611.723,14.6l-23.528,2.572L564.667,7.021l-23.528,32.091l-23.527,8.266L494.083,4.81
	l-23.527,21.115l-23.528-1.89L423.5,20.404l-23.527,3.154l-23.528-0.652l-23.527-10.769l-23.528,1.676l-23.527-8.352l-23.528,10.082
	l-23.528-8.782l-23.528,0.763l-23.528,6.032L188.222,1.769l-23.528,21.403L141.167,9.125L117.639,0L94.111,20.364L70.583,6.18
	L47.056,5.393L23.528,0L0,12.017V0z"/>
<text transform="matrix(1 0 0 1 799.9443 371.1797)" font-family="'ArialMT'" font-size="11">import</text>
<text transform="matrix(1 0 0 1 94.1113 189.0908)" font-family="'ArialMT'" font-size="11">domestique</text>
<text transform="matrix(1 0 0 1 752.8887 62.082)" font-family="'ArialMT'" font-size="11">export</text>
<text transform="matrix(1 0 0 1 729.3613 28.6562)" font-family="'ArialMT'" font-size="11">étranger</text>
<rect x="-193" y="21.5" fill="#AE69BF" width="24" height="24"/>
<text transform="matrix(1 0 0 1 -153 33.5)" font-family="'MyriadPro-Regular'" font-size="12">étranger</text>
<rect x="-193" y="57.313" fill="#76B82A" width="24" height="24"/>
<text transform="matrix(1 0 0 1 -153 69.3135)" font-family="'MyriadPro-Regular'" font-size="12">export</text>
<rect x="-193" y="93.127" fill="#EE7203" width="24" height="24"/>
<text transform="matrix(1 0 0 1 -153 105.127)" font-family="'MyriadPro-Regular'" font-size="12">domestique</text>
<rect x="-193" y="128.94" fill="#69BFBF" width="24" height="24"/>
<text transform="matrix(1 0 0 1 -153 140.9404)" font-family="'MyriadPro-Regular'" font-size="12">oeuvre exposée à l’étranger</text>
<rect x="-193" y="165.091" fill="#FAC255" width="24" height="24"/>
<text transform="matrix(1 0 0 1 -153 177.0908)" font-family="'MyriadPro-Regular'" font-size="12">import</text>
</svg>
