<?xml version="1.0" encoding="utf-8"?>
<!-- Generator: Adobe Illustrator 15.0.0, SVG Export Plug-In . SVG Version: 6.00 Build 0)  -->
<!DOCTYPE svg PUBLIC "-//W3C//DTD SVG 1.1//EN" "http://www.w3.org/Graphics/SVG/1.1/DTD/svg11.dtd">
<svg version="1.1" id="Calque_1" xmlns="http://www.w3.org/2000/svg" xmlns:xlink="http://www.w3.org/1999/xlink" x="0px" y="0px"
	 width="847px" height="500px" viewBox="0 0 847 500" enable-background="new 0 0 847 500" xml:space="preserve">
<g>
	<g transform="translate(0,480)">
		<g transform="translate(96.8,0)">
			<line fill="none" stroke="#CCCCCC" x1="0" y1="0" x2="0" y2="-480"/>
			<text transform="matrix(1 0 0 1 -12.5124 10.0996)" font-family="'ArialMT'" font-size="10">1985</text>
		</g>
		<g transform="translate(217.79999999999998,0)">
			<line fill="none" stroke="#CCCCCC" x1="0" y1="0" x2="0" y2="-480"/>
			<text transform="matrix(1 0 0 1 -12.5124 10.0996)" font-family="'ArialMT'" font-size="10">1990</text>
		</g>
		<g transform="translate(338.79999999999995,0)">
			<line fill="none" stroke="#CCCCCC" x1="0" y1="0" x2="0" y2="-480"/>
			<text transform="matrix(1 0 0 1 -12.5124 10.0996)" font-family="'ArialMT'" font-size="10">1995</text>
		</g>
		<g transform="translate(459.79999999999995,0)">
			<line fill="none" stroke="#CCCCCC" x1="0" y1="0" x2="0" y2="-480"/>
			<text transform="matrix(1 0 0 1 -12.5129 10.0996)" font-family="'ArialMT'" font-size="10">2000</text>
		</g>
		<g transform="translate(580.8,0)">
			<line fill="none" stroke="#CCCCCC" x1="0" y1="0" x2="0" y2="-480"/>
			<text transform="matrix(1 0 0 1 -12.5129 10.0996)" font-family="'ArialMT'" font-size="10">2005</text>
		</g>
		<g transform="translate(701.8,0)">
			<line fill="none" stroke="#CCCCCC" x1="0" y1="0" x2="0" y2="-480"/>
			<text transform="matrix(1 0 0 1 -12.5129 10.0996)" font-family="'ArialMT'" font-size="10">2010</text>
		</g>
		<g transform="translate(822.8,0)">
			<line fill="none" stroke="#CCCCCC" x1="0" y1="0" x2="0" y2="-480"/>
			<text transform="matrix(1 0 0 1 -12.5129 10.0996)" font-family="'ArialMT'" font-size="10">2015</text>
		</g>
		<path fill="none" stroke="#CCCCCC" d="M0-480V0h847v-480"/>
	</g>
	<path fill="#FAC255" d="M0,460.992l24.2-11.542l24.2-5.043l24.2,22.114l24.2-143.717l24.2,106.45l24.2-47.591l24.2,19.005
		l24.2,0.451l24.2-15.514l24.2,34.444l24.2,32.73l24.2,14.603l24.2-48.247l24.2-143.619l24.2,92.579l24.2,67.794l24.2,5.696
		l24.199-10.34l24.2,8.249l24.2,23.599l24.2-17.964l24.2-428.96L556.6,363.064l24.2,88.961l24.2-46.876l24.2-16.255l24.2,71.794
		l24.199-48.13l24.2,21.496l24.2,14.878l24.2-104.143l24.2,76.138l24.199-74.824l24.2,32.38l24.2,30.63V480h-24.2h-24.2H774.4h-24.2
		H726h-24.2h-24.2H653.4h-24.2H605h-24.2h-24.2H532.4h-24.2H484h-24.2h-24.2H411.4h-24.2H363h-24.2h-24.2h-24.2h-24.2H242h-24.2
		h-24.2h-24.2h-24.2H121H96.8H72.6H48.4H24.2H0V460.992z"/>
	<path fill="#69BFBF" d="M0,450.13l24.2-17.129l24.2-4.039l24.2,7.765l24.2-161.157l24.2,89.409l24.2,6.424l24.2,7.504l24.2-2.266
		l24.2-17.438l24.2,55.083l24.2,30.453l24.2,18.575l24.2-66.9l24.2-148.654L363,362.674l24.2,64.993l24.2,6.936l24.199-11.417
		l24.2-3.152l24.2,36.118l24.2-21.897L532.4,0L556.6,330.516l24.2,93.535l24.2-39.934l24.2-24.996l24.2,62.944l24.199-44.391
		l24.2,39.752l24.2,10.064l24.2-97.579l24.2,75.263l24.199-66.948l24.2,18.378l24.2,46.82v5.688l-24.2-30.63l-24.2-32.38
		L774.4,420.928l-24.2-76.138L726,448.933l-24.2-14.878l-24.2-21.496l-24.199,48.13l-24.2-71.794L605,405.149l-24.2,46.876
		l-24.2-88.961L532.4,16.17l-24.2,428.96L484,463.095l-24.2-23.599l-24.2-8.249l-24.199,10.34l-24.2-5.696L363,368.097l-24.2-92.579
		l-24.2,143.619l-24.2,48.247l-24.2-14.603l-24.2-32.73l-24.2-34.444l-24.2,15.514l-24.2-0.451l-24.2-19.005L121,429.255
		l-24.2-106.45L72.6,466.521l-24.2-22.114l-24.2,5.043L0,460.992V450.13z"/>
</g>
<rect x="5" y="8.5" fill="#FAC255" width="24" height="24"/>
<rect x="5" y="42.5" fill="#69BFBF" width="24" height="24"/>
<text transform="matrix(1 0 0 1 45 24.5)" font-family="'MyriadPro-Regular'" font-size="12">dépôts « culturels »</text>
<text transform="matrix(1 0 0 1 600 24.5)"><tspan x="0" y="0" font-family="'MyriadPro-Regular'" font-size="12">probabilité de tomber</tspan><tspan x="0" y="14.4" font-family="'MyriadPro-Regular'" font-size="12">en dépôt (nombre de dépôts </tspan><tspan x="0" y="28.8" font-family="'MyriadPro-Regular'" font-size="12">/ nombre d’oeuvres)</tspan></text>
<text transform="matrix(1 0 0 1 45 54.5)" font-family="'MyriadPro-Regular'" font-size="12">dépôts « non culturels »</text>
<g>
	<g>
		<line fill="none" stroke="#000000" stroke-miterlimit="10" x1="591" y1="24.5" x2="545.143" y2="24.5"/>
		<g>
			<polygon points="547.135,22.805 545.438,24.5 547.135,26.195 545.695,26.195 544,24.5 545.695,22.805 			"/>
		</g>
	</g>
</g>
</svg>
