<?xml version="1.0" encoding="utf-8"?>
<!-- Generator: Adobe Illustrator 15.0.0, SVG Export Plug-In . SVG Version: 6.00 Build 0)  -->
<!DOCTYPE svg PUBLIC "-//W3C//DTD SVG 1.1//EN" "http://www.w3.org/Graphics/SVG/1.1/DTD/svg11.dtd">
<svg version="1.1" id="Calque_1" xmlns="http://www.w3.org/2000/svg" xmlns:xlink="http://www.w3.org/1999/xlink" x="0px" y="0px"
	 width="847px" height="500px" viewBox="0 0 847 500" enable-background="new 0 0 847 500" xml:space="preserve">
<line fill="none" stroke="#CCCCCC" x1="96.8" y1="480" x2="96.8" y2="0"/>
<text transform="matrix(1 0 0 1 84.2876 490.0996)" font-family="'ArialMT'" font-size="10">1985</text>
<line fill="none" stroke="#CCCCCC" x1="217.8" y1="480" x2="217.8" y2="0"/>
<text transform="matrix(1 0 0 1 205.2876 490.0996)" font-family="'ArialMT'" font-size="10">1990</text>
<line fill="none" stroke="#CCCCCC" x1="338.8" y1="480" x2="338.8" y2="0"/>
<text transform="matrix(1 0 0 1 326.2876 490.0996)" font-family="'ArialMT'" font-size="10">1995</text>
<line fill="none" stroke="#CCCCCC" x1="459.8" y1="480" x2="459.8" y2="0"/>
<text transform="matrix(1 0 0 1 447.2871 490.0996)" font-family="'ArialMT'" font-size="10">2000</text>
<line fill="none" stroke="#CCCCCC" x1="580.8" y1="480" x2="580.8" y2="0"/>
<text transform="matrix(1 0 0 1 568.2871 490.0996)" font-family="'ArialMT'" font-size="10">2005</text>
<line fill="none" stroke="#CCCCCC" x1="701.8" y1="480" x2="701.8" y2="0"/>
<text transform="matrix(1 0 0 1 689.2871 490.0996)" font-family="'ArialMT'" font-size="10">2010</text>
<line fill="none" stroke="#CCCCCC" x1="822.8" y1="480" x2="822.8" y2="0"/>
<text transform="matrix(1 0 0 1 810.2871 490.0996)" font-family="'ArialMT'" font-size="10">2015</text>
<path fill="none" stroke="#CCCCCC" d="M0,0v480h847V0"/>
<path fill="#FAC255" d="M0,174.545L24.2,168l24.2-22.737l24.2,185.229l24.2-219.583L121,268.235l24.2-222.881l24.2,57.979
	l24.2,10.351l24.2-8.766L242,42.105l24.2,67.368l24.2,7.6l24.2,13.412l24.2-73.115L363,22.185l24.2,53.244l24.2-1.583l24.199-5.738
	l24.2,87.682l24.2-16.042l24.2-25.621l24.2-97.956l24.199,88.346L580.8,240L605,105.291l24.2,12.936L653.4,320L677.6,163.636
	l24.2-36.084L726,196l24.2-148.42l24.2,53.473L798.6,26.667l24.2,58.44L847,35.657V480h-24.2h-24.2H774.4h-24.2H726h-24.2h-24.2
	H653.4h-24.2H605h-24.2h-24.2H532.4h-24.2H484h-24.2h-24.2H411.4h-24.2H363h-24.2h-24.2h-24.2h-24.2H242h-24.2h-24.2h-24.2h-24.2
	H121H96.8H72.6H48.4H24.2H0V174.545z"/>
<path fill="#69BFBF" d="M0,0h24.2h24.2h24.2h24.2H121h24.2h24.2h24.2h24.2H242h24.2h24.2h24.2h24.2H363h24.2h24.2H435.6h24.2H484
	h24.2h24.2H556.6h24.2H605h24.2h24.2H677.6h24.2H726h24.2h24.2H798.6h24.2H847v35.657l-24.2,49.449l-24.2-58.44L774.4,101.053
	L750.2,47.58L726,196l-24.2-68.448l-24.2,36.084L653.4,320l-24.2-201.773L605,105.291L580.8,240l-24.2-135.484L532.4,16.17
	l-24.2,97.956L484,139.747l-24.2,16.042l-24.2-87.682L411.4,73.846l-24.2,1.583L363,22.185l-24.2,35.186l-24.2,73.115l-24.2-13.412
	l-24.2-7.6L242,42.105l-24.2,62.812l-24.2,8.766l-24.2-10.351l-24.2-57.979L121,268.235L96.8,110.909L72.6,330.492L48.4,145.263
	L24.2,168L0,174.545V0z"/>
<text transform="matrix(1 0 0 1 43.5996 419.085)" font-family="'ArialMT'" font-size="11">dépôt culturel</text>
<text transform="matrix(1 0 0 1 43.6001 35.2461)" font-family="'ArialMT'" font-size="11">dépôt non culturel</text>
</svg>
