<?xml version="1.0" encoding="utf-8"?>
<!-- Generator: Adobe Illustrator 15.0.0, SVG Export Plug-In . SVG Version: 6.00 Build 0)  -->
<!DOCTYPE svg PUBLIC "-//W3C//DTD SVG 1.1//EN" "http://www.w3.org/Graphics/SVG/1.1/DTD/svg11.dtd">
<svg version="1.1" id="Calque_1" xmlns="http://www.w3.org/2000/svg" xmlns:xlink="http://www.w3.org/1999/xlink" x="0px" y="0px"
	 width="1500px" height="520px" viewBox="0 0 1500 520" enable-background="new 0 0 1500 520" xml:space="preserve">
<rect fill="#E5DFDF" width="10" height="520"/>
<rect x="165.556" fill="#E5DFDF" width="10" height="520"/>
<rect x="331.111" fill="#E5DFDF" width="10" height="520"/>
<rect x="496.667" fill="#E5DFDF" width="10" height="520"/>
<rect x="662.223" fill="#E5DFDF" width="10" height="520"/>
<rect x="827.778" fill="#E5DFDF" width="10" height="520"/>
<rect x="993.334" fill="#E5DFDF" width="10" height="520"/>
<rect x="1158.89" fill="#E5DFDF" width="10" height="520"/>
<rect x="1324.445" fill="#E5DFDF" width="10" height="520"/>
<rect x="1490.001" fill="#E5DFDF" width="10" height="520"/>
<g transform="translate(0,10)">
	<g>
		<path fill="none" stroke="#BF6969" stroke-width="191.802" stroke-opacity="0.4" d="M10,110.901c77.778,0,77.778-15,155.556-15"/>
		<path fill="none" stroke="#BF6969" stroke-width="149.084" stroke-opacity="0.4" d="M10,281.344c77.778,0,77.778-5,155.556-5"/>
		<path fill="none" stroke="#69BF8B" stroke-width="103.977" stroke-opacity="0.4" d="M175.556,110.781
			c77.778,0,77.778,256.024,155.556,256.024"/>
		<path fill="none" stroke="#BF6969" stroke-width="86.4484" stroke-opacity="0.4" d="M10,399.11c77.778,0,77.778,5,155.556,5"/>
		<path fill="none" stroke="#69BF8B" stroke-width="69.5171" stroke-opacity="0.4" d="M341.111,399.329
			c77.777,0,77.777,26.566,155.556,26.566"/>
		<path fill="none" stroke="#69BF8B" stroke-width="42.6919" stroke-opacity="0.4" d="M506.667,440.295
			c77.777,0,77.777,9.141,155.556,9.141"/>
		<path fill="none" stroke="#BF6969" stroke-width="42.6659" stroke-opacity="0.4" d="M10,463.667c77.778,0,77.778,15,155.556,15"/>
		<path fill="none" stroke="#69BF8B" stroke-width="26.8512" stroke-opacity="0.4" d="M672.223,457.693
			c77.777,0,77.777,4.467,155.555,4.467"/>
		<path fill="none" stroke="#698BBF" stroke-width="26.0722" stroke-opacity="0.4" d="M175.556,429.442
			c77.778,0,77.778,2.387,155.556,2.387"/>
		<path fill="none" stroke="#69BF8B" stroke-width="21.32" stroke-opacity="0.4" d="M175.556,173.429
			c77.778,0,77.778,293.291,155.556,293.291"/>
		<path fill="none" stroke="#69BF8B" stroke-width="16.8274" stroke-opacity="0.4" d="M837.777,467.172
			c77.778,0,77.778,2.104,155.556,2.104"/>
		<path fill="none" stroke="#69BF8B" stroke-width="11.1923" stroke-opacity="0.4" d="M1003.333,472.171
			c77.778,0,77.778,0.961,155.556,0.961"/>
		<path fill="none" stroke="#69BF8B" stroke-width="7.7126" stroke-opacity="0.4" d="M175.556,187.945
			c77.778,0,77.778,303.343,155.556,303.343"/>
		<path fill="none" stroke="#69BF8B" stroke-width="7.401" stroke-opacity="0.4" d="M341.111,437.788
			c77.777,0,77.777,43.37,155.556,43.37"/>
		<path fill="none" stroke="#69BF8B" stroke-width="7.2971" stroke-opacity="0.4" d="M1168.889,474.976
			c77.778,0,77.778,0.623,155.556,0.623"/>
		<path fill="none" stroke="#698BBF" stroke-width="6.3882" stroke-opacity="0.4" d="M341.111,473.718
			c77.777,0,77.777-9.87,155.556-9.87"/>
		<path fill="none" stroke="#69BF8B" stroke-width="5.3235" stroke-opacity="0.4" d="M1334.444,476.481
			c77.778,0,77.778,0.415,155.556,0.415"/>
		<path fill="none" stroke="#698BBF" stroke-width="4.8561" stroke-opacity="0.4" d="M175.556,444.906
			c77.778,0,77.778,52.666,155.556,52.666"/>
		<path fill="none" stroke="#69BF8B" stroke-width="4.5704" stroke-opacity="0.4" d="M341.111,443.774
			c77.777,0,77.777,53.421,155.556,53.421"/>
		<path fill="none" stroke="#69BF8B" stroke-width="3.246" stroke-opacity="0.4" d="M506.667,463.264
			c77.777,0,77.777,22.387,155.556,22.387"/>
		<path fill="none" stroke="#698BBF" stroke-width="2.8565" stroke-opacity="0.4" d="M506.667,483.326
			c77.777,0,77.777-11.116,155.556-11.116"/>
		<path fill="none" stroke="#69BF8B" stroke-width="2.5709" stroke-opacity="0.4" d="M506.667,466.172
			c77.777,0,77.777,32.387,155.556,32.387"/>
		<path fill="none" stroke="#69BF8B" stroke-width="1.662" stroke-opacity="0.4" d="M672.223,471.95
			c77.777,0,77.777,15.921,155.555,15.921"/>
		<path fill="none" stroke="#69BF8B" stroke-width="1.2465" stroke-opacity="0.4" d="M672.223,473.404
			c77.777,0,77.777,25.973,155.555,25.973"/>
		<path fill="none" stroke="#698BBF" stroke-width="1.2465" stroke-opacity="0.4" d="M672.223,486.598
			c77.777,0,77.777-10.389,155.555-10.389"/>
		<path fill="none" stroke="#AE69BF" stroke-width="1.1945" stroke-opacity="0.4" d="M175.556,499.351
			c77.778,0,77.778-53.889,155.556-53.889"/>
		<path fill="none" stroke="#69BF8B" stroke-opacity="0.4" d="M837.777,475.975c77.778,0,77.778,12.935,155.556,12.935"/>
		<path fill="none" stroke="#69BF8B" stroke-opacity="0.4" d="M837.777,476.702c77.778,0,77.778,22.935,155.556,22.935"/>
		<path fill="none" stroke="#698BBF" stroke-opacity="0.4" d="M341.111,477.172c77.777,0,77.777,22.568,155.556,22.568"/>
		<path fill="none" stroke="#698BBF" stroke-opacity="0.4" d="M837.777,499.715c77.778,0,77.778-21.455,155.556-21.455"/>
		<path fill="none" stroke="#69BF8B" stroke-opacity="0.4" d="M1003.333,478c77.778,0,77.778,11.48,155.556,11.48"/>
		<path fill="none" stroke="#69BF8B" stroke-opacity="0.4" d="M1168.889,478.845c77.778,0,77.778,10.753,155.556,10.753"/>
		<path fill="none" stroke="#698BBF" stroke-opacity="0.4" d="M1003.333,489.091c77.778,0,77.778-10.155,155.556-10.155"/>
		<path fill="none" stroke="#AE69BF" stroke-opacity="0.4" d="M341.111,499.74c77.777,0,77.777-32.49,155.556-32.49"/>
		<path fill="none" stroke="#AE69BF" stroke-opacity="0.4" d="M506.667,499.806c77.777,0,77.777-25.974,155.556-25.974"/>
		<path fill="none" stroke="#AE69BF" stroke-opacity="0.4" d="M837.777,488.598c77.778,0,77.778-10.753,155.556-10.753"/>
		<path fill="none" stroke="#69BF8B" stroke-opacity="0.4" d="M1003.333,478.377c77.778,0,77.778,21.48,155.556,21.48"/>
		<path fill="none" stroke="#AE69BF" stroke-opacity="0.4" d="M672.223,499.896c77.777,0,77.777-22.961,155.555-22.961"/>
		<path fill="none" stroke="#69BF8B" stroke-opacity="0.4" d="M1168.889,479.156c77.778,0,77.778,20.753,155.556,20.753"/>
		<path fill="none" stroke="#69BF8B" stroke-opacity="0.4" d="M1334.444,479.221c77.778,0,77.778,10.623,155.556,10.623"/>
		<path fill="none" stroke="#698BBF" stroke-opacity="0.4" d="M506.667,484.832c77.777,0,77.777,15.09,155.556,15.09"/>
		<path fill="none" stroke="#698BBF" stroke-opacity="0.4" d="M1334.444,489.753c77.778,0,77.778-10.13,155.556-10.13"/>
		<path fill="none" stroke="#698BBF" stroke-opacity="0.4" d="M1168.889,489.662c77.778,0,77.778-10.363,155.556-10.363"/>
		<path fill="none" stroke="#AE69BF" stroke-opacity="0.4" d="M1003.333,499.948c77.778,0,77.778-20.753,155.556-20.753"/>
		<path fill="none" stroke="#AE69BF" stroke-opacity="0.4" d="M1334.444,499.961c77.778,0,77.778-20.233,155.556-20.233"/>
		<path fill="none" stroke="#69BF8B" stroke-opacity="0.4" d="M1334.444,479.338c77.778,0,77.778,20.623,155.556,20.623"/>
		<path fill="none" stroke="#698BBF" stroke-opacity="0.4" d="M672.223,487.247c77.777,0,77.777,1.48,155.555,1.48"/>
		<path fill="none" stroke="#AE69BF" stroke-opacity="0.4" d="M341.111,499.974c77.777,0,77.777-15.09,155.556-15.09"/>
		<path fill="none" stroke="#AE69BF" stroke-opacity="0.4" d="M175.556,499.974c77.778,0,77.778-22.568,155.556-22.568"/>
		<path fill="none" stroke="#698BBF" stroke-opacity="0.4" d="M837.777,499.987c77.778,0,77.778,0,155.556,0"/>
		<path fill="none" stroke="#AE69BF" stroke-opacity="0.4" d="M1168.889,499.987c77.778,0,77.778-20.624,155.556-20.624"/>
	</g>
	<g>
		<g transform="translate(0,15)">
			<rect width="10" height="470">
			<title>acquisition
18,099</title>
			</rect>
			<text transform="matrix(1 0 0 1 16 238.8496)" font-family="'ArialMT'" font-size="11">acquisition</text>
		</g>
		<g transform="translate(1490,499.9220951433781)">
			<rect y="0" fill="#666666" width="10" height="0.078">
			<title>dépot
3</title>
			</rect>
			<text transform="matrix(1 0 0 1 -33.5273 3.8885)" font-family="'ArialMT'" font-size="11">dépot</text>
		</g>
		<g transform="translate(1490,474.23504060997845)">
			<rect y="0" fill="#666666" width="10" height="5.531">
			<title>exposition
213</title>
			</rect>
			<text transform="matrix(1 0 0 1 -55.5322 6.6155)" font-family="'ArialMT'" font-size="11">exposition</text>
		</g>
		<g transform="translate(1490,489.76628543013425)">
			<rect y="0" fill="#666666" width="10" height="0.155">
			<title>transfert
6</title>
			</rect>
			<text transform="matrix(1 0 0 1 -46.3477 3.928)" font-family="'ArialMT'" font-size="11">transfert</text>
		</g>
		<g transform="translate(165.55555555555554,360.8856842919498)">
			<rect x="0" y="0" width="10" height="86.448">
			<title>dépot
3,329</title>
			</rect>
			<text transform="matrix(1 0 0 1 16.0001 47.0743)" font-family="'ArialMT'" font-size="11">dépot</text>
		</g>
		<g transform="translate(165.55555555555554,0)">
			<rect x="0" width="10" height="191.802">
			<title>exposition
7,386</title>
			</rect>
			<text transform="matrix(1 0 0 1 16.0001 99.751)" font-family="'ArialMT'" font-size="11">exposition</text>
		</g>
		<g transform="translate(165.55555555555554,457.33410685673243)">
			<rect x="0" y="0" width="10" height="42.666">
			<title>transfert
1,643</title>
			</rect>
			<text transform="matrix(1 0 0 1 16.0001 25.1825)" font-family="'ArialMT'" font-size="11">transfert</text>
		</g>
		<g transform="translate(331.1111111111111,456.05945079838665)">
			<rect x="0" y="0" width="10" height="21.372">
			<title>dépot
823</title>
			</rect>
			<text transform="matrix(1 0 0 1 16.0002 14.5363)" font-family="'ArialMT'" font-size="11">dépot</text>
		</g>
		<g transform="translate(331.1111111111111,314.8157356760042)">
			<rect x="0" y="0.001" width="10" height="131.243">
			<title>exposition
5,054</title>
			</rect>
			<text transform="matrix(1 0 0 1 16.0002 69.4714)" font-family="'ArialMT'" font-size="11">exposition</text>
		</g>
		<g transform="translate(331.1111111111111,487.4313497983314)">
			<rect x="0" y="0" width="10" height="12.568">
			<title>transfert
484</title>
			</rect>
			<text transform="matrix(1 0 0 1 16.0002 10.1341)" font-family="'ArialMT'" font-size="11">transfert</text>
		</g>
		<g transform="translate(496.66666666666663,477.45731808387205)">
			<rect x="0" y="0" width="10" height="7.453">
			<title>dépot
287</title>
			</rect>
			<text transform="matrix(1 0 0 1 15.9998 7.5769)" font-family="'ArialMT'" font-size="11">dépot</text>
		</g>
		<g transform="translate(496.66666666666663,391.1365268799381)">
			<rect x="0" y="0" width="10" height="76.32">
			<title>exposition
2,939</title>
			</rect>
			<text transform="matrix(1 0 0 1 15.9998 42.0099)" font-family="'ArialMT'" font-size="11">exposition</text>
		</g>
		<g transform="translate(496.66666666666663,494.91021603403505)">
			<rect x="0" y="0" width="10" height="5.09">
			<title>transfert
196</title>
			</rect>
			<text transform="matrix(1 0 0 1 15.9998 6.3945)" font-family="'ArialMT'" font-size="11">transfert</text>
		</g>
		<g transform="translate(662.2222222222222,484.0272943256533)">
			<rect x="0" y="0" width="10" height="3.246">
			<title>dépot
125</title>
			</rect>
			<text transform="matrix(1 0 0 1 15.9999 5.4727)" font-family="'ArialMT'" font-size="11">dépot</text>
		</g>
		<g transform="translate(662.2222222222222,428.0893972042654)">
			<rect x="0" y="0" width="10" height="45.938">
			<title>exposition
1,769</title>
			</rect>
			<text transform="matrix(1 0 0 1 15.9999 26.8188)" font-family="'ArialMT'" font-size="11">exposition</text>
		</g>
		<g transform="translate(662.2222222222222,497.273330018233)">
			<rect x="0" y="0" width="10" height="2.727">
			<title>transfert
105</title>
			</rect>
			<text transform="matrix(1 0 0 1 15.9999 5.213)" font-family="'ArialMT'" font-size="11">transfert</text>
		</g>
		<g transform="translate(827.7777777777777,498.7535222940494)">
			<rect x="0" y="0" width="10" height="1.246">
			<title>dépot
48</title>
			</rect>
			<text transform="matrix(1 0 0 1 -33.5268 4.4731)" font-family="'ArialMT'" font-size="11">dépot</text>
		</g>
		<g transform="translate(827.7777777777777,448.73418420907234)">
			<rect x="0" y="0" width="10" height="28.306">
			<title>exposition
1,090</title>
			</rect>
			<text transform="matrix(1 0 0 1 -55.5317 18.0031)" font-family="'ArialMT'" font-size="11">exposition</text>
		</g>
		<g transform="translate(827.7777777777777,487.03961544836733)">
			<rect x="0" y="0" width="10" height="1.714">
			<title>transfert
66</title>
			</rect>
			<text transform="matrix(1 0 0 1 -46.3481 4.7065)" font-family="'ArialMT'" font-size="11">transfert</text>
		</g>
		<g transform="translate(993.3333333333333,488.5198077241837)">
			<rect x="0" y="0" width="10" height="0.779">
			<title>dépot
30</title>
			</rect>
			<text transform="matrix(1 0 0 1 -33.5267 4.24)" font-family="'ArialMT'" font-size="11">dépot</text>
		</g>
		<g transform="translate(993.3333333333333,460.8613735565501)">
			<rect x="0" y="0" width="10" height="17.658">
			<title>exposition
680</title>
			</rect>
			<text transform="matrix(1 0 0 1 -55.5325 12.6797)" font-family="'ArialMT'" font-size="11">exposition</text>
		</g>
		<g transform="translate(993.3333333333333,499.2988562904028)">
			<rect x="0" y="0" width="10" height="0.701">
			<title>transfert
27</title>
			</rect>
			<text transform="matrix(1 0 0 1 -46.347 4.2002)" font-family="'ArialMT'" font-size="11">transfert</text>
		</g>
		<g transform="translate(1158.8888888888887,489.2469197193215)">
			<rect x="0" y="0" width="10" height="0.468">
			<title>dépot
18</title>
			</rect>
			<text transform="matrix(1 0 0 1 -33.5266 4.0841)" font-family="'ArialMT'" font-size="11">dépot</text>
		</g>
		<g transform="translate(1158.8888888888887,467.53522294049395)">
			<rect x="0" y="0" width="10" height="11.712">
			<title>exposition
451</title>
			</rect>
			<text transform="matrix(1 0 0 1 -55.5325 9.706)" font-family="'ArialMT'" font-size="11">exposition</text>
		</g>
		<g transform="translate(1158.8888888888887,499.71434885905296)">
			<rect x="0" y="0" width="10" height="0.285">
			<title>transfert
11</title>
			</rect>
			<text transform="matrix(1 0 0 1 -46.3479 3.9927)" font-family="'ArialMT'" font-size="11">transfert</text>
		</g>
		<g transform="translate(1324.4444444444443,489.37676114702475)">
			<rect x="0" y="0" width="10" height="0.441">
			<title>dépot
17</title>
			</rect>
			<text transform="matrix(1 0 0 1 -33.5265 4.0705)" font-family="'ArialMT'" font-size="11">dépot</text>
		</g>
		<g transform="translate(1324.4444444444443,471.9498314824024)">
			<rect x="0" y="0" width="10" height="7.427">
			<title>exposition
286</title>
			</rect>
			<text transform="matrix(1 0 0 1 -55.5323 7.5638)" font-family="'ArialMT'" font-size="11">exposition</text>
		</g>
		<g transform="translate(1324.4444444444443,499.8182220012156)">
			<rect x="0" y="0" width="10" height="0.182">
			<title>transfert
7</title>
			</rect>
			<text transform="matrix(1 0 0 1 -46.3478 3.9406)" font-family="'ArialMT'" font-size="11">transfert</text>
		</g>
	</g>
</g>
</svg>
