<?xml version="1.0" encoding="utf-8"?>
<!-- Generator: Adobe Illustrator 15.0.0, SVG Export Plug-In . SVG Version: 6.00 Build 0)  -->
<!DOCTYPE svg PUBLIC "-//W3C//DTD SVG 1.1//EN" "http://www.w3.org/Graphics/SVG/1.1/DTD/svg11.dtd">
<svg version="1.1" id="Calque_1" xmlns="http://www.w3.org/2000/svg" xmlns:xlink="http://www.w3.org/1999/xlink" x="0px" y="0px"
	 width="847px" height="500px" viewBox="0 0 847 500" enable-background="new 0 0 847 500" xml:space="preserve">
<text transform="matrix(1 0 0 1 -12.5122 490.0996)" font-family="'ArialMT'" font-size="10">1,980</text>
<line fill="none" stroke="#CCCCCC" x1="117.639" y1="480" x2="117.639" y2="0"/>
<text transform="matrix(1 0 0 1 105.1265 490.0996)" font-family="'ArialMT'" font-size="10">1,985</text>
<line fill="none" stroke="#CCCCCC" x1="235.278" y1="480" x2="235.278" y2="0"/>
<text transform="matrix(1 0 0 1 222.7656 490.0996)" font-family="'ArialMT'" font-size="10">1,990</text>
<line fill="none" stroke="#CCCCCC" x1="352.917" y1="480" x2="352.917" y2="0"/>
<text transform="matrix(1 0 0 1 340.4043 490.0996)" font-family="'ArialMT'" font-size="10">1,995</text>
<line fill="none" stroke="#CCCCCC" x1="470.556" y1="480" x2="470.556" y2="0"/>
<text transform="matrix(1 0 0 1 458.043 490.0996)" font-family="'ArialMT'" font-size="10">2,000</text>
<line fill="none" stroke="#CCCCCC" x1="588.194" y1="480" x2="588.194" y2="0"/>
<text transform="matrix(1 0 0 1 575.6816 490.0996)" font-family="'ArialMT'" font-size="10">2,005</text>
<line fill="none" stroke="#CCCCCC" x1="705.833" y1="480" x2="705.833" y2="0"/>
<text transform="matrix(1 0 0 1 693.3213 490.0996)" font-family="'ArialMT'" font-size="10">2,010</text>
<line fill="none" stroke="#CCCCCC" x1="823.473" y1="480" x2="823.473" y2="0"/>
<text transform="matrix(1 0 0 1 810.96 490.0996)" font-family="'ArialMT'" font-size="10">2,015</text>
<path fill="#69BFBF" d="M0,472.054L23.528,480l23.528-0.195l23.528-0.056l23.528-0.988L117.639,480l23.528-1.407l23.528-0.087
	l23.528,0.969l23.528-2.461l23.528,1.339l23.528,0.497l23.528-1.474l23.528,1.608l23.527-3.845l23.528-4.838l23.527,1.456
	l23.528-6.684l23.527,7.18l23.527,1.231l23.528-6.481l23.527,11.866l23.528-20.745l23.527,4.353l23.528,8.647l23.527,1.894
	l23.528-0.583l23.527-6.701l23.527,6.968l23.528,1.059l23.527-5.663l23.528-1.201l23.527,10.592l23.528-8.845l23.527,9.937
	l23.528-3.385L847,478.471V480h-23.527h-23.528h-23.527h-23.528h-23.527h-23.528h-23.527h-23.528H635.25h-23.527h-23.528h-23.527
	h-23.528h-23.527h-23.528h-23.527h-23.528H423.5h-23.527h-23.528h-23.527h-23.528h-23.527h-23.528h-23.528h-23.528H211.75h-23.528
	h-23.528h-23.528h-23.528H94.111H70.583H47.056H23.528H0V472.054z"/>
<path fill="#94BF69" d="M0,470.729L23.528,480l23.528-1.76l23.528,0.838l23.528-1.202l23.527,0.965l23.528-5.595l23.528,4.62
	l23.528-0.319l23.528-6.1l23.528-4.461l23.528,7.115l23.528-2.129l23.528,4.777l23.527-8.901l23.528-12.786l23.527,7.837
	l23.528-11.259l23.527,2.118l23.527,10.051l23.528-6.389l23.527,19.792l23.528-51.021l23.527,14.941l23.528,14.198l23.527,6.485
	l23.528-6.208l23.527-5.329l23.527,8.378l23.528,6.979l23.527-9.987l23.528-4.04l23.527,12.994l23.528-5.46l23.527,18.019
	l23.528-7.099L847,474.54v3.931l-23.527-3.275l-23.528,3.385l-23.527-9.937l-23.528,8.845l-23.527-10.592l-23.528,1.201
	l-23.527,5.663l-23.528-1.059l-23.527-6.968l-23.527,6.701l-23.528,0.583l-23.527-1.894l-23.528-8.647l-23.527-4.353l-23.528,20.745
	l-23.527-11.866l-23.528,6.481l-23.527-1.231l-23.527-7.18l-23.528,6.684l-23.527-1.456l-23.528,4.838l-23.527,3.845l-23.528-1.608
	l-23.528,1.474l-23.528-0.497l-23.528-1.339l-23.528,2.461l-23.528-0.969l-23.528,0.087L117.639,480l-23.527-1.239l-23.528,0.988
	l-23.528,0.056L23.528,480L0,472.054V470.729z"/>
<path fill="#D3BDF4" d="M0,446.451l23.528,32.193l23.528-2.163l23.528-0.001l23.528-0.198l23.527,0.433l23.528-24.575l23.528,20.178
	l23.528-26.131l23.528,14.943l23.528-7.816l23.528,11.438l23.528-9.914l23.528,12.569l23.527-9.076l23.528-80.621l23.527,39.057
	l23.528-16.992L423.5,425.29l23.527,23.287l23.528-47.734l23.527,53.316l23.528-84.729l23.527,36.128l23.528-193.01l23.527,217.446
	l23.528-23.323l23.527,10.619l23.527-13.436l23.528-3.654l23.527,17.229l23.528,6.552l23.527,22.059l23.528-29.921l23.527,29.156
	l23.528-2.074l23.527,19v12.34l-23.527-4.478l-23.528,7.099l-23.527-18.019l-23.528,5.46l-23.527-12.994l-23.528,4.04l-23.527,9.987
	l-23.528-6.979l-23.527-8.378l-23.527,5.329l-23.528,6.208l-23.527-6.485l-23.528-14.198l-23.527-14.941l-23.528,51.021
	l-23.527-19.792l-23.528,6.389L423.5,453.759l-23.527-2.118l-23.528,11.259l-23.527-7.837l-23.528,12.786l-23.527,8.901
	l-23.528-4.777l-23.528,2.129l-23.528-7.115l-23.528,4.461l-23.528,6.1l-23.528,0.319l-23.528-4.62l-23.528,5.595l-23.527-0.965
	l-23.528,1.202l-23.528-0.838L23.528,480L0,470.729V446.451z"/>
<path fill="#FAC255" d="M0,438.063l23.528,28.835l23.528,0.981l23.528-1.874l23.528-8.489l23.527,12.821l23.528-46.621
	l23.528,40.492l23.528-86.176l23.528,56.759l23.528-9.978l23.528,30.011l23.528-16.044l23.528,2.421l23.527-28.641l23.528-146.149
	l23.527,102.621l23.528-4.149l23.527,21.479l23.527,33.569l23.528-105.993l23.527,102.551l23.528-94.482l23.527,27.373L564.667,0
	l23.527,381.938l23.528-51.838l23.527,26.857l23.527,1.457l23.528-38.885l23.527,52.909l23.528,24.133l23.527,23.915l23.528-46.082
	l23.527,45.646l23.528,2.184L847,442.436V462.2l-23.527-19l-23.528,2.074l-23.527-29.156l-23.528,29.921l-23.527-22.059
	l-23.528-6.552L682.306,400.2l-23.528,3.654L635.25,417.29l-23.527-10.619l-23.528,23.323l-23.527-217.446l-23.528,193.01
	l-23.527-36.128l-23.528,84.729l-23.527-53.316l-23.528,47.734L423.5,425.29l-23.527-25.517l-23.528,16.992l-23.527-39.057
	l-23.528,80.621l-23.527,9.076l-23.528-12.569l-23.528,9.914l-23.528-11.438l-23.528,7.816l-23.528-14.943l-23.528,26.131
	l-23.528-20.178l-23.528,24.575l-23.527-0.433l-23.528,0.198l-23.528,0.001l-23.528,2.163L0,446.451V438.063z"/>
<g>
	<rect x="5" y="8.5" fill="#FAC255" width="24" height="24"/>
	<text transform="matrix(1 0 0 1 45 24.5)" font-family="'MyriadPro-Regular'" font-size="12">domestique</text>
</g>
<g>
	<rect x="5" y="42.758" fill="#D3BDF4" width="24" height="24"/>
	<text transform="matrix(1 0 0 1 45 58.2793)" font-family="'MyriadPro-Regular'" font-size="12">import</text>
</g>
<line fill="none" stroke="#CCCCCC" x1="0" y1="480" x2="0" y2="0"/>
<path fill="none" stroke="#CCCCCC" d="M0,0v480h847V0"/>
<g>
	<rect x="5" y="77.016" fill="#94BF69" width="24" height="24"/>
	<text transform="matrix(1 0 0 1 45 93.0156)" font-family="'MyriadPro-Regular'" font-size="12">export</text>
</g>
<g>
	<rect x="5" y="111.273" fill="#69BFBF" width="24" height="24"/>
	<text transform="matrix(1 0 0 1 45 123.2734)" font-family="'MyriadPro-Regular'" font-size="12">import/export</text>
</g>
</svg>
