<?xml version="1.0" encoding="utf-8"?>
<!-- Generator: Adobe Illustrator 15.0.0, SVG Export Plug-In . SVG Version: 6.00 Build 0)  -->
<!DOCTYPE svg PUBLIC "-//W3C//DTD SVG 1.1//EN" "http://www.w3.org/Graphics/SVG/1.1/DTD/svg11.dtd">
<svg version="1.1" id="Calque_1" xmlns="http://www.w3.org/2000/svg" xmlns:xlink="http://www.w3.org/1999/xlink" x="0px" y="0px"
	 width="847px" height="500px" viewBox="0 0 847 500" enable-background="new 0 0 847 500" xml:space="preserve">
<line fill="none" stroke="#CCCCCC" x1="0" y1="480" x2="0" y2="0"/>
<text transform="matrix(1 0 0 1 5 490.0996)" font-family="'ArialMT'" font-size="10">1980</text>
<line fill="none" stroke="#CCCCCC" x1="117.639" y1="480" x2="117.639" y2="0"/>
<text transform="matrix(1 0 0 1 105.1265 490.0996)" font-family="'ArialMT'" font-size="10">1985</text>
<line fill="none" stroke="#CCCCCC" x1="235.278" y1="480" x2="235.278" y2="0"/>
<text transform="matrix(1 0 0 1 222.7656 490.0996)" font-family="'ArialMT'" font-size="10">1990</text>
<line fill="none" stroke="#CCCCCC" x1="352.917" y1="480" x2="352.917" y2="0"/>
<text transform="matrix(1 0 0 1 340.4043 490.0996)" font-family="'ArialMT'" font-size="10">1995</text>
<line fill="none" stroke="#CCCCCC" x1="470.556" y1="480" x2="470.556" y2="0"/>
<text transform="matrix(1 0 0 1 458.043 490.0996)" font-family="'ArialMT'" font-size="10">2000</text>
<line fill="none" stroke="#CCCCCC" x1="588.194" y1="480" x2="588.194" y2="0"/>
<text transform="matrix(1 0 0 1 575.6816 490.0996)" font-family="'ArialMT'" font-size="10">2005</text>
<line fill="none" stroke="#CCCCCC" x1="705.833" y1="480" x2="705.833" y2="0"/>
<text transform="matrix(1 0 0 1 693.3213 490.0996)" font-family="'ArialMT'" font-size="10">2,010</text>
<line fill="none" stroke="#CCCCCC" x1="823.473" y1="480" x2="823.473" y2="0"/>
<text transform="matrix(1 0 0 1 810.96 490.0996)" font-family="'ArialMT'" font-size="10">2015</text>
<path fill="none" stroke="#CCCCCC" d="M0,0v480h847V0"/>
<path fill="#D6D4D4" d="M0,274.677l23.528,199.784l23.528,1.364l23.528-0.134l23.528-1.013l23.527-6.603l23.528,0.571l23.528,0.549
	l23.528-16.775l23.528-19.779l23.528,8.787l23.528-3.646l23.528,11.077l23.528-8.146l23.527-39.211l23.528-44.429l23.527,76.02
	l23.528-99.793l23.527,85.575l23.527,9.669l23.528,2.546l23.527,13.511l23.528-7.039l23.527-20.984l23.528,9.996l23.527-19.649
	l23.528-0.561l23.527,26.381l23.527,1.072l23.528,11.292l23.527,2.412l23.528,15.375l23.527,13.476l23.528,1.9l23.527-0.346
	l23.528,1.469L847,468.857V480h-23.527h-23.528h-23.527h-23.528h-23.527h-23.528h-23.527h-23.528H635.25h-23.527h-23.528h-23.527
	h-23.528h-23.527h-23.528h-23.527h-23.528H423.5h-23.527h-23.528h-23.527h-23.528h-23.527h-23.528h-23.528h-23.528H211.75h-23.528
	h-23.528h-23.528h-23.528H94.111H70.583H47.056H23.528H0V274.677z"/>
<path fill="#FAC255" d="M0,236.266l23.528,227.653l23.528,3.71l23.528-2.344l23.528-6.712l23.527,2.624l23.528-34.178l23.528,30.529
	l23.528-88.281l23.528,33.949l23.528,4.072l23.528,13.083l23.528,1.867l23.528-10.287l23.527-55.944l23.528-155.101l23.527,156.185
	l23.528-94.928l23.527,94.898l23.527,35.031l23.528-84.469l23.527,85.964l23.528-45.196l23.527-6.662l23.528-321.265l23.527,319.677
	l23.528-36.845l23.527,49.632l23.527-2.981l23.528-36.366l23.527,54.988l23.528,47.854l23.527,22.199l23.528-30.405l23.527,18.485
	l23.528,6.392L847,441.647v27.21l-23.527,10.538l-23.528-1.469l-23.527,0.346l-23.528-1.9l-23.527-13.476l-23.528-15.375
	l-23.527-2.412l-23.528-11.292l-23.527-1.072l-23.527-26.381l-23.528,0.561l-23.527,19.649l-23.528-9.996l-23.527,20.984
	l-23.528,7.039l-23.527-13.511l-23.528-2.546l-23.527-9.669l-23.527-85.575l-23.528,99.793l-23.527-76.02l-23.528,44.429
	l-23.527,39.211l-23.528,8.146l-23.528-11.077l-23.528,3.646l-23.528-8.787l-23.528,19.779l-23.528,16.775l-23.528-0.549
	l-23.528-0.571l-23.527,6.603l-23.528,1.013l-23.528,0.134l-23.528-1.364L0,274.677V236.266z"/>
<path fill="#69BFBF" d="M0,228.933l23.528,234.986l23.528,2.318l23.528-1.682l23.528-7.662l23.527,3.387l23.528-38.826
	l23.528,34.069l23.528-88.334l23.528,29.154l23.528,0.521l23.528,18.501l23.528,0.523l23.528-6.507l23.527-62.986l23.528-169.781
	l23.527,166.756l23.528-103.934l23.527,96.41l23.527,41.243l23.528-87.429l23.527,101.128l23.528-86.096l23.527,5.202L564.667,0
	l23.527,325.63l23.528-42.359l23.527,45.562l23.527,2.709l23.528-30.01l23.527,47.431l23.528,44.227l23.527,32.047l23.528-34.638
	l23.527,33.773l23.528,0.691L847,437.155v4.492l-23.527-8.552l-23.528-6.392l-23.527-18.485l-23.528,30.405l-23.527-22.199
	l-23.528-47.854l-23.527-54.988l-23.528,36.366l-23.527,2.981l-23.527-49.632l-23.528,36.845L564.667,20.466L541.139,341.73
	l-23.527,6.662l-23.528,45.196l-23.527-85.964l-23.528,84.469L423.5,357.062l-23.527-94.898l-23.528,94.928l-23.527-156.185
	l-23.528,155.101l-23.527,55.944l-23.528,10.287l-23.528-1.867l-23.528-13.083l-23.528-4.072l-23.528-33.949l-23.528,88.281
	l-23.528-30.529l-23.528,34.178l-23.527-2.624l-23.528,6.712l-23.528,2.344l-23.528-3.71L0,236.266V228.933z"/>
<rect x="5" y="8.5" fill="#FAC255" width="24" height="24"/>
<rect x="5" y="42.5" fill="#69BFBF" width="24" height="24"/>
<text transform="matrix(1 0 0 1 45 24.5)" font-family="'MyriadPro-Regular'" font-size="12">oeuvre exposée en France</text>
<text transform="matrix(1 0 0 1 45 54.5)" font-family="'MyriadPro-Regular'" font-size="12">oeuvre exposée à l’étranger</text>
<text transform="matrix(1 0 0 1 631.6816 18.9473)" font-family="'MyriadPro-Regular'" font-size="12">probabilité d’être</text>
<text transform="matrix(1 0 0 1 631.6816 33.3477)" font-family="'MyriadPro-Regular'" font-size="12">exposée (nombre de dépôts </text>
<text transform="matrix(1 0 0 1 631.6816 47.7471)" font-family="'MyriadPro-Regular'" font-size="12">/ nombre d’oeuvres)</text>
<g>
	<g>
		<line fill="none" stroke="#000000" stroke-miterlimit="10" x1="622.682" y1="18.947" x2="576.824" y2="18.947"/>
		<g>
			<polygon points="578.816,17.252 577.119,18.947 578.816,20.642 577.377,20.642 575.682,18.947 577.377,17.252 			"/>
		</g>
	</g>
</g>
</svg>
