<svg width="775" height="520" xmlns="http://www.w3.org/2000/svg" version="1.1"><g transform="translate(0,10)"><g><path class="link" d="M10,34.50217155266013C387.5,34.50217155266013 387.5,29.50217155266024 765,29.50217155266024" style="stroke-width: 59.0043; fill: none; stroke: rgb(191, 132, 105); stroke-opacity: 0.4;"></path><path class="link" d="M10,144.06568946796955C387.5,144.06568946796955 387.5,154.90228013029324 765,154.90228013029324" style="stroke-width: 28.8795; fill: none; stroke: rgb(191, 105, 105); stroke-opacity: 0.4;"></path><path class="link" d="M10,74.25352877307273C387.5,74.25352877307273 387.5,130.21335504886002 765,130.21335504886002" style="stroke-width: 20.4984; fill: none; stroke: rgb(191, 132, 105); stroke-opacity: 0.4;"></path><path class="link" d="M10,195.693539630836C387.5,195.693539630836 387.5,81.61482084690563 765,81.61482084690563" style="stroke-width: 19.1352; fill: none; stroke: rgb(114, 191, 105); stroke-opacity: 0.4;"></path><path class="link" d="M10,92.64820846905536C387.5,92.64820846905536 387.5,272.8333333333334 765,272.8333333333334" style="stroke-width: 14.608; fill: none; stroke: rgb(191, 132, 105); stroke-opacity: 0.4;"></path><path class="link" d="M10,123.10450597176978C387.5,123.10450597176978 387.5,65.5257871878394 765,65.5257871878394" style="stroke-width: 13.0429; fill: none; stroke: rgb(191, 105, 105); stroke-opacity: 0.4;"></path><path class="link" d="M10,296.1723669923996C387.5,296.1723669923996 387.5,192.81080347448435 765,192.81080347448435" style="stroke-width: 12.9419; fill: none; stroke: rgb(105, 191, 123); stroke-opacity: 0.4;"></path><path class="link" d="M10,263.46091205211724C387.5,263.46091205211724 387.5,241.89739413680792 765,241.89739413680792" style="stroke-width: 9.55917; fill: none; stroke: rgb(168, 191, 105); stroke-opacity: 0.4;"></path><path class="link" d="M10,254.20466883821928C387.5,254.20466883821928 387.5,181.8631921824105 765,181.8631921824105" style="stroke-width: 8.95331; fill: none; stroke: rgb(168, 191, 105); stroke-opacity: 0.4;"></path><path class="link" d="M10,209.2833876221498C387.5,209.2833876221498 387.5,173.3642779587406 765,173.3642779587406" style="stroke-width: 8.04452; fill: none; stroke: rgb(114, 191, 105); stroke-opacity: 0.4;"></path><path class="link" d="M10,216.957654723127C387.5,216.957654723127 387.5,233.4657980456027 765,233.4657980456027" style="stroke-width: 7.30402; fill: none; stroke: rgb(114, 191, 105); stroke-opacity: 0.4;"></path><path class="link" d="M10,321.72285559174804C387.5,321.72285559174804 387.5,100.02633007600444 765,100.02633007600444" style="stroke-width: 5.09935; fill: none; stroke: rgb(191, 159, 105); stroke-opacity: 0.4;"></path><path class="link" d="M10,223.09201954397392C387.5,223.09201954397392 387.5,285.8509771986972 765,285.8509771986972" style="stroke-width: 4.96471; fill: none; stroke: rgb(114, 191, 105); stroke-opacity: 0.4;"></path><path class="link" d="M10,326.73805646036914C387.5,326.73805646036914 387.5,201.74728555917488 765,201.74728555917488" style="stroke-width: 4.93105; fill: none; stroke: rgb(191, 159, 105); stroke-opacity: 0.4;"></path><path class="link" d="M10,349.30971769815415C387.5,349.30971769815415 387.5,206.39223669924002 765,206.39223669924002" style="stroke-width: 4.35885; fill: none; stroke: rgb(141, 191, 105); stroke-opacity: 0.4;"></path><path class="link" d="M10,160.6848534201954C387.5,160.6848534201954 387.5,227.63436482084697 765,227.63436482084697" style="stroke-width: 4.35885; fill: none; stroke: rgb(191, 105, 105); stroke-opacity: 0.4;"></path><path class="link" d="M10,230.79994571118345C387.5,230.79994571118345 387.5,351.22665580890344 765,351.22665580890344" style="stroke-width: 4.12324; fill: none; stroke: rgb(114, 191, 105); stroke-opacity: 0.4;"></path><path class="link" d="M10,167.90472312703582C387.5,167.90472312703582 387.5,309.2136264929425 765,309.2136264929425" style="stroke-width: 3.61835; fill: none; stroke: rgb(191, 105, 105); stroke-opacity: 0.4;"></path><path class="link" d="M10,101.7445711183496C387.5,101.7445711183496 387.5,305.6121064060804 765,305.6121064060804" style="stroke-width: 3.58469; fill: none; stroke: rgb(191, 132, 105); stroke-opacity: 0.4;"></path><path class="link" d="M10,247.9693268186753C387.5,247.9693268186753 387.5,92.94109663409347 765,92.94109663409347" style="stroke-width: 3.51737; fill: none; stroke: rgb(168, 191, 105); stroke-opacity: 0.4;"></path><path class="link" d="M10,353.2057546145494C387.5,353.2057546145494 387.5,252.01194353963092 765,252.01194353963092" style="stroke-width: 3.43322; fill: none; stroke: rgb(141, 191, 105); stroke-opacity: 0.4;"></path><path class="link" d="M10,164.47991313789356C387.5,164.47991313789356 387.5,281.7529858849078 765,281.7529858849078" style="stroke-width: 3.23127; fill: none; stroke: rgb(191, 105, 105); stroke-opacity: 0.4;"></path><path class="link" d="M10,370.3078175895766C387.5,370.3078175895766 387.5,210.15363735070582 765,210.15363735070582" style="stroke-width: 3.16395; fill: none; stroke: rgb(105, 123, 191); stroke-opacity: 0.4;"></path><path class="link" d="M10,271.9598262757871C387.5,271.9598262757871 387.5,332.66883821932686 765,332.66883821932686" style="stroke-width: 2.92834; fill: none; stroke: rgb(168, 191, 105); stroke-opacity: 0.4;"></path><path class="link" d="M10,288.3129750271444C387.5,288.3129750271444 387.5,96.08821932681876 765,96.08821932681876" style="stroke-width: 2.77687; fill: none; stroke: rgb(105, 191, 123); stroke-opacity: 0.4;"></path><path class="link" d="M10,304.0317589576547C387.5,304.0317589576547 387.5,248.0654180238872 765,248.0654180238872" style="stroke-width: 2.77687; fill: none; stroke: rgb(105, 191, 123); stroke-opacity: 0.4;"></path><path class="link" d="M10,345.7671009771987C387.5,345.7671009771987 387.5,103.93919652551584 765,103.93919652551584" style="stroke-width: 2.72638; fill: none; stroke: rgb(141, 191, 105); stroke-opacity: 0.4;"></path><path class="link" d="M10,172.94516829533114C387.5,172.94516829533114 387.5,348.00380021715534 765,348.00380021715534" style="stroke-width: 2.32248; fill: none; stroke: rgb(191, 105, 105); stroke-opacity: 0.4;"></path><path class="link" d="M10,227.61074918566771C387.5,227.61074918566771 387.5,330.07709011943547 765,330.07709011943547" style="stroke-width: 2.25516; fill: none; stroke: rgb(114, 191, 105); stroke-opacity: 0.4;"></path><path class="link" d="M10,170.74891422366989C387.5,170.74891422366989 387.5,327.9144951140066 765,327.9144951140066" style="stroke-width: 2.07003; fill: none; stroke: rgb(191, 105, 105); stroke-opacity: 0.4;"></path><path class="link" d="M10,374.0439739413681C387.5,374.0439739413681 387.5,291.54777415852345 765,291.54777415852345" style="stroke-width: 1.78393; fill: none; stroke: rgb(105, 123, 191); stroke-opacity: 0.4;"></path><path class="link" d="M10,386.0046145494028C387.5,386.0046145494028 387.5,106.53935939196535 765,106.53935939196535" style="stroke-width: 1.69978; fill: none; stroke: rgb(105, 191, 150); stroke-opacity: 0.4;"></path><path class="link" d="M10,233.55998914223667C387.5,233.55998914223667 387.5,370.86997828447346 765,370.86997828447346" style="stroke-width: 1.39685; fill: none; stroke: rgb(114, 191, 105); stroke-opacity: 0.4;"></path><path class="link" d="M10,331.16422366992396C387.5,331.16422366992396 387.5,314.24565689467977 765,314.24565689467977" style="stroke-width: 1.36319; fill: none; stroke: rgb(191, 159, 105); stroke-opacity: 0.4;"></path><path class="link" d="M10,174.77117263843647C387.5,174.77117263843647 387.5,369.506786102063 765,369.506786102063" style="stroke-width: 1.32953; fill: none; stroke: rgb(191, 105, 105); stroke-opacity: 0.4;"></path><path class="link" d="M10,269.8308903365906C387.5,269.8308903365906 387.5,312.5963626492943 765,312.5963626492943" style="stroke-width: 1.32953; fill: none; stroke: rgb(168, 191, 105); stroke-opacity: 0.4;"></path><path class="link" d="M10,372.52090119435394C387.5,372.52090119435394 387.5,254.35966340933777 765,254.35966340933777" style="stroke-width: 1.26221; fill: none; stroke: rgb(105, 123, 191); stroke-opacity: 0.4;"></path><path class="link" d="M10,104.15119435396306C387.5,104.15119435396306 387.5,326.26520086862115 765,326.26520086862115" style="stroke-width: 1.22856; fill: none; stroke: rgb(191, 132, 105); stroke-opacity: 0.4;"></path><path class="link" d="M10,105.54804560260585C387.5,105.54804560260585 387.5,368.2277415852335 765,368.2277415852335" style="stroke-width: 1.22856; fill: none; stroke: rgb(191, 132, 105); stroke-opacity: 0.4;"></path><path class="link" d="M10,307.742671009772C387.5,307.742671009772 387.5,354.95439739413683 765,354.95439739413683" style="stroke-width: 1.17807; fill: none; stroke: rgb(105, 191, 123); stroke-opacity: 0.4;"></path><path class="link" d="M10,332.99022801302925C387.5,332.99022801302925 387.5,356.09880564603696 765,356.09880564603696" style="stroke-width: 1.11075; fill: none; stroke: rgb(191, 159, 105); stroke-opacity: 0.4;"></path><path class="link" d="M10,273.96254071661235C387.5,273.96254071661235 387.5,353.82681867535297 765,353.82681867535297" style="stroke-width: 1.07709; fill: none; stroke: rgb(168, 191, 105); stroke-opacity: 0.4;"></path><path class="link" d="M10,275.8726927252986C387.5,275.8726927252986 387.5,385.7505428881651 765,385.7505428881651" style="stroke-width: 1.06026; fill: none; stroke: rgb(168, 191, 105); stroke-opacity: 0.4;"></path><path class="link" d="M10,399.2695439739413C387.5,399.2695439739413 387.5,213.22502714440833 765,213.22502714440833" style="stroke-width: 1.0266; fill: none; stroke: rgb(191, 186, 105); stroke-opacity: 0.4;"></path><path class="link" d="M10,306.6571661237785C387.5,306.6571661237785 387.5,334.62947882736165 765,334.62947882736165" style="stroke-width: 1; fill: none; stroke: rgb(105, 191, 123); stroke-opacity: 0.4;"></path><path class="link" d="M10,387.34256243213895C387.5,387.34256243213895 387.5,212.22366992399574 765,212.22366992399574" style="stroke-width: 1; fill: none; stroke: rgb(105, 191, 150); stroke-opacity: 0.4;"></path><path class="link" d="M10,268.7033116178067C387.5,268.7033116178067 387.5,288.79614549402834 765,288.79614549402834" style="stroke-width: 1; fill: none; stroke: rgb(168, 191, 105); stroke-opacity: 0.4;"></path><path class="link" d="M10,226.028773072747C387.5,226.028773072747 387.5,311.4771986970685 765,311.4771986970685" style="stroke-width: 1; fill: none; stroke: rgb(114, 191, 105); stroke-opacity: 0.4;"></path><path class="link" d="M10,398.3186753528773C387.5,398.3186753528773 387.5,107.82681867535297 765,107.82681867535297" style="stroke-width: 1; fill: none; stroke: rgb(191, 186, 105); stroke-opacity: 0.4;"></path><path class="link" d="M10,274.92182410423453C387.5,274.92182410423453 387.5,371.9891422366993 765,371.9891422366993" style="stroke-width: 1; fill: none; stroke: rgb(168, 191, 105); stroke-opacity: 0.4;"></path><path class="link" d="M10,84.92345276872962C387.5,84.92345276872962 387.5,225.03420195439747 765,225.03420195439747" style="stroke-width: 1; fill: none; stroke: rgb(191, 132, 105); stroke-opacity: 0.4;"></path><path class="link" d="M10,329.6243213897937C387.5,329.6243213897937 387.5,249.8745928338763 765,249.8745928338763" style="stroke-width: 1; fill: none; stroke: rgb(191, 159, 105); stroke-opacity: 0.4;"></path><path class="link" d="M10,234.66232356134634C387.5,234.66232356134634 387.5,384.81650380021716 765,384.81650380021716" style="stroke-width: 1; fill: none; stroke: rgb(114, 191, 105); stroke-opacity: 0.4;"></path><path class="link" d="M10,411.4826275787188C387.5,411.4826275787188 387.5,292.8773072747015 765,292.8773072747015" style="stroke-width: 1; fill: none; stroke: rgb(114, 105, 191); stroke-opacity: 0.4;"></path><path class="link" d="M10,356.3612920738328C387.5,356.3612920738328 387.5,336.0936482084691 765,336.0936482084691" style="stroke-width: 1; fill: none; stroke: rgb(141, 191, 105); stroke-opacity: 0.4;"></path><path class="link" d="M10,422.28203040173725C387.5,422.28203040173725 387.5,108.62622149837144 765,108.62622149837144" style="stroke-width: 1; fill: none; stroke: rgb(105, 150, 191); stroke-opacity: 0.4;"></path><path class="link" d="M10,357.042888165038C387.5,357.042888165038 387.5,356.95711183496206 765,356.95711183496206" style="stroke-width: 1; fill: none; stroke: rgb(141, 191, 105); stroke-opacity: 0.4;"></path><path class="link" d="M10,332.1403365906623C387.5,332.1403365906623 387.5,335.42046688382203 765,335.42046688382203" style="stroke-width: 1; fill: none; stroke: rgb(191, 159, 105); stroke-opacity: 0.4;"></path><path class="link" d="M10,333.814875135722C387.5,333.814875135722 387.5,373.08306188925087 765,373.08306188925087" style="stroke-width: 1; fill: none; stroke: rgb(191, 159, 105); stroke-opacity: 0.4;"></path><path class="link" d="M10,355.7133550488599C387.5,355.7133550488599 387.5,315.1965255157438 765,315.1965255157438" style="stroke-width: 1; fill: none; stroke: rgb(141, 191, 105); stroke-opacity: 0.4;"></path><path class="link" d="M10,355.1832247557003C387.5,355.1832247557003 387.5,290.3949511400652 765,290.3949511400652" style="stroke-width: 1; fill: none; stroke: rgb(141, 191, 105); stroke-opacity: 0.4;"></path><path class="link" d="M10,235.4617263843648C387.5,235.4617263843648 387.5,408.25814332247563 765,408.25814332247563" style="stroke-width: 1; fill: none; stroke: rgb(114, 191, 105); stroke-opacity: 0.4;"></path><path class="link" d="M10,410.73371335504885C387.5,410.73371335504885 387.5,213.9991856677525 765,213.9991856677525" style="stroke-width: 1; fill: none; stroke: rgb(114, 105, 191); stroke-opacity: 0.4;"></path><path class="link" d="M10,433.24131378935937C387.5,433.24131378935937 387.5,109.24891422367003 765,109.24891422367003" style="stroke-width: 1; fill: none; stroke: rgb(105, 191, 177); stroke-opacity: 0.4;"></path><path class="link" d="M10,175.67155266015197C387.5,175.67155266015197 387.5,384.17698154180243 765,384.17698154180243" style="stroke-width: 1; fill: none; stroke: rgb(191, 105, 105); stroke-opacity: 0.4;"></path><path class="link" d="M10,330.2638436482084C387.5,330.2638436482084 387.5,289.9153094462541 765,289.9153094462541" style="stroke-width: 1; fill: none; stroke: rgb(191, 159, 105); stroke-opacity: 0.4;"></path><path class="link" d="M10,305.63897937024973C387.5,305.63897937024973 387.5,289.4777415852335 765,289.4777415852335" style="stroke-width: 1; fill: none; stroke: rgb(105, 191, 123); stroke-opacity: 0.4;"></path><path class="link" d="M10,357.5561889250814C387.5,357.5561889250814 387.5,373.56270358306193 765,373.56270358306193" style="stroke-width: 1; fill: none; stroke: rgb(141, 191, 105); stroke-opacity: 0.4;"></path><path class="link" d="M10,308.53365906623236C387.5,308.53365906623236 387.5,372.6118349619979 765,372.6118349619979" style="stroke-width: 1; fill: none; stroke: rgb(105, 191, 123); stroke-opacity: 0.4;"></path><path class="link" d="M10,368.53230184581975C387.5,368.53230184581975 387.5,105.4959283387623 765,105.4959283387623" style="stroke-width: 1; fill: none; stroke: rgb(105, 123, 191); stroke-opacity: 0.4;"></path><path class="link" d="M10,443.9986427795874C387.5,443.9986427795874 387.5,293.5589033659067 765,293.5589033659067" style="stroke-width: 1; fill: none; stroke: rgb(168, 105, 191); stroke-opacity: 0.4;"></path><path class="link" d="M10,357.93485342019545C387.5,357.93485342019545 387.5,386.7350705754615 765,386.7350705754615" style="stroke-width: 1; fill: none; stroke: rgb(141, 191, 105); stroke-opacity: 0.4;"></path><path class="link" d="M10,399.9511400651466C387.5,399.9511400651466 387.5,255.19272529858858 765,255.19272529858858" style="stroke-width: 1; fill: none; stroke: rgb(191, 186, 105); stroke-opacity: 0.4;"></path><path class="link" d="M10,306.00922909880563C387.5,306.00922909880563 387.5,313.41259500542895 765,313.41259500542895" style="stroke-width: 1; fill: none; stroke: rgb(105, 191, 123); stroke-opacity: 0.4;"></path><path class="link" d="M10,464.7054831704669C387.5,464.7054831704669 387.5,109.78745928338773 765,109.78745928338773" style="stroke-width: 1; fill: none; stroke: rgb(191, 105, 186); stroke-opacity: 0.4;"></path><path class="link" d="M10,308.8618349619978C387.5,308.8618349619978 387.5,386.406894679696 765,386.406894679696" style="stroke-width: 1; fill: none; stroke: rgb(105, 191, 123); stroke-opacity: 0.4;"></path><path class="link" d="M10,422.75325732899023C387.5,422.75325732899023 387.5,214.36943539630843 765,214.36943539630843" style="stroke-width: 1; fill: none; stroke: rgb(105, 150, 191); stroke-opacity: 0.4;"></path><path class="link" d="M10,276.50380021715523C387.5,276.50380021715523 387.5,397.3577633007601 765,397.3577633007601" style="stroke-width: 1; fill: none; stroke: rgb(168, 191, 105); stroke-opacity: 0.4;"></path><path class="link" d="M10,334.2187839305103C387.5,334.2187839305103 387.5,397.5765472312704 765,397.5765472312704" style="stroke-width: 1; fill: none; stroke: rgb(191, 159, 105); stroke-opacity: 0.4;"></path><path class="link" d="M10,235.93295331161778C387.5,235.93295331161778 387.5,439.58767643865366 765,439.58767643865366" style="stroke-width: 1; fill: none; stroke: rgb(114, 191, 105); stroke-opacity: 0.4;"></path><path class="link" d="M10,104.84961997828445C387.5,104.84961997828445 387.5,346.75841476655813 765,346.75841476655813" style="stroke-width: 1; fill: none; stroke: rgb(191, 132, 105); stroke-opacity: 0.4;"></path><path class="link" d="M10,276.6889250814332C387.5,276.6889250814332 387.5,419.0070575461455 765,419.0070575461455" style="stroke-width: 1; fill: none; stroke: rgb(168, 191, 105); stroke-opacity: 0.4;"></path><path class="link" d="M10,106.40635179153094C387.5,106.40635179153094 387.5,407.9047231270359 765,407.9047231270359" style="stroke-width: 1; fill: none; stroke: rgb(191, 132, 105); stroke-opacity: 0.4;"></path><path class="link" d="M10,309.08061889250814C387.5,309.08061889250814 387.5,408.5947339847992 765,408.5947339847992" style="stroke-width: 1; fill: none; stroke: rgb(105, 191, 123); stroke-opacity: 0.4;"></path><path class="link" d="M10,358.17888165038C387.5,358.17888165038 387.5,397.7532573289903 765,397.7532573289903" style="stroke-width: 1; fill: none; stroke: rgb(141, 191, 105); stroke-opacity: 0.4;"></path><path class="link" d="M10,106.25488599348533C387.5,106.25488599348533 387.5,396.99592833876227 765,396.99592833876227" style="stroke-width: 1; fill: none; stroke: rgb(191, 132, 105); stroke-opacity: 0.4;"></path><path class="link" d="M10,235.13355048859933C387.5,235.13355048859933 387.5,397.18946796959835 765,397.18946796959835" style="stroke-width: 1; fill: none; stroke: rgb(114, 191, 105); stroke-opacity: 0.4;"></path><path class="link" d="M10,454.2595005428882C387.5,454.2595005428882 387.5,109.5770901194355 765,109.5770901194355" style="stroke-width: 1; fill: none; stroke: rgb(105, 177, 191); stroke-opacity: 0.4;"></path><path class="link" d="M10,454.49511400651465C387.5,454.49511400651465 387.5,357.56297502714443 765,357.56297502714443" style="stroke-width: 1; fill: none; stroke: rgb(105, 177, 191); stroke-opacity: 0.4;"></path><path class="link" d="M10,176.02497285559173C387.5,176.02497285559173 387.5,418.771444082519 765,418.771444082519" style="stroke-width: 1; fill: none; stroke: rgb(191, 105, 105); stroke-opacity: 0.4;"></path><path class="link" d="M10,400.3045602605863C387.5,400.3045602605863 387.5,357.3610206297503 765,357.3610206297503" style="stroke-width: 1; fill: none; stroke: rgb(191, 186, 105); stroke-opacity: 0.4;"></path><path class="link" d="M10,235.77307274701408C387.5,235.77307274701408 387.5,418.8724212812161 765,418.8724212812161" style="stroke-width: 1; fill: none; stroke: rgb(114, 191, 105); stroke-opacity: 0.4;"></path><path class="link" d="M10,411.03664495114003C387.5,411.03664495114003 387.5,255.4030944625408 765,255.4030944625408" style="stroke-width: 1; fill: none; stroke: rgb(114, 105, 191); stroke-opacity: 0.4;"></path><path class="link" d="M10,276.8151465798045C387.5,276.8151465798045 387.5,429.31840390879483 765,429.31840390879483" style="stroke-width: 1; fill: none; stroke: rgb(168, 191, 105); stroke-opacity: 0.4;"></path><path class="link" d="M10,236.0675895765472C387.5,236.0675895765472 387.5,449.7728013029316 765,449.7728013029316" style="stroke-width: 1; fill: none; stroke: rgb(114, 191, 105); stroke-opacity: 0.4;"></path><path class="link" d="M10,400.4307817589576C387.5,400.4307817589576 387.5,429.43621064060807 765,429.43621064060807" style="stroke-width: 1; fill: none; stroke: rgb(191, 186, 105); stroke-opacity: 0.4;"></path><path class="link" d="M10,375.12106406080346C387.5,375.12106406080346 387.5,373.80673181324653 765,373.80673181324653" style="stroke-width: 1; fill: none; stroke: rgb(105, 123, 191); stroke-opacity: 0.4;"></path><path class="link" d="M10,236.14332247557002C387.5,236.14332247557002 387.5,459.899022801303 765,459.899022801303" style="stroke-width: 1; fill: none; stroke: rgb(114, 191, 105); stroke-opacity: 0.4;"></path><path class="link" d="M10,433.63680781758956C387.5,433.63680781758956 387.5,293.3317046688383 765,293.3317046688383" style="stroke-width: 1; fill: none; stroke: rgb(105, 191, 177); stroke-opacity: 0.4;"></path><path class="link" d="M10,400.2204125950054C387.5,400.2204125950054 387.5,336.57328990228024 765,336.57328990228024" style="stroke-width: 1; fill: none; stroke: rgb(191, 186, 105); stroke-opacity: 0.4;"></path><path class="link" d="M10,433.7041259500543C387.5,433.7041259500543 387.5,315.6004343105321 765,315.6004343105321" style="stroke-width: 1; fill: none; stroke: rgb(105, 191, 177); stroke-opacity: 0.4;"></path><path class="link" d="M10,106.53257328990229C387.5,106.53257328990229 387.5,429.1753528773073 765,429.1753528773073" style="stroke-width: 1; fill: none; stroke: rgb(191, 132, 105); stroke-opacity: 0.4;"></path><path class="link" d="M10,375.02008686210644C387.5,375.02008686210644 387.5,336.5059717698155 765,336.5059717698155" style="stroke-width: 1; fill: none; stroke: rgb(105, 123, 191); stroke-opacity: 0.4;"></path><path class="link" d="M10,175.93241042345272C387.5,175.93241042345272 387.5,397.09690553745935 765,397.09690553745935" style="stroke-width: 1; fill: none; stroke: rgb(191, 105, 105); stroke-opacity: 0.4;"></path><path class="link" d="M10,433.57790445168297C387.5,433.57790445168297 387.5,255.4704125950055 765,255.4704125950055" style="stroke-width: 1; fill: none; stroke: rgb(105, 191, 177); stroke-opacity: 0.4;"></path><path class="link" d="M10,374.9611834961998C387.5,374.9611834961998 387.5,315.491042345277 765,315.491042345277" style="stroke-width: 1; fill: none; stroke: rgb(105, 123, 191); stroke-opacity: 0.4;"></path><path class="link" d="M10,422.9383821932682C387.5,422.9383821932682 387.5,357.4704125950055 765,357.4704125950055" style="stroke-width: 1; fill: none; stroke: rgb(105, 150, 191); stroke-opacity: 0.4;"></path><path class="link" d="M10,176.1007057546145C387.5,176.1007057546145 387.5,429.23425624321396 765,429.23425624321396" style="stroke-width: 1; fill: none; stroke: rgb(191, 105, 105); stroke-opacity: 0.4;"></path><path class="link" d="M10,433.5274158523344C387.5,433.5274158523344 387.5,214.50407166123784 765,214.50407166123784" style="stroke-width: 1; fill: none; stroke: rgb(105, 191, 177); stroke-opacity: 0.4;"></path><path class="link" d="M10,400.1362649294245C387.5,400.1362649294245 387.5,292.456568946797 765,292.456568946797" style="stroke-width: 1; fill: none; stroke: rgb(191, 186, 105); stroke-opacity: 0.4;"></path><path class="link" d="M10,464.86536373507056C387.5,464.86536373507056 387.5,214.5629750271445 765,214.5629750271445" style="stroke-width: 1; fill: none; stroke: rgb(191, 105, 186); stroke-opacity: 0.4;"></path><path class="link" d="M10,400.16992399565686C387.5,400.16992399565686 387.5,315.53311617806736 765,315.53311617806736" style="stroke-width: 1; fill: none; stroke: rgb(191, 186, 105); stroke-opacity: 0.4;"></path><path class="link" d="M10,474.8990228013029C387.5,474.8990228013029 387.5,109.94733984799143 765,109.94733984799143" style="stroke-width: 1; fill: none; stroke: rgb(141, 105, 191); stroke-opacity: 0.4;"></path><path class="link" d="M10,387.8474484256243C387.5,387.8474484256243 387.5,255.00760043431063 765,255.00760043431063" style="stroke-width: 1; fill: none; stroke: rgb(105, 191, 150); stroke-opacity: 0.4;"></path><path class="link" d="M10,334.100977198697C387.5,334.100977198697 387.5,386.5499457111835 765,386.5499457111835" style="stroke-width: 1; fill: none; stroke: rgb(191, 159, 105); stroke-opacity: 0.4;"></path><path class="link" d="M10,484.94951140065143C387.5,484.94951140065143 387.5,214.59663409337685 765,214.59663409337685" style="stroke-width: 1; fill: none; stroke: rgb(191, 105, 132); stroke-opacity: 0.4;"></path><path class="link" d="M10,454.42779587404993C387.5,454.42779587404993 387.5,336.65743756786105 765,336.65743756786105" style="stroke-width: 1; fill: none; stroke: rgb(105, 177, 191); stroke-opacity: 0.4;"></path><path class="link" d="M10,276.87404994571114C387.5,276.87404994571114 387.5,439.6970684039088 765,439.6970684039088" style="stroke-width: 1; fill: none; stroke: rgb(168, 191, 105); stroke-opacity: 0.4;"></path><path class="link" d="M10,433.78827361563515C387.5,433.78827361563515 387.5,373.8908794788274 765,373.8908794788274" style="stroke-width: 1; fill: none; stroke: rgb(105, 191, 177); stroke-opacity: 0.4;"></path><path class="link" d="M10,454.3773072747014C387.5,454.3773072747014 387.5,293.7692725298589 765,293.7692725298589" style="stroke-width: 1; fill: none; stroke: rgb(105, 177, 191); stroke-opacity: 0.4;"></path><path class="link" d="M10,411.9033659066232C387.5,411.9033659066232 387.5,357.428338762215 765,357.428338762215" style="stroke-width: 1; fill: none; stroke: rgb(114, 105, 191); stroke-opacity: 0.4;"></path><path class="link" d="M10,334.37024972855585C387.5,334.37024972855585 387.5,429.3773072747014 765,429.3773072747014" style="stroke-width: 1; fill: none; stroke: rgb(191, 159, 105); stroke-opacity: 0.4;"></path><path class="link" d="M10,375.0705754614549C387.5,375.0705754614549 387.5,357.2768729641694 765,357.2768729641694" style="stroke-width: 1; fill: none; stroke: rgb(105, 123, 191); stroke-opacity: 0.4;"></path><path class="link" d="M10,358.28827361563515C387.5,358.28827361563515 387.5,419.12486427795875 765,419.12486427795875" style="stroke-width: 1; fill: none; stroke: rgb(141, 191, 105); stroke-opacity: 0.4;"></path><path class="link" d="M10,358.3303474484256C387.5,358.3303474484256 387.5,449.8569489685125 765,449.8569489685125" style="stroke-width: 1; fill: none; stroke: rgb(141, 191, 105); stroke-opacity: 0.4;"></path><path class="link" d="M10,454.35206297502714C387.5,454.35206297502714 387.5,255.50407166123787 765,255.50407166123787" style="stroke-width: 1; fill: none; stroke: rgb(105, 177, 191); stroke-opacity: 0.4;"></path><path class="link" d="M10,433.7461997828447C387.5,433.7461997828447 387.5,336.6321932681868 765,336.6321932681868" style="stroke-width: 1; fill: none; stroke: rgb(105, 191, 177); stroke-opacity: 0.4;"></path><path class="link" d="M10,454.335233441911C387.5,454.335233441911 387.5,214.5377307274702 765,214.5377307274702" style="stroke-width: 1; fill: none; stroke: rgb(105, 177, 191); stroke-opacity: 0.4;"></path><path class="link" d="M10,454.4025515743757C387.5,454.4025515743757 387.5,315.6425081433225 765,315.6425081433225" style="stroke-width: 1; fill: none; stroke: rgb(105, 177, 191); stroke-opacity: 0.4;"></path><path class="link" d="M10,454.5540173724213C387.5,454.5540173724213 387.5,373.9161237785017 765,373.9161237785017" style="stroke-width: 1; fill: none; stroke: rgb(105, 177, 191); stroke-opacity: 0.4;"></path><path class="link" d="M10,387.8726927252986C387.5,387.8726927252986 387.5,357.3021172638437 765,357.3021172638437" style="stroke-width: 1; fill: none; stroke: rgb(105, 191, 150); stroke-opacity: 0.4;"></path><path class="link" d="M10,309.164766558089C387.5,309.164766558089 387.5,449.84011943539633 765,449.84011943539633" style="stroke-width: 1; fill: none; stroke: rgb(105, 191, 123); stroke-opacity: 0.4;"></path><path class="link" d="M10,308.9964712269272C387.5,308.9964712269272 387.5,397.46715526601525 765,397.46715526601525" style="stroke-width: 1; fill: none; stroke: rgb(105, 191, 123); stroke-opacity: 0.4;"></path><path class="link" d="M10,422.8878935939196C387.5,422.8878935939196 387.5,315.55836047774164 765,315.55836047774164" style="stroke-width: 1; fill: none; stroke: rgb(105, 150, 191); stroke-opacity: 0.4;"></path><path class="link" d="M10,422.9047231270358C387.5,422.9047231270358 387.5,336.6153637350707 765,336.6153637350707" style="stroke-width: 1; fill: none; stroke: rgb(105, 150, 191); stroke-opacity: 0.4;"></path><path class="link" d="M10,422.97204125950054C387.5,422.97204125950054 387.5,373.8656351791531 765,373.8656351791531" style="stroke-width: 1; fill: none; stroke: rgb(105, 150, 191); stroke-opacity: 0.4;"></path><path class="link" d="M10,422.87106406080346C387.5,422.87106406080346 387.5,293.2896308360478 765,293.2896308360478" style="stroke-width: 1; fill: none; stroke: rgb(105, 150, 191); stroke-opacity: 0.4;"></path><path class="link" d="M10,235.8319761129207C387.5,235.8319761129207 387.5,429.26791530944627 765,429.26791530944627" style="stroke-width: 1; fill: none; stroke: rgb(114, 191, 105); stroke-opacity: 0.4;"></path><path class="link" d="M10,236.2022258414766C387.5,236.2022258414766 387.5,489.9747557003257 765,489.9747557003257" style="stroke-width: 1; fill: none; stroke: rgb(114, 191, 105); stroke-opacity: 0.4;"></path><path class="link" d="M10,236.18539630836045C387.5,236.18539630836045 387.5,479.95792616720956 765,479.95792616720956" style="stroke-width: 1; fill: none; stroke: rgb(114, 191, 105); stroke-opacity: 0.4;"></path><path class="link" d="M10,433.76302931596086C387.5,433.76302931596086 387.5,357.50407166123784 765,357.50407166123784" style="stroke-width: 1; fill: none; stroke: rgb(105, 191, 177); stroke-opacity: 0.4;"></path><path class="link" d="M10,175.96606948968508C387.5,175.96606948968508 387.5,407.98887079261675 765,407.98887079261675" style="stroke-width: 1; fill: none; stroke: rgb(191, 105, 105); stroke-opacity: 0.4;"></path><path class="link" d="M10,358.31351791530943C387.5,358.31351791530943 387.5,439.7223127035831 765,439.7223127035831" style="stroke-width: 1; fill: none; stroke: rgb(141, 191, 105); stroke-opacity: 0.4;"></path><path class="link" d="M10,276.8992942453854C387.5,276.8992942453854 387.5,449.8232899022801 765,449.8232899022801" style="stroke-width: 1; fill: none; stroke: rgb(168, 191, 105); stroke-opacity: 0.4;"></path><path class="link" d="M10,276.91612377850157C387.5,276.91612377850157 387.5,469.9410966340934 765,469.9410966340934" style="stroke-width: 1; fill: none; stroke: rgb(168, 191, 105); stroke-opacity: 0.4;"></path><path class="link" d="M10,400.3802931596091C387.5,400.3802931596091 387.5,386.91178067318134 765,386.91178067318134" style="stroke-width: 1; fill: none; stroke: rgb(191, 186, 105); stroke-opacity: 0.4;"></path><path class="link" d="M10,400.3634636264929C387.5,400.3634636264929 387.5,373.84880564603696 765,373.84880564603696" style="stroke-width: 1; fill: none; stroke: rgb(191, 186, 105); stroke-opacity: 0.4;"></path><path class="link" d="M10,334.3281758957654C387.5,334.3281758957654 387.5,408.67888165038005 765,408.67888165038005" style="stroke-width: 1; fill: none; stroke: rgb(191, 159, 105); stroke-opacity: 0.4;"></path><path class="link" d="M10,334.39549402823013C387.5,334.39549402823013 387.5,499.99158523344187 765,499.99158523344187" style="stroke-width: 1; fill: none; stroke: rgb(191, 159, 105); stroke-opacity: 0.4;"></path><path class="link" d="M10,334.3450054288816C387.5,334.3450054288816 387.5,419.0996199782845 765,419.0996199782845" style="stroke-width: 1; fill: none; stroke: rgb(191, 159, 105); stroke-opacity: 0.4;"></path><path class="link" d="M10,474.9242671009772C387.5,474.9242671009772 387.5,293.79451682953317 765,293.79451682953317" style="stroke-width: 1; fill: none; stroke: rgb(141, 105, 191); stroke-opacity: 0.4;"></path><path class="link" d="M10,106.17073832790444C387.5,106.17073832790444 387.5,383.93295331161784 765,383.93295331161784" style="stroke-width: 1; fill: none; stroke: rgb(191, 132, 105); stroke-opacity: 0.4;"></path><path class="link" d="M10,106.49049945711184C387.5,106.49049945711184 387.5,418.7125407166124 765,418.7125407166124" style="stroke-width: 1; fill: none; stroke: rgb(191, 132, 105); stroke-opacity: 0.4;"></path><path class="link" d="M10,106.57464712269272C387.5,106.57464712269272 387.5,439.4866992399566 765,439.4866992399566" style="stroke-width: 1; fill: none; stroke: rgb(191, 132, 105); stroke-opacity: 0.4;"></path><path class="link" d="M10,494.99158523344187C387.5,494.99158523344187 387.5,293.8113463626494 765,293.8113463626494" style="stroke-width: 1; fill: none; stroke: rgb(191, 105, 159); stroke-opacity: 0.4;"></path><path class="link" d="M10,494.9747557003257C387.5,494.9747557003257 387.5,255.52090119435405 765,255.52090119435405" style="stroke-width: 1; fill: none; stroke: rgb(191, 105, 159); stroke-opacity: 0.4;"></path><path class="link" d="M10,358.26302931596086C387.5,358.26302931596086 387.5,408.69571118349626 765,408.69571118349626" style="stroke-width: 1; fill: none; stroke: rgb(141, 191, 105); stroke-opacity: 0.4;"></path></g><g><g class="node" transform="translate(765,119.96416938110758)"><rect height="94.64929424538545" width="10" style="fill: rgb(102, 102, 102);"><title>A
5,624</title></rect><text x="-6" y="47.324647122692724" dy=".35em" text-anchor="end" style="font-size: 11px; font-family: Arial, Helvetica; pointer-events: none;">A</text></g><g class="node" transform="translate(765,224.61346362649303)"><rect height="30.91585233441911" width="10" style="fill: rgb(102, 102, 102);"><title>AD
1,837</title></rect><text x="-6" y="15.457926167209555" dy=".35em" text-anchor="end" style="font-size: 11px; font-family: Arial, Helvetica; pointer-events: none;">AD</text></g><g class="node" transform="translate(765,346.67426710097726)"><rect height="10.939196525515744" width="10" style="fill: rgb(102, 102, 102);"><title>ADE
650</title></rect><text x="-6" y="5.469598262757872" dy=".35em" text-anchor="end" style="font-size: 11px; font-family: Arial, Helvetica; pointer-events: none;">ADE</text></g><g class="node" transform="translate(765,407.8289902280131)"><rect height="0.8751357220412596" width="10" style="fill: rgb(102, 102, 102);"><title>ADET
52</title></rect><text x="-6" y="0.4375678610206298" dy=".35em" text-anchor="end" style="font-size: 11px; font-family: Arial, Helvetica; pointer-events: none;">ADET</text></g><g class="node" transform="translate(765,449.7307274701412)"><rect height="0.13463626492942454" width="10" style="fill: rgb(102, 102, 102);"><title>ADETE
8</title></rect><text x="-6" y="0.06731813246471227" dy=".35em" text-anchor="end" style="font-size: 11px; font-family: Arial, Helvetica; pointer-events: none;">ADETE</text></g><g class="node" transform="translate(765,383.92453854505976)"><rect height="2.995656894679696" width="10" style="fill: rgb(102, 102, 102);"><title>ADT
178</title></rect><text x="-6" y="1.497828447339848" dy=".35em" text-anchor="end" style="font-size: 11px; font-family: Arial, Helvetica; pointer-events: none;">ADT</text></g><g class="node" transform="translate(765,459.8653637350706)"><rect height="0.06731813246471227" width="10" style="fill: rgb(102, 102, 102);"><title>ADTE
4</title></rect><text x="-6" y="0.033659066232356136" dy=".35em" text-anchor="end" style="font-size: 11px; font-family: Arial, Helvetica; pointer-events: none;">ADTE</text></g><g class="node" transform="translate(765,8.526512829121202e-14)"><rect height="109.9641693811075" width="10" style="fill: rgb(102, 102, 102);"><title>AE
6,534</title></rect><text x="-6" y="54.98208469055375" dy=".35em" text-anchor="end" style="font-size: 11px; font-family: Arial, Helvetica; pointer-events: none;">AE</text></g><g class="node" transform="translate(765,325.65092290988065)"><rect height="11.023344191096635" width="10" style="fill: rgb(102, 102, 102);"><title>AED
655</title></rect><text x="-6" y="5.511672095548318" dy=".35em" text-anchor="end" style="font-size: 11px; font-family: Arial, Helvetica; pointer-events: none;">AED</text></g><g class="node" transform="translate(765,367.613463626493)"><rect height="6.311074918566775" width="10" style="fill: rgb(102, 102, 102);"><title>AEDE
375</title></rect><text x="-6" y="3.1555374592833876" dy=".35em" text-anchor="end" style="font-size: 11px; font-family: Arial, Helvetica; pointer-events: none;">AEDE</text></g><g class="node" transform="translate(765,439.4782844733985)"><rect height="0.252442996742671" width="10" style="fill: rgb(102, 102, 102);"><title>AEDET
15</title></rect><text x="-6" y="0.1262214983713355" dy=".35em" text-anchor="end" style="font-size: 11px; font-family: Arial, Helvetica; pointer-events: none;">AEDET</text></g><g class="node" transform="translate(765,479.9495114006515)"><rect height="0.016829533116178068" width="10" style="fill: rgb(102, 102, 102);"><title>AEDETE
1</title></rect><text x="-6" y="0.008414766558089034" dy=".35em" text-anchor="end" style="font-size: 11px; font-family: Arial, Helvetica; pointer-events: none;">AEDETE</text></g><g class="node" transform="translate(765,418.70412595005433)"><rect height="0.4375678610206298" width="10" style="fill: rgb(102, 102, 102);"><title>AEDT
26</title></rect><text x="-6" y="0.2187839305103149" dy=".35em" text-anchor="end" style="font-size: 11px; font-family: Arial, Helvetica; pointer-events: none;">AEDT</text></g><g class="node" transform="translate(765,469.93268186753534)"><rect height="0.016829533116178068" width="10" style="fill: rgb(102, 102, 102);"><title>AEDTE
1</title></rect><text x="-6" y="0.008414766558089034" dy=".35em" text-anchor="end" style="font-size: 11px; font-family: Arial, Helvetica; pointer-events: none;">AEDTE</text></g><g class="node" transform="translate(765,303.81976112920745)"><rect height="11.831161780673181" width="10" style="fill: rgb(102, 102, 102);"><title>AET
703</title></rect><text x="-6" y="5.9155808903365905" dy=".35em" text-anchor="end" style="font-size: 11px; font-family: Arial, Helvetica; pointer-events: none;">AET</text></g><g class="node" transform="translate(765,489.96634093376764)"><rect height="0.016829533116178068" width="10" style="fill: rgb(102, 102, 102);"><title>AETD
1</title></rect><text x="-6" y="0.008414766558089034" dy=".35em" text-anchor="end" style="font-size: 11px; font-family: Arial, Helvetica; pointer-events: none;">AETD</text></g><g class="node" transform="translate(765,396.9201954397395)"><rect height="0.9087947882736157" width="10" style="fill: rgb(102, 102, 102);"><title>AETE
54</title></rect><text x="-6" y="0.45439739413680785" dy=".35em" text-anchor="end" style="font-size: 11px; font-family: Arial, Helvetica; pointer-events: none;">AETE</text></g><g class="node" transform="translate(765,265.52931596091213)"><rect height="28.29044516829533" width="10" style="fill: rgb(102, 102, 102);"><title>AT
1,681</title></rect><text x="-6" y="14.145222584147666" dy=".35em" text-anchor="end" style="font-size: 11px; font-family: Arial, Helvetica; pointer-events: none;">AT</text></g><g class="node" transform="translate(765,499.9831704668838)"><rect height="0.016829533116178068" width="10" style="fill: rgb(102, 102, 102);"><title>ATD
1</title></rect><text x="-6" y="0.008414766558089034" dy=".35em" text-anchor="end" style="font-size: 11px; font-family: Arial, Helvetica; pointer-events: none;">ATD</text></g><g class="node" transform="translate(765,429.14169381107496)"><rect height="0.3365906623235614" width="10" style="fill: rgb(102, 102, 102);"><title>ATE
20</title></rect><text x="-6" y="0.1682953311617807" dy=".35em" text-anchor="end" style="font-size: 11px; font-family: Arial, Helvetica; pointer-events: none;">ATE</text></g><g class="node" transform="translate(0,464.5624321389794)"><rect height="0.3197611292073833" width="10"><title>Architecture
19</title></rect><text x="16" y="0.15988056460369166" dy=".35em" text-anchor="start" style="font-size: 11px; font-family: Arial, Helvetica; pointer-events: none;">Architecture</text></g><g class="node" transform="translate(0,454.19218241042347)"><rect height="0.3702497285559175" width="10"><title>Architecture intérieure
22</title></rect><text x="16" y="0.18512486427795874" dy=".35em" text-anchor="start" style="font-size: 11px; font-family: Arial, Helvetica; pointer-events: none;">Architecture intérieure</text></g><g class="node" transform="translate(0,494.96634093376764)"><rect height="0.033659066232356136" width="10"><title>Arts du spectacle
2</title></rect><text x="16" y="0.016829533116178068" dy=".35em" text-anchor="start" style="font-size: 11px; font-family: Arial, Helvetica; pointer-events: none;">Arts du spectacle</text></g><g class="node" transform="translate(0,474.88219326818677)"><rect height="0.050488599348534204" width="10"><title>Cinéma
3</title></rect><text x="16" y="0.025244299674267102" dy=".35em" text-anchor="start" style="font-size: 11px; font-family: Arial, Helvetica; pointer-events: none;">Cinéma</text></g><g class="node" transform="translate(0,410.4728555917481)"><rect height="1.4473398479913138" width="10"><title>Design graphique
86</title></rect><text x="16" y="0.7236699239956569" dy=".35em" text-anchor="start" style="font-size: 11px; font-family: Arial, Helvetica; pointer-events: none;">Design graphique</text></g><g class="node" transform="translate(0,116.58306188925079)"><rect height="59.542888165038" width="10"><title>Dessin
3,538</title></rect><text x="16" y="29.771444082519" dy=".35em" text-anchor="start" style="font-size: 11px; font-family: Arial, Helvetica; pointer-events: none;">Dessin</text></g><g class="node" transform="translate(0,443.80510314875136)"><rect height="0.38707926167209555" width="10"><title>Dessin design
23</title></rect><text x="16" y="0.19353963083604778" dy=".35em" text-anchor="start" style="font-size: 11px; font-family: Arial, Helvetica; pointer-events: none;">Dessin design</text></g><g class="node" transform="translate(0,484.9326818675353)"><rect height="0.033659066232356136" width="10"><title>Domaine mixte- voir détail sur les éléments
2</title></rect><text x="16" y="0.016829533116178068" dy=".35em" text-anchor="start" style="font-size: 11px; font-family: Arial, Helvetica; pointer-events: none;">Domaine mixte- voir détail sur les éléments</text></g><g class="node" transform="translate(0,286.9245385450597)"><rect height="22.248642779587406" width="10"><title>Estampe
1,322</title></rect><text x="16" y="11.124321389793703" dy=".35em" text-anchor="start" style="font-size: 11px; font-family: Arial, Helvetica; pointer-events: none;">Estampe</text></g><g class="node" transform="translate(0,421.9201954397394)"><rect height="1.0602605863192183" width="10"><title>Nouveaux médias
63</title></rect><text x="16" y="0.5301302931596091" dy=".35em" text-anchor="start" style="font-size: 11px; font-family: Arial, Helvetica; pointer-events: none;">Nouveaux médias</text></g><g class="node" transform="translate(0,397.88110749185665)"><rect height="2.5917480998914226" width="10"><title>Objet
154</title></rect><text x="16" y="1.2958740499457113" dy=".35em" text-anchor="start" style="font-size: 11px; font-family: Arial, Helvetica; pointer-events: none;">Objet</text></g><g class="node" transform="translate(0,186.12595005428878)"><rect height="50.08469055374593" width="10"><title>Objet/Design
2,976</title></rect><text x="16" y="25.042345276872965" dy=".35em" text-anchor="start" style="font-size: 11px; font-family: Arial, Helvetica; pointer-events: none;">Objet/Design</text></g><g class="node" transform="translate(0,319.1731813246471)"><rect height="15.23072747014115" width="10"><title>Oeuvre en 3 dimensions
905</title></rect><text x="16" y="7.615363735070575" dy=".35em" text-anchor="start" style="font-size: 11px; font-family: Arial, Helvetica; pointer-events: none;">Oeuvre en 3 dimensions</text></g><g class="node" transform="translate(0,432.9804560260586)"><rect height="0.8246471226927253" width="10"><title>Oeuvre textile
49</title></rect><text x="16" y="0.41232356134636267" dy=".35em" text-anchor="start" style="font-size: 11px; font-family: Arial, Helvetica; pointer-events: none;">Oeuvre textile</text></g><g class="node" transform="translate(0,246.2106406080347)"><rect height="30.713897937024974" width="10"><title>Peinture
1,825</title></rect><text x="16" y="15.356948968512487" dy=".35em" text-anchor="start" style="font-size: 11px; font-family: Arial, Helvetica; pointer-events: none;">Peinture</text></g><g class="node" transform="translate(0,4.999999999999972)"><rect height="101.58306188925081" width="10"><title>Photographie
6,036</title></rect><text x="16" y="50.79153094462541" dy=".35em" text-anchor="start" style="font-size: 11px; font-family: Arial, Helvetica; pointer-events: none;">Photographie</text></g><g class="node" transform="translate(0,385.1547231270358)"><rect height="2.726384364820847" width="10"><title>Publication- livre- reliure
162</title></rect><text x="16" y="1.3631921824104234" dy=".35em" text-anchor="start" style="font-size: 11px; font-family: Arial, Helvetica; pointer-events: none;">Publication- livre- reliure</text></g><g class="node" transform="translate(0,368.3387622149837)"><rect height="6.815960912052118" width="10"><title>Reproduction photomécanique
405</title></rect><text x="16" y="3.407980456026059" dy=".35em" text-anchor="start" style="font-size: 11px; font-family: Arial, Helvetica; pointer-events: none;">Reproduction photomécanique</text></g><g class="node" transform="translate(0,344.40390879478826)"><rect height="13.93485342019544" width="10"><title>Sculpture
828</title></rect><text x="16" y="6.96742671009772" dy=".35em" text-anchor="start" style="font-size: 11px; font-family: Arial, Helvetica; pointer-events: none;">Sculpture</text></g></g></g></svg>