<svg width="775" height="520" xmlns="http://www.w3.org/2000/svg" version="1.1"><g transform="translate(0,10)"><g><path class="link" d="M10,29.814687714481867C387.5,29.814687714481867 387.5,49.81468771448178 765,49.81468771448178" style="stroke-width: 59.6294; fill: none; stroke: rgb(130, 191, 105); stroke-opacity: 0.4;"></path><path class="link" d="M10,82.95813315030891C387.5,82.95813315030891 387.5,200.2402196293754 765,200.2402196293754" style="stroke-width: 46.6575; fill: none; stroke: rgb(130, 191, 105); stroke-opacity: 0.4;"></path><path class="link" d="M10,194.66712422786551C387.5,194.66712422786551 387.5,110.96774193548384 765,110.96774193548384" style="stroke-width: 22.0316; fill: none; stroke: rgb(191, 179, 105); stroke-opacity: 0.4;"></path><path class="link" d="M10,157.58064516129036C387.5,157.58064516129036 387.5,233.91557995881945 765,233.91557995881945" style="stroke-width: 20.6932; fill: none; stroke: rgb(191, 105, 105); stroke-opacity: 0.4;"></path><path class="link" d="M10,137.0727522306109C387.5,137.0727522306109 387.5,89.79066575154422 765,89.79066575154422" style="stroke-width: 20.3226; fill: none; stroke: rgb(191, 105, 105); stroke-opacity: 0.4;"></path><path class="link" d="M10,270.02402196293764C387.5,270.02402196293764 387.5,133.79203843514065 765,133.79203843514065" style="stroke-width: 12.6218; fill: none; stroke: rgb(105, 191, 105); stroke-opacity: 0.4;"></path><path class="link" d="M10,214.16609471516819C387.5,214.16609471516819 387.5,287.9684282772821 765,287.9684282772821" style="stroke-width: 8.60673; fill: none; stroke: rgb(191, 179, 105); stroke-opacity: 0.4;"></path><path class="link" d="M10,237.84831846259442C387.5,237.84831846259442 387.5,124.73232669869591 765,124.73232669869591" style="stroke-width: 5.4976; fill: none; stroke: rgb(179, 191, 105); stroke-opacity: 0.4;"></path><path class="link" d="M10,298.7920384351408C387.5,298.7920384351408 387.5,254.2278654770075 765,254.2278654770075" style="stroke-width: 5.43583; fill: none; stroke: rgb(191, 130, 105); stroke-opacity: 0.4;"></path><path class="link" d="M10,378.4694577899795C387.5,378.4694577899795 387.5,160.63143445435824 765,160.63143445435824" style="stroke-width: 5.35347; fill: none; stroke: rgb(105, 105, 191); stroke-opacity: 0.4;"></path><path class="link" d="M10,359.2964996568292C387.5,359.2964996568292 387.5,155.49416609471513 765,155.49416609471513" style="stroke-width: 4.92107; fill: none; stroke: rgb(191, 154, 105); stroke-opacity: 0.4;"></path><path class="link" d="M10,293.623884694578C387.5,293.623884694578 387.5,142.55319148936164 765,142.55319148936164" style="stroke-width: 4.90048; fill: none; stroke: rgb(191, 130, 105); stroke-opacity: 0.4;"></path><path class="link" d="M10,207.77282086479073C387.5,207.77282086479073 387.5,246.35209334248452 765,246.35209334248452" style="stroke-width: 4.17982; fill: none; stroke: rgb(191, 179, 105); stroke-opacity: 0.4;"></path><path class="link" d="M10,339.85586822237485C387.5,339.85586822237485 387.5,150.99519560741246 765,150.99519560741246" style="stroke-width: 4.07687; fill: none; stroke: rgb(105, 191, 130); stroke-opacity: 0.4;"></path><path class="link" d="M10,248.71997254632814C387.5,248.71997254632814 387.5,320.07206588881263 765,320.07206588881263" style="stroke-width: 4.05628; fill: none; stroke: rgb(179, 191, 105); stroke-opacity: 0.4;"></path><path class="link" d="M10,320.59025394646545C387.5,320.59025394646545 387.5,146.98009608785173 765,146.98009608785173" style="stroke-width: 3.95333; fill: none; stroke: rgb(105, 130, 191); stroke-opacity: 0.4;"></path><path class="link" d="M10,111.07412491420733C387.5,111.07412491420733 387.5,312.04186684969113 765,312.04186684969113" style="stroke-width: 3.93274; fill: none; stroke: rgb(130, 191, 105); stroke-opacity: 0.4;"></path><path class="link" d="M10,244.7357584076871C387.5,244.7357584076871 387.5,294.2278654770075 765,294.2278654770075" style="stroke-width: 3.91215; fill: none; stroke: rgb(179, 191, 105); stroke-opacity: 0.4;"></path><path class="link" d="M10,324.5126973232671C387.5,324.5126973232671 387.5,258.8915579958819 765,258.8915579958819" style="stroke-width: 3.89156; fill: none; stroke: rgb(105, 130, 191); stroke-opacity: 0.4;"></path><path class="link" d="M10,343.66506520247094C387.5,343.66506520247094 387.5,262.6080988332189 765,262.6080988332189" style="stroke-width: 3.54152; fill: none; stroke: rgb(105, 191, 130); stroke-opacity: 0.4;"></path><path class="link" d="M10,107.69732326698701C387.5,107.69732326698701 387.5,280.6691832532601 765,280.6691832532601" style="stroke-width: 2.82086; fill: none; stroke: rgb(130, 191, 105); stroke-opacity: 0.4;"></path><path class="link" d="M10,219.6122168840083C387.5,219.6122168840083 387.5,316.90116678105693 765,316.90116678105693" style="stroke-width: 2.28552; fill: none; stroke: rgb(191, 179, 105); stroke-opacity: 0.4;"></path><path class="link" d="M10,241.6884008236102C387.5,241.6884008236102 387.5,249.53328757721343 765,249.53328757721343" style="stroke-width: 2.18257; fill: none; stroke: rgb(179, 191, 105); stroke-opacity: 0.4;"></path><path class="link" d="M10,221.75360329444067C387.5,221.75360329444067 387.5,341.37611530542205 765,341.37611530542205" style="stroke-width: 1.99725; fill: none; stroke: rgb(191, 179, 105); stroke-opacity: 0.4;"></path><path class="link" d="M10,303.45573095401517C387.5,303.45573095401517 387.5,324.97254632807136 765,324.97254632807136" style="stroke-width: 1.95607; fill: none; stroke: rgb(191, 130, 105); stroke-opacity: 0.4;"></path><path class="link" d="M10,279.5676046671243C387.5,279.5676046671243 387.5,323.04735758407685 765,323.04735758407685" style="stroke-width: 1.8943; fill: none; stroke: rgb(105, 191, 105); stroke-opacity: 0.4;"></path><path class="link" d="M10,305.3809196980097C387.5,305.3809196980097 387.5,345.19560741249137 765,345.19560741249137" style="stroke-width: 1.8943; fill: none; stroke: rgb(191, 130, 105); stroke-opacity: 0.4;"></path><path class="link" d="M10,170.38778311599182C387.5,170.38778311599182 387.5,314.8833218943034 765,314.8833218943034" style="stroke-width: 1.75017; fill: none; stroke: rgb(191, 105, 105); stroke-opacity: 0.4;"></path><path class="link" d="M10,362.5806451612904C387.5,362.5806451612904 387.5,265.20247083047354 765,265.20247083047354" style="stroke-width: 1.64722; fill: none; stroke: rgb(191, 154, 105); stroke-opacity: 0.4;"></path><path class="link" d="M10,115.1612903225807C387.5,115.1612903225807 387.5,358.92244337680165 765,358.92244337680165" style="stroke-width: 1.60604; fill: none; stroke: rgb(130, 191, 105); stroke-opacity: 0.4;"></path><path class="link" d="M10,168.7199725463281C387.5,168.7199725463281 387.5,282.8723404255319 765,282.8723404255319" style="stroke-width: 1.58545; fill: none; stroke: rgb(191, 105, 105); stroke-opacity: 0.4;"></path><path class="link" d="M10,307.12079615648605C387.5,307.12079615648605 387.5,362.6595744680851 765,362.6595744680851" style="stroke-width: 1.58545; fill: none; stroke: rgb(191, 130, 105); stroke-opacity: 0.4;"></path><path class="link" d="M10,251.4893617021277C387.5,251.4893617021277 387.5,343.1159917638984 765,343.1159917638984" style="stroke-width: 1.4825; fill: none; stroke: rgb(179, 191, 105); stroke-opacity: 0.4;"></path><path class="link" d="M10,277.9203843514071C387.5,277.9203843514071 387.5,296.8840082361016 765,296.8840082361016" style="stroke-width: 1.40014; fill: none; stroke: rgb(105, 191, 105); stroke-opacity: 0.4;"></path><path class="link" d="M10,113.69938229238167C387.5,113.69938229238167 387.5,338.7714481811942 765,338.7714481811942" style="stroke-width: 1.31778; fill: none; stroke: rgb(130, 191, 105); stroke-opacity: 0.4;"></path><path class="link" d="M10,405.60398078242974C387.5,405.60398078242974 387.5,164.9039121482498 765,164.9039121482498" style="stroke-width: 1.13246; fill: none; stroke: rgb(191, 105, 179); stroke-opacity: 0.4;"></path><path class="link" d="M10,394.1317776252574C387.5,394.1317776252574 387.5,267.09677419354836 765,267.09677419354836" style="stroke-width: 1.07069; fill: none; stroke: rgb(105, 179, 191); stroke-opacity: 0.4;"></path><path class="link" d="M10,172.73507206588886C387.5,172.73507206588886 387.5,360.25051475634865 765,360.25051475634865" style="stroke-width: 1.0501; fill: none; stroke: rgb(191, 105, 105); stroke-opacity: 0.4;"></path><path class="link" d="M10,393.0816746739877C387.5,393.0816746739877 387.5,163.82292381606035 765,163.82292381606035" style="stroke-width: 1.02951; fill: none; stroke: rgb(105, 179, 191); stroke-opacity: 0.4;"></path><path class="link" d="M10,223.8538091969801C387.5,223.8538091969801 387.5,375.50102951269736 765,375.50102951269736" style="stroke-width: 1.00892; fill: none; stroke: rgb(191, 179, 105); stroke-opacity: 0.4;"></path><path class="link" d="M10,301.9938229238162C387.5,301.9938229238162 387.5,298.0679478380233 765,298.0679478380233" style="stroke-width: 1; fill: none; stroke: rgb(191, 130, 105); stroke-opacity: 0.4;"></path><path class="link" d="M10,171.7364447494853C387.5,171.7364447494853 387.5,339.9039121482498 765,339.9039121482498" style="stroke-width: 1; fill: none; stroke: rgb(191, 105, 105); stroke-opacity: 0.4;"></path><path class="link" d="M10,364.464653397392C387.5,364.464653397392 387.5,327.1551132463967 765,327.1551132463967" style="stroke-width: 1; fill: none; stroke: rgb(191, 154, 105); stroke-opacity: 0.4;"></path><path class="link" d="M10,276.77762525737825C387.5,276.77762525737825 387.5,251.0672614962251 765,251.0672614962251" style="stroke-width: 1; fill: none; stroke: rgb(105, 191, 105); stroke-opacity: 0.4;"></path><path class="link" d="M10,382.16540837337004C387.5,382.16540837337004 387.5,347.63555250514753 765,347.63555250514753" style="stroke-width: 1; fill: none; stroke: rgb(105, 105, 191); stroke-opacity: 0.4;"></path><path class="link" d="M10,416.9114619080303C387.5,416.9114619080303 387.5,268.188057652711 765,268.188057652711" style="stroke-width: 1; fill: none; stroke: rgb(105, 154, 191); stroke-opacity: 0.4;"></path><path class="link" d="M10,223.050789293068C387.5,223.050789293068 387.5,361.0741249142073 765,361.0741249142073" style="stroke-width: 1; fill: none; stroke: rgb(191, 179, 105); stroke-opacity: 0.4;"></path><path class="link" d="M10,363.70281400137276C387.5,363.70281400137276 387.5,299.3445435827042 765,299.3445435827042" style="stroke-width: 1; fill: none; stroke: rgb(191, 154, 105); stroke-opacity: 0.4;"></path><path class="link" d="M10,327.4776938915581C387.5,327.4776938915581 387.5,346.44131777625256 765,346.44131777625256" style="stroke-width: 1; fill: none; stroke: rgb(105, 130, 191); stroke-opacity: 0.4;"></path><path class="link" d="M10,381.41386410432403C387.5,381.41386410432403 387.5,266.2937542896362 765,266.2937542896362" style="stroke-width: 1; fill: none; stroke: rgb(105, 105, 191); stroke-opacity: 0.4;"></path><path class="link" d="M10,224.73919011667815C387.5,224.73919011667815 387.5,398.7542896362388 765,398.7542896362388" style="stroke-width: 1; fill: none; stroke: rgb(191, 179, 105); stroke-opacity: 0.4;"></path><path class="link" d="M10,346.4962251201099C387.5,346.4962251201099 387.5,363.75085792724775 765,363.75085792724775" style="stroke-width: 1; fill: none; stroke: rgb(105, 191, 130); stroke-opacity: 0.4;"></path><path class="link" d="M10,116.2010981468772C387.5,116.2010981468772 387.5,374.512697323267 765,374.512697323267" style="stroke-width: 1; fill: none; stroke: rgb(130, 191, 105); stroke-opacity: 0.4;"></path><path class="link" d="M10,252.81743308167472C387.5,252.81743308167472 387.5,376.2216884008236 765,376.2216884008236" style="stroke-width: 1; fill: none; stroke: rgb(179, 191, 105); stroke-opacity: 0.4;"></path><path class="link" d="M10,365.5353466026082C387.5,365.5353466026082 387.5,376.8805765271105 765,376.8805765271105" style="stroke-width: 1; fill: none; stroke: rgb(191, 154, 105); stroke-opacity: 0.4;"></path><path class="link" d="M10,280.71036376115313C387.5,280.71036376115313 387.5,344.05284831846257 765,344.05284831846257" style="stroke-width: 1; fill: none; stroke: rgb(105, 191, 105); stroke-opacity: 0.4;"></path><path class="link" d="M10,427.64241592312976C387.5,427.64241592312976 387.5,165.83047357584076 765,165.83047357584076" style="stroke-width: 1; fill: none; stroke: rgb(154, 191, 105); stroke-opacity: 0.4;"></path><path class="link" d="M10,326.9938229238162C387.5,326.9938229238162 387.5,326.1358956760467 765,326.1358956760467" style="stroke-width: 1; fill: none; stroke: rgb(105, 130, 191); stroke-opacity: 0.4;"></path><path class="link" d="M10,252.41592312971866C387.5,252.41592312971866 387.5,361.5579958819492 765,361.5579958819492" style="stroke-width: 1; fill: none; stroke: rgb(179, 191, 105); stroke-opacity: 0.4;"></path><path class="link" d="M10,345.7652711050104C387.5,345.7652711050104 387.5,326.506520247083 765,326.506520247083" style="stroke-width: 1; fill: none; stroke: rgb(105, 191, 130); stroke-opacity: 0.4;"></path><path class="link" d="M10,448.98078242965005C387.5,448.98078242965005 387.5,166.44818119423473 765,166.44818119423473" style="stroke-width: 1; fill: none; stroke: rgb(130, 105, 191); stroke-opacity: 0.4;"></path><path class="link" d="M10,326.63349347975304C387.5,326.63349347975304 387.5,298.7268359643102 765,298.7268359643102" style="stroke-width: 1; fill: none; stroke: rgb(105, 130, 191); stroke-opacity: 0.4;"></path><path class="link" d="M10,428.01304049416615C387.5,428.01304049416615 387.5,268.6925188743994 765,268.6925188743994" style="stroke-width: 1; fill: none; stroke: rgb(154, 191, 105); stroke-opacity: 0.4;"></path><path class="link" d="M10,253.20864790665757C387.5,253.20864790665757 387.5,387.80713795470143 765,387.80713795470143" style="stroke-width: 1; fill: none; stroke: rgb(179, 191, 105); stroke-opacity: 0.4;"></path><path class="link" d="M10,308.2223747426219C387.5,308.2223747426219 387.5,388.1674673987646 765,388.1674673987646" style="stroke-width: 1; fill: none; stroke: rgb(191, 130, 105); stroke-opacity: 0.4;"></path><path class="link" d="M10,116.59231297186005C387.5,116.59231297186005 387.5,387.31297185998625 765,387.31297185998625" style="stroke-width: 1; fill: none; stroke: rgb(130, 191, 105); stroke-opacity: 0.4;"></path><path class="link" d="M10,346.09471516815387C387.5,346.09471516815387 387.5,346.8840082361015 765,346.8840082361015" style="stroke-width: 1; fill: none; stroke: rgb(105, 191, 130); stroke-opacity: 0.4;"></path><path class="link" d="M10,365.0514756348663C387.5,365.0514756348663 387.5,347.1516815374056 765,347.1516815374056" style="stroke-width: 1; fill: none; stroke: rgb(191, 154, 105); stroke-opacity: 0.4;"></path><path class="link" d="M10,438.35277968428284C387.5,438.35277968428284 387.5,166.14962251201098 765,166.14962251201098" style="stroke-width: 1; fill: none; stroke: rgb(105, 191, 154); stroke-opacity: 0.4;"></path><path class="link" d="M10,173.38366506520254C387.5,173.38366506520254 387.5,374.87302676733015 765,374.87302676733015" style="stroke-width: 1; fill: none; stroke: rgb(191, 105, 105); stroke-opacity: 0.4;"></path><path class="link" d="M10,406.28345916266306C387.5,406.28345916266306 387.5,267.745367192862 765,267.745367192862" style="stroke-width: 1; fill: none; stroke: rgb(191, 105, 179); stroke-opacity: 0.4;"></path><path class="link" d="M10,253.48661633493484C387.5,253.48661633493484 387.5,409.4440631434454 765,409.4440631434454" style="stroke-width: 1; fill: none; stroke: rgb(179, 191, 105); stroke-opacity: 0.4;"></path><path class="link" d="M10,394.8421413864105C387.5,394.8421413864105 387.5,327.73164035689774 765,327.73164035689774" style="stroke-width: 1; fill: none; stroke: rgb(105, 179, 191); stroke-opacity: 0.4;"></path><path class="link" d="M10,438.56897735072073C387.5,438.56897735072073 387.5,268.96019217570347 765,268.96019217570347" style="stroke-width: 1; fill: none; stroke: rgb(105, 191, 154); stroke-opacity: 0.4;"></path><path class="link" d="M10,365.25737817433094C387.5,365.25737817433094 387.5,364.09059711736444 765,364.09059711736444" style="stroke-width: 1; fill: none; stroke: rgb(191, 154, 105); stroke-opacity: 0.4;"></path><path class="link" d="M10,416.49965682910096C387.5,416.49965682910096 387.5,165.55250514756347 765,165.55250514756347" style="stroke-width: 1; fill: none; stroke: rgb(105, 154, 191); stroke-opacity: 0.4;"></path><path class="link" d="M10,459.6190803019905C387.5,459.6190803019905 387.5,328.01990391214827 765,328.01990391214827" style="stroke-width: 1; fill: none; stroke: rgb(105, 191, 179); stroke-opacity: 0.4;"></path><path class="link" d="M10,345.5078929306796C387.5,345.5078929306796 387.5,298.9739190116678 765,298.9739190116678" style="stroke-width: 1; fill: none; stroke: rgb(105, 191, 130); stroke-opacity: 0.4;"></path><path class="link" d="M10,308.4591626630063C387.5,308.4591626630063 387.5,399.1249142072752 765,399.1249142072752" style="stroke-width: 1; fill: none; stroke: rgb(191, 130, 105); stroke-opacity: 0.4;"></path><path class="link" d="M10,459.4337680164723C387.5,459.4337680164723 387.5,269.1866849691146 765,269.1866849691146" style="stroke-width: 1; fill: none; stroke: rgb(105, 191, 179); stroke-opacity: 0.4;"></path><path class="link" d="M10,307.98558682223756C387.5,307.98558682223756 387.5,376.59231297186 765,376.59231297186" style="stroke-width: 1; fill: none; stroke: rgb(191, 130, 105); stroke-opacity: 0.4;"></path><path class="link" d="M10,280.96774193548396C387.5,280.96774193548396 387.5,361.8050789293068 765,361.8050789293068" style="stroke-width: 1; fill: none; stroke: rgb(105, 191, 105); stroke-opacity: 0.4;"></path><path class="link" d="M10,224.42004118050792C387.5,224.42004118050792 387.5,387.5703500343171 765,387.5703500343171" style="stroke-width: 1; fill: none; stroke: rgb(191, 179, 105); stroke-opacity: 0.4;"></path><path class="link" d="M10,438.713109128346C387.5,438.713109128346 387.5,299.9210706932052 765,299.9210706932052" style="stroke-width: 1; fill: none; stroke: rgb(105, 191, 154); stroke-opacity: 0.4;"></path><path class="link" d="M10,479.907343857241C387.5,479.907343857241 387.5,166.8393960192176 765,166.8393960192176" style="stroke-width: 1; fill: none; stroke: rgb(154, 105, 191); stroke-opacity: 0.4;"></path><path class="link" d="M10,469.7838023335622C387.5,469.7838023335622 387.5,166.73644474948526 765,166.73644474948526" style="stroke-width: 1; fill: none; stroke: rgb(179, 105, 191); stroke-opacity: 0.4;"></path><path class="link" d="M10,381.73301304049426C387.5,381.73301304049426 387.5,299.69457789979407 765,299.69457789979407" style="stroke-width: 1; fill: none; stroke: rgb(105, 105, 191); stroke-opacity: 0.4;"></path><path class="link" d="M10,225.03774879890187C387.5,225.03774879890187 387.5,409.29993136582016 765,409.29993136582016" style="stroke-width: 1; fill: none; stroke: rgb(191, 179, 105); stroke-opacity: 0.4;"></path><path class="link" d="M10,253.65133836650656C387.5,253.65133836650656 387.5,429.85586822237474 765,429.85586822237474" style="stroke-width: 1; fill: none; stroke: rgb(179, 191, 105); stroke-opacity: 0.4;"></path><path class="link" d="M10,281.0706932052163C387.5,281.0706932052163 387.5,376.47906657515443 765,376.47906657515443" style="stroke-width: 1; fill: none; stroke: rgb(105, 191, 105); stroke-opacity: 0.4;"></path><path class="link" d="M10,394.7083047357585C387.5,394.7083047357585 387.5,299.78723404255317 765,299.78723404255317" style="stroke-width: 1; fill: none; stroke: rgb(105, 179, 191); stroke-opacity: 0.4;"></path><path class="link" d="M10,308.5621139327386C387.5,308.5621139327386 387.5,419.7426218256692 765,419.7426218256692" style="stroke-width: 1; fill: none; stroke: rgb(191, 130, 105); stroke-opacity: 0.4;"></path><path class="link" d="M10,346.8050789293069C387.5,346.8050789293069 387.5,388.36307481125596 765,388.36307481125596" style="stroke-width: 1; fill: none; stroke: rgb(105, 191, 130); stroke-opacity: 0.4;"></path><path class="link" d="M10,449.1866849691147C387.5,449.1866849691147 387.5,269.08373369938226 765,269.08373369938226" style="stroke-width: 1; fill: none; stroke: rgb(130, 105, 191); stroke-opacity: 0.4;"></path><path class="link" d="M10,116.8599862731641C387.5,116.8599862731641 387.5,419.57789979409745 765,419.57789979409745" style="stroke-width: 1; fill: none; stroke: rgb(130, 191, 105); stroke-opacity: 0.4;"></path><path class="link" d="M10,459.33081674673997C387.5,459.33081674673997 387.5,166.6540837336994 765,166.6540837336994" style="stroke-width: 1; fill: none; stroke: rgb(105, 191, 179); stroke-opacity: 0.4;"></path><path class="link" d="M10,116.77762525737823C387.5,116.77762525737823 387.5,398.4660260809883 765,398.4660260809883" style="stroke-width: 1; fill: none; stroke: rgb(130, 191, 105); stroke-opacity: 0.4;"></path><path class="link" d="M10,173.57927247769396C387.5,173.57927247769396 387.5,419.63967055593685 765,419.63967055593685" style="stroke-width: 1; fill: none; stroke: rgb(191, 105, 105); stroke-opacity: 0.4;"></path><path class="link" d="M10,417.38503774879894C387.5,417.38503774879894 387.5,377.1379547014413 765,377.1379547014413" style="stroke-width: 1; fill: none; stroke: rgb(105, 154, 191); stroke-opacity: 0.4;"></path><path class="link" d="M10,327.7968428277283C387.5,327.7968428277283 387.5,363.47288949897046 765,363.47288949897046" style="stroke-width: 1; fill: none; stroke: rgb(105, 130, 191); stroke-opacity: 0.4;"></path><path class="link" d="M10,438.7851750171586C387.5,438.7851750171586 387.5,327.88606726149624 765,327.88606726149624" style="stroke-width: 1; fill: none; stroke: rgb(105, 191, 154); stroke-opacity: 0.4;"></path><path class="link" d="M10,394.996568291009C387.5,394.996568291009 387.5,364.21413864104323 765,364.21413864104323" style="stroke-width: 1; fill: none; stroke: rgb(105, 179, 191); stroke-opacity: 0.4;"></path><path class="link" d="M10,417.3232669869596C387.5,417.3232669869596 387.5,348.0576527110501 765,348.0576527110501" style="stroke-width: 1; fill: none; stroke: rgb(105, 154, 191); stroke-opacity: 0.4;"></path><path class="link" d="M10,281.15305422100215C387.5,281.15305422100215 387.5,399.0322580645161 765,399.0322580645161" style="stroke-width: 1; fill: none; stroke: rgb(105, 191, 105); stroke-opacity: 0.4;"></path><path class="link" d="M10,394.95538778311607C387.5,394.95538778311607 387.5,348.01647220315715 765,348.01647220315715" style="stroke-width: 1; fill: none; stroke: rgb(105, 179, 191); stroke-opacity: 0.4;"></path><path class="link" d="M10,417.2614962251202C387.5,417.2614962251202 387.5,299.84900480439256 765,299.84900480439256" style="stroke-width: 1; fill: none; stroke: rgb(105, 154, 191); stroke-opacity: 0.4;"></path><path class="link" d="M10,459.5264241592314C387.5,459.5264241592314 387.5,300.03431708991076 765,300.03431708991076" style="stroke-width: 1; fill: none; stroke: rgb(105, 191, 179); stroke-opacity: 0.4;"></path><path class="link" d="M10,449.2793411118738C387.5,449.2793411118738 387.5,327.92724776938917 765,327.92724776938917" style="stroke-width: 1; fill: none; stroke: rgb(130, 105, 191); stroke-opacity: 0.4;"></path><path class="link" d="M10,449.2381606039809C387.5,449.2381606039809 387.5,299.9931365820178 765,299.9931365820178" style="stroke-width: 1; fill: none; stroke: rgb(130, 105, 191); stroke-opacity: 0.4;"></path><path class="link" d="M10,173.5277968428278C387.5,173.5277968428278 387.5,387.4879890185312 765,387.4879890185312" style="stroke-width: 1; fill: none; stroke: rgb(191, 105, 105); stroke-opacity: 0.4;"></path><path class="link" d="M10,395.0274536719287C387.5,395.0274536719287 387.5,377.1070693205216 765,377.1070693205216" style="stroke-width: 1; fill: none; stroke: rgb(105, 179, 191); stroke-opacity: 0.4;"></path><path class="link" d="M10,417.41592312971864C387.5,417.41592312971864 387.5,399.2278654770075 765,399.2278654770075" style="stroke-width: 1; fill: none; stroke: rgb(105, 154, 191); stroke-opacity: 0.4;"></path><path class="link" d="M10,417.4365133836651C387.5,417.4365133836651 387.5,419.7838023335621 765,419.7838023335621" style="stroke-width: 1; fill: none; stroke: rgb(105, 154, 191); stroke-opacity: 0.4;"></path><path class="link" d="M10,459.70144131777636C387.5,459.70144131777636 387.5,348.10912834591625 765,348.10912834591625" style="stroke-width: 1; fill: none; stroke: rgb(105, 191, 179); stroke-opacity: 0.4;"></path><path class="link" d="M10,281.12216884008245C387.5,281.12216884008245 387.5,387.9924502402196 765,387.9924502402196" style="stroke-width: 1; fill: none; stroke: rgb(105, 191, 105); stroke-opacity: 0.4;"></path><path class="link" d="M10,116.81880576527116C387.5,116.81880576527116 387.5,409.248455730954 765,409.248455730954" style="stroke-width: 1; fill: none; stroke: rgb(130, 191, 105); stroke-opacity: 0.4;"></path><path class="link" d="M10,116.90116678105703C387.5,116.90116678105703 387.5,429.8043925875086 765,429.8043925875086" style="stroke-width: 1; fill: none; stroke: rgb(130, 191, 105); stroke-opacity: 0.4;"></path><path class="link" d="M10,428.19835277968434C387.5,428.19835277968434 387.5,348.0885380919698 765,348.0885380919698" style="stroke-width: 1; fill: none; stroke: rgb(154, 191, 105); stroke-opacity: 0.4;"></path><path class="link" d="M10,417.2923816060399C387.5,417.2923816060399 387.5,327.85518188057654 765,327.85518188057654" style="stroke-width: 1; fill: none; stroke: rgb(105, 154, 191); stroke-opacity: 0.4;"></path><path class="link" d="M10,428.2189430336308C387.5,428.2189430336308 387.5,388.42484557309535 765,388.42484557309535" style="stroke-width: 1; fill: none; stroke: rgb(154, 191, 105); stroke-opacity: 0.4;"></path><path class="link" d="M10,253.70281400137273C387.5,253.70281400137273 387.5,459.94852436513384 765,459.94852436513384" style="stroke-width: 1; fill: none; stroke: rgb(179, 191, 105); stroke-opacity: 0.4;"></path><path class="link" d="M10,253.5998627316404C387.5,253.5998627316404 387.5,419.70144131777624 765,419.70144131777624" style="stroke-width: 1; fill: none; stroke: rgb(179, 191, 105); stroke-opacity: 0.4;"></path><path class="link" d="M10,225.08922443376804C387.5,225.08922443376804 387.5,419.6808510638298 765,419.6808510638298" style="stroke-width: 1; fill: none; stroke: rgb(191, 179, 105); stroke-opacity: 0.4;"></path><path class="link" d="M10,382.5360329444064C387.5,382.5360329444064 387.5,364.18325326012354 765,364.18325326012354" style="stroke-width: 1; fill: none; stroke: rgb(105, 105, 191); stroke-opacity: 0.4;"></path><path class="link" d="M10,381.79478380233365C387.5,381.79478380233365 387.5,327.6286890871654 765,327.6286890871654" style="stroke-width: 1; fill: none; stroke: rgb(105, 105, 191); stroke-opacity: 0.4;"></path><path class="link" d="M10,365.7618393960193C387.5,365.7618393960193 387.5,399.20727522306106 765,399.20727522306106" style="stroke-width: 1; fill: none; stroke: rgb(191, 154, 105); stroke-opacity: 0.4;"></path><path class="link" d="M10,382.55662319835284C387.5,382.55662319835284 387.5,377.0864790665752 765,377.0864790665752" style="stroke-width: 1; fill: none; stroke: rgb(105, 105, 191); stroke-opacity: 0.4;"></path><path class="link" d="M10,346.76389842141396C387.5,346.76389842141396 387.5,376.67467398764586 765,376.67467398764586" style="stroke-width: 1; fill: none; stroke: rgb(105, 191, 130); stroke-opacity: 0.4;"></path><path class="link" d="M10,365.74124914207283C387.5,365.74124914207283 387.5,388.4042553191489 765,388.4042553191489" style="stroke-width: 1; fill: none; stroke: rgb(191, 154, 105); stroke-opacity: 0.4;"></path><path class="link" d="M10,417.3541523678793C387.5,417.3541523678793 387.5,364.24502402196293 765,364.24502402196293" style="stroke-width: 1; fill: none; stroke: rgb(105, 154, 191); stroke-opacity: 0.4;"></path><path class="link" d="M10,365.78242964996576C387.5,365.78242964996576 387.5,449.92793411118737 765,449.92793411118737" style="stroke-width: 1; fill: none; stroke: rgb(191, 154, 105); stroke-opacity: 0.4;"></path><path class="link" d="M10,308.60329444063154C387.5,308.60329444063154 387.5,479.98970487302677 765,479.98970487302677" style="stroke-width: 1; fill: none; stroke: rgb(191, 130, 105); stroke-opacity: 0.4;"></path><path class="link" d="M10,459.7220315717228C387.5,459.7220315717228 387.5,364.2656142759094 765,364.2656142759094" style="stroke-width: 1; fill: none; stroke: rgb(105, 191, 179); stroke-opacity: 0.4;"></path><path class="link" d="M10,469.8455730954016C387.5,469.8455730954016 387.5,328.1022649279341 765,328.1022649279341" style="stroke-width: 1; fill: none; stroke: rgb(179, 105, 191); stroke-opacity: 0.4;"></path><path class="link" d="M10,406.40700068634186C387.5,406.40700068634186 387.5,327.8345916266301 765,327.8345916266301" style="stroke-width: 1; fill: none; stroke: rgb(191, 105, 179); stroke-opacity: 0.4;"></path><path class="link" d="M10,173.6204529855869C387.5,173.6204529855869 387.5,439.9073438572409 765,439.9073438572409" style="stroke-width: 1; fill: none; stroke: rgb(191, 105, 105); stroke-opacity: 0.4;"></path><path class="link" d="M10,173.64104323953336C387.5,173.64104323953336 387.5,469.9691146190803 765,469.9691146190803" style="stroke-width: 1; fill: none; stroke: rgb(191, 105, 105); stroke-opacity: 0.4;"></path><path class="link" d="M10,499.9897048730269C387.5,499.9897048730269 387.5,300.06520247083046 765,300.06520247083046" style="stroke-width: 1; fill: none; stroke: rgb(191, 105, 154); stroke-opacity: 0.4;"></path><path class="link" d="M10,489.9691146190804C387.5,489.9691146190804 387.5,166.901166781057 765,166.901166781057" style="stroke-width: 1; fill: none; stroke: rgb(191, 105, 130); stroke-opacity: 0.4;"></path></g><g><g class="node" transform="translate(765,19.99999999999997)"><rect height="146.9114619080302" width="10" style="fill: rgb(102, 102, 102);"><title>A
7,135</title></rect><text x="-6" y="73.4557309540151" dy=".35em" text-anchor="end" style="font-size: 11px; font-family: Arial, Helvetica; pointer-events: none;">A</text></g><g class="node" transform="translate(765,279.2587508579272)"><rect height="20.816746739876457" width="10" style="fill: rgb(102, 102, 102);"><title>AD
1,011</title></rect><text x="-6" y="10.408373369938229" dy=".35em" text-anchor="end" style="font-size: 11px; font-family: Arial, Helvetica; pointer-events: none;">AD</text></g><g class="node" transform="translate(765,310.0754975978037)"><rect height="18.037062457103637" width="10" style="fill: rgb(102, 102, 102);"><title>ADE
876</title></rect><text x="-6" y="9.018531228551819" dy=".35em" text-anchor="end" style="font-size: 11px; font-family: Arial, Helvetica; pointer-events: none;">ADE</text></g><g class="node" transform="translate(765,459.9382292381606)"><rect height="0.02059025394646534" width="10" style="fill: rgb(102, 102, 102);"><title>ADET
1</title></rect><text x="-6" y="0.01029512697323267" dy=".35em" text-anchor="end" style="font-size: 11px; font-family: Arial, Helvetica; pointer-events: none;">ADET</text></g><g class="node" transform="translate(765,409.23816060398076)"><rect height="0.3088538091969801" width="10" style="fill: rgb(102, 102, 102);"><title>ADT
15</title></rect><text x="-6" y="0.15442690459849004" dy=".35em" text-anchor="end" style="font-size: 11px; font-family: Arial, Helvetica; pointer-events: none;">ADT</text></g><g class="node" transform="translate(765,479.97940974605353)"><rect height="0.02059025394646534" width="10" style="fill: rgb(102, 102, 102);"><title>ADTE
1</title></rect><text x="-6" y="0.01029512697323267" dy=".35em" text-anchor="end" style="font-size: 11px; font-family: Arial, Helvetica; pointer-events: none;">ADTE</text></g><g class="node" transform="translate(765,176.91146190803016)"><rect height="92.34728894989705" width="10" style="fill: rgb(102, 102, 102);"><title>AE
4,485</title></rect><text x="-6" y="46.173644474948524" dy=".35em" text-anchor="end" style="font-size: 11px; font-family: Arial, Helvetica; pointer-events: none;">AE</text></g><g class="node" transform="translate(765,338.1125600549073)"><rect height="10.006863417982155" width="10" style="fill: rgb(102, 102, 102);"><title>AED
486</title></rect><text x="-6" y="5.003431708991077" dy=".35em" text-anchor="end" style="font-size: 11px; font-family: Arial, Helvetica; pointer-events: none;">AED</text></g><g class="node" transform="translate(765,358.1194234728895)"><rect height="6.156485929993137" width="10" style="fill: rgb(102, 102, 102);"><title>AEDE
299</title></rect><text x="-6" y="3.0782429649965684" dy=".35em" text-anchor="end" style="font-size: 11px; font-family: Arial, Helvetica; pointer-events: none;">AEDE</text></g><g class="node" transform="translate(765,439.89704873026767)"><rect height="0.02059025394646534" width="10" style="fill: rgb(102, 102, 102);"><title>AEDET
1</title></rect><text x="-6" y="0.01029512697323267" dy=".35em" text-anchor="end" style="font-size: 11px; font-family: Arial, Helvetica; pointer-events: none;">AEDET</text></g><g class="node" transform="translate(765,429.79409746053534)"><rect height="0.1029512697323267" width="10" style="fill: rgb(102, 102, 102);"><title>AEDT
5</title></rect><text x="-6" y="0.05147563486616335" dy=".35em" text-anchor="end" style="font-size: 11px; font-family: Arial, Helvetica; pointer-events: none;">AEDT</text></g><g class="node" transform="translate(765,387.15854495538775)"><rect height="1.2765957446808511" width="10" style="fill: rgb(102, 102, 102);"><title>AET
62</title></rect><text x="-6" y="0.6382978723404256" dy=".35em" text-anchor="end" style="font-size: 11px; font-family: Arial, Helvetica; pointer-events: none;">AET</text></g><g class="node" transform="translate(765,449.91763898421414)"><rect height="0.02059025394646534" width="10" style="fill: rgb(102, 102, 102);"><title>AETD
1</title></rect><text x="-6" y="0.01029512697323267" dy=".35em" text-anchor="end" style="font-size: 11px; font-family: Arial, Helvetica; pointer-events: none;">AETD</text></g><g class="node" transform="translate(765,419.54701441317775)"><rect height="0.24708304735758407" width="10" style="fill: rgb(102, 102, 102);"><title>AETE
12</title></rect><text x="-6" y="0.12354152367879204" dy=".35em" text-anchor="end" style="font-size: 11px; font-family: Arial, Helvetica; pointer-events: none;">AETE</text></g><g class="node" transform="translate(765,374.27590940288263)"><rect height="2.8826355525051475" width="10" style="fill: rgb(102, 102, 102);"><title>AT
140</title></rect><text x="-6" y="1.4413177762525737" dy=".35em" text-anchor="end" style="font-size: 11px; font-family: Arial, Helvetica; pointer-events: none;">AT</text></g><g class="node" transform="translate(765,469.95881949210707)"><rect height="0.02059025394646534" width="10" style="fill: rgb(102, 102, 102);"><title>ATD
1</title></rect><text x="-6" y="0.01029512697323267" dy=".35em" text-anchor="end" style="font-size: 11px; font-family: Arial, Helvetica; pointer-events: none;">ATD</text></g><g class="node" transform="translate(765,398.4351407000686)"><rect height="0.8030199039121483" width="10" style="fill: rgb(102, 102, 102);"><title>ATE
39</title></rect><text x="-6" y="0.40150995195607414" dy=".35em" text-anchor="end" style="font-size: 11px; font-family: Arial, Helvetica; pointer-events: none;">ATE</text></g><g class="node" transform="translate(0,405.03774879890193)"><rect height="1.3795470144131778" width="10"><title>Architecture
67</title></rect><text x="16" y="0.6897735072065889" dy=".35em" text-anchor="start" style="font-size: 11px; font-family: Arial, Helvetica; pointer-events: none;">Architecture</text></g><g class="node" transform="translate(0,427.44680851063833)"><rect height="0.7824296499656829" width="10"><title>Architecture intérieure
38</title></rect><text x="16" y="0.39121482498284144" dy=".35em" text-anchor="start" style="font-size: 11px; font-family: Arial, Helvetica; pointer-events: none;">Architecture intérieure</text></g><g class="node" transform="translate(0,499.97940974605365)"><rect height="0.02059025394646534" width="10"><title>Certificat
1</title></rect><text x="16" y="0.01029512697323267" dy=".35em" text-anchor="start" style="font-size: 11px; font-family: Arial, Helvetica; pointer-events: none;">Certificat</text></g><g class="node" transform="translate(0,459.29993136582027)"><rect height="0.43239533287577214" width="10"><title>Cinéma
21</title></rect><text x="16" y="0.21619766643788607" dy=".35em" text-anchor="start" style="font-size: 11px; font-family: Arial, Helvetica; pointer-events: none;">Cinéma</text></g><g class="node" transform="translate(0,438.22923816060404)"><rect height="0.5765271105010294" width="10"><title>Design graphique
28</title></rect><text x="16" y="0.2882635552505147" dy=".35em" text-anchor="start" style="font-size: 11px; font-family: Arial, Helvetica; pointer-events: none;">Design graphique</text></g><g class="node" transform="translate(0,183.65133836650656)"><rect height="41.44818119423473" width="10"><title>Dessin
2,013</title></rect><text x="16" y="20.724090597117364" dy=".35em" text-anchor="start" style="font-size: 11px; font-family: Arial, Helvetica; pointer-events: none;">Dessin</text></g><g class="node" transform="translate(0,479.85586822237485)"><rect height="0.1029512697323267" width="10"><title>Dessin design
5</title></rect><text x="16" y="0.05147563486616335" dy=".35em" text-anchor="start" style="font-size: 11px; font-family: Arial, Helvetica; pointer-events: none;">Dessin design</text></g><g class="node" transform="translate(0,489.9588194921072)"><rect height="0.02059025394646534" width="10"><title>Domaine mixte- voir détail sur les éléments
1</title></rect><text x="16" y="0.01029512697323267" dy=".35em" text-anchor="start" style="font-size: 11px; font-family: Arial, Helvetica; pointer-events: none;">Domaine mixte- voir détail sur les éléments</text></g><g class="node" transform="translate(0,263.713109128346)"><rect height="17.460535346602608" width="10"><title>Estampe
848</title></rect><text x="16" y="8.730267673301304" dy=".35em" text-anchor="start" style="font-size: 11px; font-family: Arial, Helvetica; pointer-events: none;">Estampe</text></g><g class="node" transform="translate(0,337.8174330816748)"><rect height="9.018531228551819" width="10"><title>Nouveaux médias
438</title></rect><text x="16" y="4.509265614275909" dy=".35em" text-anchor="start" style="font-size: 11px; font-family: Arial, Helvetica; pointer-events: none;">Nouveaux médias</text></g><g class="node" transform="translate(0,392.56691832532607)"><rect height="2.4708304735758406" width="10"><title>Objet
120</title></rect><text x="16" y="1.2354152367879203" dy=".35em" text-anchor="start" style="font-size: 11px; font-family: Arial, Helvetica; pointer-events: none;">Objet</text></g><g class="node" transform="translate(0,126.91146190803025)"><rect height="46.73987645847632" width="10"><title>Objet/Design
2,270</title></rect><text x="16" y="23.36993822923816" dy=".35em" text-anchor="start" style="font-size: 11px; font-family: Arial, Helvetica; pointer-events: none;">Objet/Design</text></g><g class="node" transform="translate(0,291.1736444749486)"><rect height="17.439945092656142" width="10"><title>Oeuvre en 3 dimensions
847</title></rect><text x="16" y="8.719972546328071" dy=".35em" text-anchor="start" style="font-size: 11px; font-family: Arial, Helvetica; pointer-events: none;">Oeuvre en 3 dimensions</text></g><g class="node" transform="translate(0,416.4172958133151)"><rect height="1.029512697323267" width="10"><title>Oeuvre textile
50</title></rect><text x="16" y="0.5147563486616334" dy=".35em" text-anchor="start" style="font-size: 11px; font-family: Arial, Helvetica; pointer-events: none;">Oeuvre textile</text></g><g class="node" transform="translate(0,235.0995195607413)"><rect height="18.613589567604667" width="10"><title>Peinture
904</title></rect><text x="16" y="9.306794783802333" dy=".35em" text-anchor="start" style="font-size: 11px; font-family: Arial, Helvetica; pointer-events: none;">Peinture</text></g><g class="node" transform="translate(0,448.8057652711051)"><rect height="0.49416609471516815" width="10"><title>Performance
24</title></rect><text x="16" y="0.24708304735758407" dy=".35em" text-anchor="start" style="font-size: 11px; font-family: Arial, Helvetica; pointer-events: none;">Performance</text></g><g class="node" transform="translate(0,5.684341886080802e-14)"><rect height="116.91146190803019" width="10"><title>Photographie
5,678</title></rect><text x="16" y="58.455730954015095" dy=".35em" text-anchor="start" style="font-size: 11px; font-family: Arial, Helvetica; pointer-events: none;">Photographie</text></g><g class="node" transform="translate(0,318.6135895676048)"><rect height="9.203843514070007" width="10"><title>Publication- livre- reliure
447</title></rect><text x="16" y="4.6019217570350035" dy=".35em" text-anchor="start" style="font-size: 11px; font-family: Arial, Helvetica; pointer-events: none;">Publication- livre- reliure</text></g><g class="node" transform="translate(0,375.792724776939)"><rect height="6.774193548387097" width="10"><title>Reproduction photomécanique
329</title></rect><text x="16" y="3.3870967741935485" dy=".35em" text-anchor="start" style="font-size: 11px; font-family: Arial, Helvetica; pointer-events: none;">Reproduction photomécanique</text></g><g class="node" transform="translate(0,469.73232669869606)"><rect height="0.12354152367879204" width="10"><title>Sans domaine déterminé
6</title></rect><text x="16" y="0.06177076183939602" dy=".35em" text-anchor="start" style="font-size: 11px; font-family: Arial, Helvetica; pointer-events: none;">Sans domaine déterminé</text></g><g class="node" transform="translate(0,356.8359643102266)"><rect height="8.956760466712423" width="10"><title>Sculpture
435</title></rect><text x="16" y="4.478380233356211" dy=".35em" text-anchor="start" style="font-size: 11px; font-family: Arial, Helvetica; pointer-events: none;">Sculpture</text></g></g></g></svg>