<svg width="775" height="520" xmlns="http://www.w3.org/2000/svg" version="1.1"><g transform="translate(0,10)"><g><path class="link" d="M10,54.12892991058552C387.5,54.12892991058552 387.5,39.12892991058555 765,39.12892991058555" style="stroke-width: 78.2579; fill: none; stroke: rgb(191, 105, 105); stroke-opacity: 0.4;"></path><path class="link" d="M10,114.35871550812422C387.5,114.35871550812422 387.5,184.47841553696762 765,184.47841553696762" style="stroke-width: 42.2017; fill: none; stroke: rgb(191, 105, 105); stroke-opacity: 0.4;"></path><path class="link" d="M10,201.7339678877031C387.5,201.7339678877031 387.5,91.21911354677437 765,91.21911354677437" style="stroke-width: 25.9225; fill: none; stroke: rgb(191, 179, 105); stroke-opacity: 0.4;"></path><path class="link" d="M10,226.08739544274587C387.5,226.08739544274587 387.5,216.97144505336027 765,216.97144505336027" style="stroke-width: 22.7843; fill: none; stroke: rgb(191, 179, 105); stroke-opacity: 0.4;"></path><path class="link" d="M10,266.047014710124C387.5,266.047014710124 387.5,114.67358907797329 765,114.67358907797329" style="stroke-width: 20.9864; fill: none; stroke: rgb(191, 142, 105); stroke-opacity: 0.4;"></path><path class="link" d="M10,330.2293048745313C387.5,330.2293048745313 387.5,134.79376982982407 765,134.79376982982407" style="stroke-width: 19.2539; fill: none; stroke: rgb(166, 191, 105); stroke-opacity: 0.4;"></path><path class="link" d="M10,284.46735890779735C387.5,284.46735890779735 387.5,236.29074127487743 765,236.29074127487743" style="stroke-width: 15.8542; fill: none; stroke: rgb(191, 142, 105); stroke-opacity: 0.4;"></path><path class="link" d="M10,142.65118738582828C387.5,142.65118738582828 387.5,276.3157388712624 765,276.3157388712624" style="stroke-width: 14.3832; fill: none; stroke: rgb(191, 105, 105); stroke-opacity: 0.4;"></path><path class="link" d="M10,156.18450149024133C387.5,156.18450149024133 387.5,315.9975002403615 765,315.9975002403615" style="stroke-width: 12.6834; fill: none; stroke: rgb(191, 105, 105); stroke-opacity: 0.4;"></path><path class="link" d="M10,344.6942601672916C387.5,344.6942601672916 387.5,249.05586001346026 765,249.05586001346026" style="stroke-width: 9.67599; fill: none; stroke: rgb(166, 191, 105); stroke-opacity: 0.4;"></path><path class="link" d="M10,296.8892414190943C387.5,296.8892414190943 387.5,288.590520142294 765,288.590520142294" style="stroke-width: 8.98952; fill: none; stroke: rgb(191, 142, 105); stroke-opacity: 0.4;"></path><path class="link" d="M10,377.38054033266036C387.5,377.38054033266036 387.5,148.5722526680127 765,148.5722526680127" style="stroke-width: 8.30305; fill: none; stroke: rgb(105, 191, 117); stroke-opacity: 0.4;"></path><path class="link" d="M10,352.18007883857325C387.5,352.18007883857325 387.5,295.7331025862898 765,295.7331025862898" style="stroke-width: 5.29564; fill: none; stroke: rgb(166, 191, 105); stroke-opacity: 0.4;"></path><path class="link" d="M10,383.803961157581C387.5,383.803961157581 387.5,256.1657532929526 765,256.1657532929526" style="stroke-width: 4.54379; fill: none; stroke: rgb(105, 191, 117); stroke-opacity: 0.4;"></path><path class="link" d="M10,169.01499855783095C387.5,169.01499855783095 387.5,367.1012402653591 765,367.1012402653591" style="stroke-width: 4.54379; fill: none; stroke: rgb(191, 105, 105); stroke-opacity: 0.4;"></path><path class="link" d="M10,164.63465051437362C387.5,164.63465051437362 387.5,345.39851937313716 765,345.39851937313716" style="stroke-width: 4.2169; fill: none; stroke: rgb(191, 105, 105); stroke-opacity: 0.4;"></path><path class="link" d="M10,303.4270743197769C387.5,303.4270743197769 387.5,326.8012691087395 765,326.8012691087395" style="stroke-width: 4.08615; fill: none; stroke: rgb(191, 142, 105); stroke-opacity: 0.4;"></path><path class="link" d="M10,356.3806364772618C387.5,356.3806364772618 387.5,330.397077204115 765,330.397077204115" style="stroke-width: 3.10547; fill: none; stroke: rgb(166, 191, 105); stroke-opacity: 0.4;"></path><path class="link" d="M10,172.77425247572347C387.5,172.77425247572347 387.5,386.907989616383 765,386.907989616383" style="stroke-width: 2.97471; fill: none; stroke: rgb(191, 105, 105); stroke-opacity: 0.4;"></path><path class="link" d="M10,243.3145851360446C387.5,243.3145851360446 387.5,370.6643591962311 765,370.6643591962311" style="stroke-width: 2.58244; fill: none; stroke: rgb(191, 179, 105); stroke-opacity: 0.4;"></path><path class="link" d="M10,239.27747331987308C387.5,239.27747331987308 387.5,323.54869724065 765,323.54869724065" style="stroke-width: 2.419; fill: none; stroke: rgb(191, 179, 105); stroke-opacity: 0.4;"></path><path class="link" d="M10,306.66330160561483C387.5,306.66330160561483 387.5,350.23651571964234 765,350.23651571964234" style="stroke-width: 2.38631; fill: none; stroke: rgb(191, 142, 105); stroke-opacity: 0.4;"></path><path class="link" d="M10,358.9467358907797C387.5,358.9467358907797 387.5,352.44303432362267 765,352.44303432362267" style="stroke-width: 2.02673; fill: none; stroke: rgb(166, 191, 105); stroke-opacity: 0.4;"></path><path class="link" d="M10,175.14421690222093C387.5,175.14421690222093 387.5,402.05653302567055 765,402.05653302567055" style="stroke-width: 1.76521; fill: none; stroke: rgb(191, 105, 105); stroke-opacity: 0.4;"></path><path class="link" d="M10,390.17834823574657C387.5,390.17834823574657 387.5,374.5870589366407 765,374.5870589366407" style="stroke-width: 1.60177; fill: none; stroke: rgb(105, 191, 117); stroke-opacity: 0.4;"></path><path class="link" d="M10,241.25516777232957C387.5,241.25516777232957 387.5,348.27516584943754 765,348.27516584943754" style="stroke-width: 1.53639; fill: none; stroke: rgb(191, 179, 105); stroke-opacity: 0.4;"></path><path class="link" d="M10,387.59590423997696C387.5,387.59590423997696 387.5,332.58725122584366 765,332.58725122584366" style="stroke-width: 1.27488; fill: none; stroke: rgb(105, 191, 117); stroke-opacity: 0.4;"></path><path class="link" d="M10,388.80540332660325C387.5,388.80540332660325 387.5,354.02845880203824 765,354.02845880203824" style="stroke-width: 1.14412; fill: none; stroke: rgb(105, 191, 117); stroke-opacity: 0.4;"></path><path class="link" d="M10,360.51581578694356C387.5,360.51581578694356 387.5,373.23045860974906 765,373.23045860974906" style="stroke-width: 1.11143; fill: none; stroke: rgb(166, 191, 105); stroke-opacity: 0.4;"></path><path class="link" d="M10,176.56619555811943C387.5,176.56619555811943 387.5,414.8841457552158 765,414.8841457552158" style="stroke-width: 1.07874; fill: none; stroke: rgb(191, 105, 105); stroke-opacity: 0.4;"></path><path class="link" d="M10,361.59455821555616C387.5,361.59455821555616 387.5,390.0298048264589 765,390.0298048264589" style="stroke-width: 1.04605; fill: none; stroke: rgb(166, 191, 105); stroke-opacity: 0.4;"></path><path class="link" d="M10,386.5171618113643C387.5,386.5171618113643 387.5,298.82222863186234 765,298.82222863186234" style="stroke-width: 1; fill: none; stroke: rgb(105, 191, 117); stroke-opacity: 0.4;"></path><path class="link" d="M10,309.0169214498606C387.5,309.0169214498606 387.5,389.0654744736083 765,389.0654744736083" style="stroke-width: 1; fill: none; stroke: rgb(191, 142, 105); stroke-opacity: 0.4;"></path><path class="link" d="M10,177.48149216421498C387.5,177.48149216421498 387.5,426.9108739544274 765,426.9108739544274" style="stroke-width: 1; fill: none; stroke: rgb(191, 105, 105); stroke-opacity: 0.4;"></path><path class="link" d="M10,308.2160369195269C387.5,308.2160369195269 387.5,372.3151620036535 765,372.3151620036535" style="stroke-width: 1; fill: none; stroke: rgb(191, 142, 105); stroke-opacity: 0.4;"></path><path class="link" d="M10,391.2897798288626C387.5,391.2897798288626 387.5,390.86337852129594 765,390.86337852129594" style="stroke-width: 1; fill: none; stroke: rgb(105, 191, 117); stroke-opacity: 0.4;"></path><path class="link" d="M10,237.77377175271607C387.5,237.77377175271607 387.5,283.801557542544 765,283.801557542544" style="stroke-width: 1; fill: none; stroke: rgb(191, 179, 105); stroke-opacity: 0.4;"></path><path class="link" d="M10,391.8781847899241C387.5,391.8781847899241 387.5,416.2244014998558 765,416.2244014998558" style="stroke-width: 1; fill: none; stroke: rgb(105, 191, 117); stroke-opacity: 0.4;"></path><path class="link" d="M10,309.719738486684C387.5,309.719738486684 387.5,403.5602345928276 765,403.5602345928276" style="stroke-width: 1; fill: none; stroke: rgb(191, 142, 105); stroke-opacity: 0.4;"></path><path class="link" d="M10,178.08624170752813C387.5,178.08624170752813 387.5,437.8098259782713 765,437.8098259782713" style="stroke-width: 1; fill: none; stroke: rgb(191, 105, 105); stroke-opacity: 0.4;"></path><path class="link" d="M10,245.0144216902221C387.5,245.0144216902221 387.5,403.11893087203146 765,403.11893087203146" style="stroke-width: 1; fill: none; stroke: rgb(191, 179, 105); stroke-opacity: 0.4;"></path><path class="link" d="M10,402.7444476492645C387.5,402.7444476492645 387.5,152.88722238246325 765,152.88722238246325" style="stroke-width: 1; fill: none; stroke: rgb(105, 191, 154); stroke-opacity: 0.4;"></path><path class="link" d="M10,362.26468608787616C387.5,362.26468608787616 387.5,403.9688491491203 765,403.9688491491203" style="stroke-width: 1; fill: none; stroke: rgb(166, 191, 105); stroke-opacity: 0.4;"></path><path class="link" d="M10,310.3408326122488C387.5,310.3408326122488 387.5,459.01932506489754 765,459.01932506489754" style="stroke-width: 1; fill: none; stroke: rgb(191, 142, 105); stroke-opacity: 0.4;"></path><path class="link" d="M10,245.32496875300453C387.5,245.32496875300453 387.5,415.5542736275358 765,415.5542736275358" style="stroke-width: 1; fill: none; stroke: rgb(191, 179, 105); stroke-opacity: 0.4;"></path><path class="link" d="M10,392.4339005864821C387.5,392.4339005864821 387.5,479.68945293721754 765,479.68945293721754" style="stroke-width: 1; fill: none; stroke: rgb(105, 191, 117); stroke-opacity: 0.4;"></path><path class="link" d="M10,362.52619940390343C387.5,362.52619940390343 387.5,415.8321315258148 765,415.8321315258148" style="stroke-width: 1; fill: none; stroke: rgb(166, 191, 105); stroke-opacity: 0.4;"></path><path class="link" d="M10,403.0223055475435C387.5,403.0223055475435 387.5,258.55206230170177 765,258.55206230170177" style="stroke-width: 1; fill: none; stroke: rgb(105, 191, 154); stroke-opacity: 0.4;"></path><path class="link" d="M10,244.72021920969138C387.5,244.72021920969138 387.5,388.50975867705023 765,388.50975867705023" style="stroke-width: 1; fill: none; stroke: rgb(191, 179, 105); stroke-opacity: 0.4;"></path><path class="link" d="M10,178.42947793481397C387.5,178.42947793481397 387.5,448.4145755215844 765,448.4145755215844" style="stroke-width: 1; fill: none; stroke: rgb(191, 105, 105); stroke-opacity: 0.4;"></path><path class="link" d="M10,444.6731083549659C387.5,444.6731083549659 387.5,153.21411402749735 765,153.21411402749735" style="stroke-width: 1; fill: none; stroke: rgb(130, 105, 191); stroke-opacity: 0.4;"></path><path class="link" d="M10,413.69243341986345C387.5,413.69243341986345 387.5,299.4596673396789 765,299.4596673396789" style="stroke-width: 1; fill: none; stroke: rgb(105, 117, 191); stroke-opacity: 0.4;"></path><path class="link" d="M10,423.9539467358908C387.5,423.9539467358908 387.5,258.86260936448423 765,258.86260936448423" style="stroke-width: 1; fill: none; stroke: rgb(191, 105, 179); stroke-opacity: 0.4;"></path><path class="link" d="M10,424.16642630516293C387.5,424.16642630516293 387.5,404.2303624651475 765,404.2303624651475" style="stroke-width: 1; fill: none; stroke: rgb(191, 105, 179); stroke-opacity: 0.4;"></path><path class="link" d="M10,362.7223343909239C387.5,362.7223343909239 387.5,427.433900586482 765,427.433900586482" style="stroke-width: 1; fill: none; stroke: rgb(166, 191, 105); stroke-opacity: 0.4;"></path><path class="link" d="M10,310.5369675992693C387.5,310.5369675992693 387.5,469.3789058744351 765,469.3789058744351" style="stroke-width: 1; fill: none; stroke: rgb(191, 142, 105); stroke-opacity: 0.4;"></path><path class="link" d="M10,434.36256129218344C387.5,434.36256129218344 387.5,299.60676857994423 765,299.60676857994423" style="stroke-width: 1; fill: none; stroke: rgb(130, 191, 105); stroke-opacity: 0.4;"></path><path class="link" d="M10,362.8530910489376C387.5,362.8530910489376 387.5,438.1857513700606 765,438.1857513700606" style="stroke-width: 1; fill: none; stroke: rgb(166, 191, 105); stroke-opacity: 0.4;"></path><path class="link" d="M10,392.270454763965C387.5,392.270454763965 387.5,448.7414671666186 765,448.7414671666186" style="stroke-width: 1; fill: none; stroke: rgb(105, 191, 117); stroke-opacity: 0.4;"></path><path class="link" d="M10,310.16104220748C387.5,310.16104220748 387.5,448.61071050860494 765,448.61071050860494" style="stroke-width: 1; fill: none; stroke: rgb(191, 142, 105); stroke-opacity: 0.4;"></path><path class="link" d="M10,434.4606287856937C387.5,434.4606287856937 387.5,354.78030958561675 765,354.78030958561675" style="stroke-width: 1; fill: none; stroke: rgb(130, 191, 105); stroke-opacity: 0.4;"></path><path class="link" d="M10,413.5453321795981C387.5,413.5453321795981 387.5,258.71550812421884 765,258.71550812421884" style="stroke-width: 1; fill: none; stroke: rgb(105, 117, 191); stroke-opacity: 0.4;"></path><path class="link" d="M10,178.59292375733105C387.5,178.59292375733105 387.5,458.8395346601288 765,458.8395346601288" style="stroke-width: 1; fill: none; stroke: rgb(191, 105, 105); stroke-opacity: 0.4;"></path><path class="link" d="M10,363.08191520046154C387.5,363.08191520046154 387.5,469.493317950197 765,469.493317950197" style="stroke-width: 1; fill: none; stroke: rgb(166, 191, 105); stroke-opacity: 0.4;"></path><path class="link" d="M10,403.3165080280742C387.5,403.3165080280742 387.5,354.6495529276031 765,354.6495529276031" style="stroke-width: 1; fill: none; stroke: rgb(105, 191, 154); stroke-opacity: 0.4;"></path><path class="link" d="M10,403.1857513700606C387.5,403.1857513700606 387.5,299.3125660994135 765,299.3125660994135" style="stroke-width: 1; fill: none; stroke: rgb(105, 191, 154); stroke-opacity: 0.4;"></path><path class="link" d="M10,362.9838477069513C387.5,362.9838477069513 387.5,459.1991154696663 765,459.1991154696663" style="stroke-width: 1; fill: none; stroke: rgb(166, 191, 105); stroke-opacity: 0.4;"></path><path class="link" d="M10,454.8692433419864C387.5,454.8692433419864 387.5,259.0260551870013 765,259.0260551870013" style="stroke-width: 1; fill: none; stroke: rgb(105, 191, 191); stroke-opacity: 0.4;"></path><path class="link" d="M10,392.1887318527065C387.5,392.1887318527065 387.5,438.2674742813191 765,438.2674742813191" style="stroke-width: 1; fill: none; stroke: rgb(105, 191, 117); stroke-opacity: 0.4;"></path><path class="link" d="M10,363.1963272762235C387.5,363.1963272762235 387.5,499.96731083549656 765,499.96731083549656" style="stroke-width: 1; fill: none; stroke: rgb(166, 191, 105); stroke-opacity: 0.4;"></path><path class="link" d="M10,178.74002499759638C387.5,178.74002499759638 387.5,489.8365541774829 765,489.8365541774829" style="stroke-width: 1; fill: none; stroke: rgb(191, 105, 105); stroke-opacity: 0.4;"></path><path class="link" d="M10,178.67464666858956C387.5,178.67464666858956 387.5,469.2808383809249 765,469.2808383809249" style="stroke-width: 1; fill: none; stroke: rgb(191, 105, 105); stroke-opacity: 0.4;"></path><path class="link" d="M10,310.04663013171813C387.5,310.04663013171813 387.5,427.31948851072013 765,427.31948851072013" style="stroke-width: 1; fill: none; stroke: rgb(191, 142, 105); stroke-opacity: 0.4;"></path><path class="link" d="M10,245.48841457552157C387.5,245.48841457552157 387.5,438.07133929429864 765,438.07133929429864" style="stroke-width: 1; fill: none; stroke: rgb(191, 179, 105); stroke-opacity: 0.4;"></path><path class="link" d="M10,434.5586962792039C387.5,434.5586962792039 387.5,427.56465724449566 765,427.56465724449566" style="stroke-width: 1; fill: none; stroke: rgb(130, 191, 105); stroke-opacity: 0.4;"></path><path class="link" d="M10,362.9184693779444C387.5,362.9184693779444 387.5,448.6760888376117 765,448.6760888376117" style="stroke-width: 1; fill: none; stroke: rgb(166, 191, 105); stroke-opacity: 0.4;"></path><path class="link" d="M10,310.0956638784732C387.5,310.0956638784732 387.5,438.1203730410537 765,438.1203730410537" style="stroke-width: 1; fill: none; stroke: rgb(191, 142, 105); stroke-opacity: 0.4;"></path><path class="link" d="M10,403.38188635708104C387.5,403.38188635708104 387.5,404.1322949716373 765,404.1322949716373" style="stroke-width: 1; fill: none; stroke: rgb(105, 191, 154); stroke-opacity: 0.4;"></path><path class="link" d="M10,403.44726468608786C387.5,403.44726468608786 387.5,469.55869627920384 765,469.55869627920384" style="stroke-width: 1; fill: none; stroke: rgb(105, 191, 154); stroke-opacity: 0.4;"></path><path class="link" d="M10,434.2971829631766C387.5,434.2971829631766 387.5,258.9770214402462 765,258.9770214402462" style="stroke-width: 1; fill: none; stroke: rgb(130, 191, 105); stroke-opacity: 0.4;"></path><path class="link" d="M10,403.25112969906735C387.5,403.25112969906735 387.5,333.2410345159119 765,333.2410345159119" style="stroke-width: 1; fill: none; stroke: rgb(105, 191, 154); stroke-opacity: 0.4;"></path><path class="link" d="M10,403.4145755215844C387.5,403.4145755215844 387.5,416.51860398038644 765,416.51860398038644" style="stroke-width: 1; fill: none; stroke: rgb(105, 191, 154); stroke-opacity: 0.4;"></path><path class="link" d="M10,434.5260071147005C387.5,434.5260071147005 387.5,404.32842995865775 765,404.32842995865775" style="stroke-width: 1; fill: none; stroke: rgb(130, 191, 105); stroke-opacity: 0.4;"></path><path class="link" d="M10,454.82020959523123C387.5,454.82020959523123 387.5,153.32852610325932 765,153.32852610325932" style="stroke-width: 1; fill: none; stroke: rgb(105, 191, 191); stroke-opacity: 0.4;"></path><path class="link" d="M10,484.98365541774837C387.5,484.98365541774837 387.5,259.1077780982598 765,259.1077780982598" style="stroke-width: 1; fill: none; stroke: rgb(105, 154, 191); stroke-opacity: 0.4;"></path><path class="link" d="M10,363.1472935294683C387.5,363.1472935294683 387.5,489.885587924238 765,489.885587924238" style="stroke-width: 1; fill: none; stroke: rgb(166, 191, 105); stroke-opacity: 0.4;"></path><path class="link" d="M10,413.47995385059124C387.5,413.47995385059124 387.5,153.06701278723202 765,153.06701278723202" style="stroke-width: 1; fill: none; stroke: rgb(105, 117, 191); stroke-opacity: 0.4;"></path><path class="link" d="M10,434.2644937986732C387.5,434.2644937986732 387.5,153.09970195173543 765,153.09970195173543" style="stroke-width: 1; fill: none; stroke: rgb(130, 191, 105); stroke-opacity: 0.4;"></path><path class="link" d="M10,413.8395346601288C387.5,413.8395346601288 387.5,427.5319680799923 765,427.5319680799923" style="stroke-width: 1; fill: none; stroke: rgb(105, 117, 191); stroke-opacity: 0.4;"></path><path class="link" d="M10,413.8068454956254C387.5,413.8068454956254 387.5,354.71493125660993 765,354.71493125660993" style="stroke-width: 1; fill: none; stroke: rgb(105, 117, 191); stroke-opacity: 0.4;"></path><path class="link" d="M10,245.5374483222767C387.5,245.5374483222767 387.5,448.54533217959806 765,448.54533217959806" style="stroke-width: 1; fill: none; stroke: rgb(191, 179, 105); stroke-opacity: 0.4;"></path><path class="link" d="M10,444.7875204307278C387.5,444.7875204307278 387.5,333.27372368041534 765,333.27372368041534" style="stroke-width: 1; fill: none; stroke: rgb(130, 105, 191); stroke-opacity: 0.4;"></path><path class="link" d="M10,474.9509662532449C387.5,474.9509662532449 387.5,153.36121526776273 765,153.36121526776273" style="stroke-width: 1; fill: none; stroke: rgb(166, 105, 191); stroke-opacity: 0.4;"></path><path class="link" d="M10,424.0683588116527C387.5,424.0683588116527 387.5,375.404288049226 765,375.404288049226" style="stroke-width: 1; fill: none; stroke: rgb(191, 105, 179); stroke-opacity: 0.4;"></path><path class="link" d="M10,392.5646572444957C387.5,392.5646572444957 387.5,489.91827708874143 765,489.91827708874143" style="stroke-width: 1; fill: none; stroke: rgb(105, 191, 117); stroke-opacity: 0.4;"></path><path class="link" d="M10,309.99759638496295C387.5,309.99759638496295 387.5,415.7013748678011 765,415.7013748678011" style="stroke-width: 1; fill: none; stroke: rgb(191, 142, 105); stroke-opacity: 0.4;"></path><path class="link" d="M10,464.9182770887415C387.5,464.9182770887415 387.5,259.0750889337564 765,259.0750889337564" style="stroke-width: 1; fill: none; stroke: rgb(191, 105, 142); stroke-opacity: 0.4;"></path></g><g><g class="node" transform="translate(765,163.37755985001445)"><rect height="95.74656283049706" width="10" style="fill: rgb(102, 102, 102);"><title>A
2,929</title></rect><text x="-6" y="47.87328141524853" dy=".35em" text-anchor="end" style="font-size: 11px; font-family: Arial, Helvetica; pointer-events: none;">A</text></g><g class="node" transform="translate(765,2.842170943040401e-14)"><rect height="153.37755985001442" width="10" style="fill: rgb(102, 102, 102);"><title>AD
4,692</title></rect><text x="-6" y="76.68877992500721" dy=".35em" text-anchor="end" style="font-size: 11px; font-family: Arial, Helvetica; pointer-events: none;">AD</text></g><g class="node" transform="translate(765,385.4206326314777)"><rect height="5.753292952600711" width="10" style="fill: rgb(102, 102, 102);"><title>ADE
176</title></rect><text x="-6" y="2.8766464763003556" dy=".35em" text-anchor="end" style="font-size: 11px; font-family: Arial, Helvetica; pointer-events: none;">ADE</text></g><g class="node" transform="translate(765,448.3001634458225)"><rect height="0.49033746755119695" width="10" style="fill: rgb(102, 102, 102);"><title>ADET
15</title></rect><text x="-6" y="0.24516873377559847" dy=".35em" text-anchor="end" style="font-size: 11px; font-family: Arial, Helvetica; pointer-events: none;">ADET</text></g><g class="node" transform="translate(765,499.9346216709931)"><rect height="0.06537832900682626" width="10" style="fill: rgb(102, 102, 102);"><title>ADETE
2</title></rect><text x="-6" y="0.03268916450341313" dy=".35em" text-anchor="end" style="font-size: 11px; font-family: Arial, Helvetica; pointer-events: none;">ADETE</text></g><g class="node" transform="translate(765,309.65580232669936)"><rect height="23.634265935967694" width="10" style="fill: rgb(102, 102, 102);"><title>ADT
723</title></rect><text x="-6" y="11.817132967983847" dy=".35em" text-anchor="end" style="font-size: 11px; font-family: Arial, Helvetica; pointer-events: none;">ADT</text></g><g class="node" transform="translate(765,489.8038650129795)"><rect height="0.13075665801365252" width="10" style="fill: rgb(102, 102, 102);"><title>ADTE
4</title></rect><text x="-6" y="0.06537832900682626" dy=".35em" text-anchor="end" style="font-size: 11px; font-family: Arial, Helvetica; pointer-events: none;">ADTE</text></g><g class="node" transform="translate(765,343.29006826266703)"><rect height="11.539275069704836" width="10" style="fill: rgb(102, 102, 102);"><title>AE
353</title></rect><text x="-6" y="5.769637534852418" dy=".35em" text-anchor="end" style="font-size: 11px; font-family: Arial, Helvetica; pointer-events: none;">AE</text></g><g class="node" transform="translate(765,364.8293433323719)"><rect height="10.591289299105854" width="10" style="fill: rgb(102, 102, 102);"><title>AED
324</title></rect><text x="-6" y="5.295644649552927" dy=".35em" text-anchor="end" style="font-size: 11px; font-family: Arial, Helvetica; pointer-events: none;">AED</text></g><g class="node" transform="translate(765,414.3447745409095)"><rect height="2.1901740217286796" width="10" style="fill: rgb(102, 102, 102);"><title>AEDE
67</title></rect><text x="-6" y="1.0950870108643398" dy=".35em" text-anchor="end" style="font-size: 11px; font-family: Arial, Helvetica; pointer-events: none;">AEDE</text></g><g class="node" transform="translate(765,479.5750408614556)"><rect height="0.2288241515238919" width="10" style="fill: rgb(102, 102, 102);"><title>AEDET
7</title></rect><text x="-6" y="0.11441207576194595" dy=".35em" text-anchor="end" style="font-size: 11px; font-family: Arial, Helvetica; pointer-events: none;">AEDET</text></g><g class="node" transform="translate(765,437.5810018267474)"><rect height="0.7191616190750889" width="10" style="fill: rgb(102, 102, 102);"><title>AEDT
22</title></rect><text x="-6" y="0.35958080953754445" dy=".35em" text-anchor="end" style="font-size: 11px; font-family: Arial, Helvetica; pointer-events: none;">AEDT</text></g><g class="node" transform="translate(765,401.1739255840784)"><rect height="3.170848956831074" width="10" style="fill: rgb(102, 102, 102);"><title>AET
97</title></rect><text x="-6" y="1.585424478415537" dy=".35em" text-anchor="end" style="font-size: 11px; font-family: Arial, Helvetica; pointer-events: none;">AET</text></g><g class="node" transform="translate(765,458.79050091337365)"><rect height="0.4576483030477838" width="10" style="fill: rgb(102, 102, 102);"><title>AETE
14</title></rect><text x="-6" y="0.2288241515238919" dy=".35em" text-anchor="end" style="font-size: 11px; font-family: Arial, Helvetica; pointer-events: none;">AETE</text></g><g class="node" transform="translate(765,269.1241226805115)"><rect height="30.531679646187865" width="10" style="fill: rgb(102, 102, 102);"><title>AT
934</title></rect><text x="-6" y="15.265839823093932" dy=".35em" text-anchor="end" style="font-size: 11px; font-family: Arial, Helvetica; pointer-events: none;">AT</text></g><g class="node" transform="translate(765,469.24814921642144)"><rect height="0.3268916450341313" width="10" style="fill: rgb(102, 102, 102);"><title>ATD
10</title></rect><text x="-6" y="0.16344582251706566" dy=".35em" text-anchor="end" style="font-size: 11px; font-family: Arial, Helvetica; pointer-events: none;">ATD</text></g><g class="node" transform="translate(765,426.5349485626382)"><rect height="1.0460532641092202" width="10" style="fill: rgb(102, 102, 102);"><title>ATE
32</title></rect><text x="-6" y="0.5230266320546101" dy=".35em" text-anchor="end" style="font-size: 11px; font-family: Arial, Helvetica; pointer-events: none;">ATE</text></g><g class="node" transform="translate(0,484.9673108354967)"><rect height="0.03268916450341313" width="10"><title>Architecture
1</title></rect><text x="16" y="0.016344582251706565" dy=".35em" text-anchor="start" style="font-size: 11px; font-family: Arial, Helvetica; pointer-events: none;">Architecture</text></g><g class="node" transform="translate(0,454.80386501297954)"><rect height="0.09806749351023938" width="10"><title>Architecture intérieure
3</title></rect><text x="16" y="0.04903374675511969" dy=".35em" text-anchor="start" style="font-size: 11px; font-family: Arial, Helvetica; pointer-events: none;">Architecture intérieure</text></g><g class="node" transform="translate(0,474.93462167099324)"><rect height="0.03268916450341313" width="10"><title>Design graphique
1</title></rect><text x="16" y="0.016344582251706565" dy=".35em" text-anchor="start" style="font-size: 11px; font-family: Arial, Helvetica; pointer-events: none;">Design graphique</text></g><g class="node" transform="translate(0,255.5537929045284)"><rect height="55.048553023747715" width="10"><title>Dessin
1,684</title></rect><text x="16" y="27.524276511873857" dy=".35em" text-anchor="start" style="font-size: 11px; font-family: Arial, Helvetica; pointer-events: none;">Dessin</text></g><g class="node" transform="translate(0,464.9019325064898)"><rect height="0.03268916450341313" width="10"><title>Domaine mixte- voir détail sur les éléments
1</title></rect><text x="16" y="0.016344582251706565" dy=".35em" text-anchor="start" style="font-size: 11px; font-family: Arial, Helvetica; pointer-events: none;">Domaine mixte- voir détail sur les éléments</text></g><g class="node" transform="translate(0,188.7727141620998)"><rect height="56.781078742428605" width="10"><title>Estampe
1,737</title></rect><text x="16" y="28.390539371214302" dy=".35em" text-anchor="start" style="font-size: 11px; font-family: Arial, Helvetica; pointer-events: none;">Estampe</text></g><g class="node" transform="translate(0,402.5810018267474)"><rect height="0.8826074415921545" width="10"><title>Objet
27</title></rect><text x="16" y="0.44130372079607727" dy=".35em" text-anchor="start" style="font-size: 11px; font-family: Arial, Helvetica; pointer-events: none;">Objet</text></g><g class="node" transform="translate(0,373.22901644072687)"><rect height="19.351985386020573" width="10"><title>Objet/Design
592</title></rect><text x="16" y="9.675992693010286" dy=".35em" text-anchor="start" style="font-size: 11px; font-family: Arial, Helvetica; pointer-events: none;">Objet/Design</text></g><g class="node" transform="translate(0,434.2481492164215)"><rect height="0.3268916450341313" width="10"><title>Oeuvre en 3 dimensions
10</title></rect><text x="16" y="0.16344582251706566" dy=".35em" text-anchor="start" style="font-size: 11px; font-family: Arial, Helvetica; pointer-events: none;">Oeuvre en 3 dimensions</text></g><g class="node" transform="translate(0,413.46360926833955)"><rect height="0.39226997404095754" width="10"><title>Oeuvre textile
12</title></rect><text x="16" y="0.19613498702047877" dy=".35em" text-anchor="start" style="font-size: 11px; font-family: Arial, Helvetica; pointer-events: none;">Oeuvre textile</text></g><g class="node" transform="translate(0,15)"><rect height="163.7727141620998" width="10"><title>Peinture
5,010</title></rect><text x="16" y="81.8863570810499" dy=".35em" text-anchor="start" style="font-size: 11px; font-family: Arial, Helvetica; pointer-events: none;">Peinture</text></g><g class="node" transform="translate(0,423.8558792423805)"><rect height="0.39226997404095754" width="10"><title>Photographie
12</title></rect><text x="16" y="0.19613498702047877" dy=".35em" text-anchor="start" style="font-size: 11px; font-family: Arial, Helvetica; pointer-events: none;">Photographie</text></g><g class="node" transform="translate(0,444.57504086145565)"><rect height="0.2288241515238919" width="10"><title>Publication- livre- reliure
7</title></rect><text x="16" y="0.11441207576194595" dy=".35em" text-anchor="start" style="font-size: 11px; font-family: Arial, Helvetica; pointer-events: none;">Publication- livre- reliure</text></g><g class="node" transform="translate(0,320.6023459282761)"><rect height="42.62667051245072" width="10"><title>Sculpture
1,304</title></rect><text x="16" y="21.31333525622536" dy=".35em" text-anchor="start" style="font-size: 11px; font-family: Arial, Helvetica; pointer-events: none;">Sculpture</text></g></g></g></svg>