<svg width="847" height="500" xmlns="http://www.w3.org/2000/svg" version="1.1"><g><g class="x axis" transform="translate(0,480)" style="stroke-width: 1px; font-size: 10px; font-family: Arial, Helvetica;"><g class="tick" transform="translate(0,0)" style="opacity: 1;"><line y2="-480" x2="0" style="shape-rendering: crispEdges; fill: none; stroke: rgb(204, 204, 204);"></line><text y="3" x="0" dy=".71em" style="text-anchor: middle;">1,980</text></g><g class="tick" transform="translate(117.6388888888889,0)" style="opacity: 1;"><line y2="-480" x2="0" style="shape-rendering: crispEdges; fill: none; stroke: rgb(204, 204, 204);"></line><text y="3" x="0" dy=".71em" style="text-anchor: middle;">1,985</text></g><g class="tick" transform="translate(235.2777777777778,0)" style="opacity: 1;"><line y2="-480" x2="0" style="shape-rendering: crispEdges; fill: none; stroke: rgb(204, 204, 204);"></line><text y="3" x="0" dy=".71em" style="text-anchor: middle;">1,990</text></g><g class="tick" transform="translate(352.91666666666663,0)" style="opacity: 1;"><line y2="-480" x2="0" style="shape-rendering: crispEdges; fill: none; stroke: rgb(204, 204, 204);"></line><text y="3" x="0" dy=".71em" style="text-anchor: middle;">1,995</text></g><g class="tick" transform="translate(470.5555555555556,0)" style="opacity: 1;"><line y2="-480" x2="0" style="shape-rendering: crispEdges; fill: none; stroke: rgb(204, 204, 204);"></line><text y="3" x="0" dy=".71em" style="text-anchor: middle;">2,000</text></g><g class="tick" transform="translate(588.1944444444445,0)" style="opacity: 1;"><line y2="-480" x2="0" style="shape-rendering: crispEdges; fill: none; stroke: rgb(204, 204, 204);"></line><text y="3" x="0" dy=".71em" style="text-anchor: middle;">2,005</text></g><g class="tick" transform="translate(705.8333333333333,0)" style="opacity: 1;"><line y2="-480" x2="0" style="shape-rendering: crispEdges; fill: none; stroke: rgb(204, 204, 204);"></line><text y="3" x="0" dy=".71em" style="text-anchor: middle;">2,010</text></g><g class="tick" transform="translate(823.4722222222222,0)" style="opacity: 1;"><line y2="-480" x2="0" style="shape-rendering: crispEdges; fill: none; stroke: rgb(204, 204, 204);"></line><text y="3" x="0" dy=".71em" style="text-anchor: middle;">2,015</text></g><path class="domain" d="M0,-480V0H847V-480" style="shape-rendering: crispEdges; fill: none; stroke: rgb(204, 204, 204);"></path></g><path class="layer" d="M0,480L23.527777777777775,288.00000000000006L47.05555555555555,307.20000000000005L70.58333333333333,150.69767441860472L94.1111111111111,34.69879518072298L117.6388888888889,82.75862068965529L141.16666666666666,255.483870967742L164.69444444444443,220.00000000000006L188.2222222222222,181.99052132701428L211.75,209.74789915966392L235.2777777777778,259.3788819875777L258.80555555555554,387.94520547945206L282.3333333333333,342.8571428571429L305.8611111111111,262.8571428571429L329.38888888888886,399.15789473684214L352.91666666666663,216.86746987951813L376.4444444444444,310L399.97222222222223,404.2105263157895L423.5,347.8441558441559L447.02777777777777,369.5238095238096L470.5555555555556,225.63192904656324L494.08333333333326,295.74193548387103L517.6111111111111,415.6213017751479L541.1388888888888,335.7446808510639L564.6666666666666,305.68274259151656L588.1944444444445,396.47058823529414L611.7222222222222,289.0140845070423L635.25,310.3614457831326L658.7777777777777,373.33333333333337L682.3055555555554,330.9251101321586L705.8333333333333,354.46153846153845L729.3611111111111,373.50993377483445L752.8888888888888,316.9377990430622L776.4166666666666,243.71772805507752L799.9444444444445,303.36798336798336L823.4722222222222,334.76014760147604L847,298.082191780822L847,480L823.4722222222222,480L799.9444444444445,480L776.4166666666666,480L752.8888888888888,480L729.3611111111111,480L705.8333333333333,480L682.3055555555554,480L658.7777777777777,480L635.25,480L611.7222222222222,480L588.1944444444445,480L564.6666666666666,480L541.1388888888888,480L517.6111111111111,480L494.08333333333326,480L470.5555555555556,480L447.02777777777777,480L423.5,480L399.97222222222223,480L376.4444444444444,480L352.91666666666663,480L329.38888888888886,480L305.8611111111111,480L282.3333333333333,480L258.80555555555554,480L235.2777777777778,480L211.75,480L188.2222222222222,480L164.69444444444443,480L141.16666666666666,480L117.6388888888889,480L94.1111111111111,480L70.58333333333333,480L47.05555555555555,480L23.527777777777775,480L0,480Z" title="domestique" style="fill: rgb(191, 105, 105);"></path><path class="layer" d="M0,411.42857142857144L23.527777777777775,144.00000000000006L47.05555555555555,172.80000000000007L70.58333333333333,39.06976744186056L94.1111111111111,11.56626506024105L117.6388888888889,49.655172413793196L141.16666666666666,46.45161290322591L164.69444444444443,40.000000000000114L188.2222222222222,84.17061611374419L211.75,112.94117647058835L235.2777777777778,146.08695652173918L258.80555555555554,269.5890410958905L282.3333333333333,187.01298701298708L305.8611111111111,194.28571428571433L329.38888888888886,343.57894736842104L352.91666666666663,118.55421686746996L376.4444444444444,128L399.97222222222223,261.0526315789474L423.5,270.5454545454546L447.02777777777777,326.66666666666674L470.5555555555556,135.1662971175167L494.08333333333326,196.64516129032262L517.6111111111111,316.21301775147936L541.1388888888888,225.95744680851067L564.6666666666666,95.94421847762942L588.1944444444445,297.6470588235295L611.7222222222222,183.38028169014092L635.25,213.97590361445788L658.7777777777777,231.36150234741794L682.3055555555554,176.5638766519824L705.8333333333333,249.49450549450555L729.3611111111111,262.2516556291391L752.8888888888888,197.51196172248808L776.4166666666666,40.48192771084348L799.9444444444445,97.79625779625786L823.4722222222222,142.58302583025835L847,191.78082191780828L847,298.082191780822L823.4722222222222,334.76014760147604L799.9444444444445,303.36798336798336L776.4166666666666,243.71772805507752L752.8888888888888,316.9377990430622L729.3611111111111,373.50993377483445L705.8333333333333,354.46153846153845L682.3055555555554,330.9251101321586L658.7777777777777,373.33333333333337L635.25,310.3614457831326L611.7222222222222,289.0140845070423L588.1944444444445,396.47058823529414L564.6666666666666,305.68274259151656L541.1388888888888,335.7446808510639L517.6111111111111,415.6213017751479L494.08333333333326,295.74193548387103L470.5555555555556,225.63192904656324L447.02777777777777,369.5238095238096L423.5,347.8441558441559L399.97222222222223,404.2105263157895L376.4444444444444,310L352.91666666666663,216.86746987951813L329.38888888888886,399.15789473684214L305.8611111111111,262.8571428571429L282.3333333333333,342.8571428571429L258.80555555555554,387.94520547945206L235.2777777777778,259.3788819875777L211.75,209.74789915966392L188.2222222222222,181.99052132701428L164.69444444444443,220.00000000000006L141.16666666666666,255.483870967742L117.6388888888889,82.75862068965529L94.1111111111111,34.69879518072298L70.58333333333333,150.69767441860472L47.05555555555555,307.20000000000005L23.527777777777775,288.00000000000006L0,480Z" title="import" style="fill: rgb(105, 191, 186);"></path><path class="layer" d="M0,360L23.527777777777775,144.00000000000006L47.05555555555555,115.2000000000001L70.58333333333333,33.48837209302337L94.1111111111111,11.56626506024105L117.6388888888889,49.655172413793196L141.16666666666666,30.967741935484014L164.69444444444443,40.000000000000114L188.2222222222222,81.89573459715649L211.75,96.80672268907574L235.2777777777778,113.29192546583863L258.80555555555554,256.43835616438366L282.3333333333333,162.07792207792215L305.8611111111111,175.2380952380953L329.38888888888886,318.3157894736843L352.91666666666663,112.77108433734946L376.4444444444444,124.00000000000006L399.97222222222223,252.6315789473685L423.5,248.10389610389615L447.02777777777777,278.0952380952382L470.5555555555556,128.78048780487813L494.08333333333326,184.25806451612908L517.6111111111111,220.59171597633144L541.1388888888888,181.2765957446809L564.6666666666666,89.80825101685082L588.1944444444445,257.6470588235295L611.7222222222222,163.09859154929586L635.25,166.74698795180728L658.7777777777777,190.0469483568076L682.3055555555554,155.94713656387665L705.8333333333333,208.3516483516484L729.3611111111111,170.06622516556297L752.8888888888888,73.49282296650728L776.4166666666666,31.394148020654086L799.9444444444445,88.81496881496889L823.4722222222222,100.95940959409603L847,153.42465753424665L847,191.78082191780828L823.4722222222222,142.58302583025835L799.9444444444445,97.79625779625786L776.4166666666666,40.48192771084348L752.8888888888888,197.51196172248808L729.3611111111111,262.2516556291391L705.8333333333333,249.49450549450555L682.3055555555554,176.5638766519824L658.7777777777777,231.36150234741794L635.25,213.97590361445788L611.7222222222222,183.38028169014092L588.1944444444445,297.6470588235295L564.6666666666666,95.94421847762942L541.1388888888888,225.95744680851067L517.6111111111111,316.21301775147936L494.08333333333326,196.64516129032262L470.5555555555556,135.1662971175167L447.02777777777777,326.66666666666674L423.5,270.5454545454546L399.97222222222223,261.0526315789474L376.4444444444444,128L352.91666666666663,118.55421686746996L329.38888888888886,343.57894736842104L305.8611111111111,194.28571428571433L282.3333333333333,187.01298701298708L258.80555555555554,269.5890410958905L235.2777777777778,146.08695652173918L211.75,112.94117647058835L188.2222222222222,84.17061611374419L164.69444444444443,40.000000000000114L141.16666666666666,46.45161290322591L117.6388888888889,49.655172413793196L94.1111111111111,11.56626506024105L70.58333333333333,39.06976744186056L47.05555555555555,172.80000000000007L23.527777777777775,144.00000000000006L0,411.42857142857144Z" title="export" style="fill: rgb(34, 148, 79);"></path><path class="layer" d="M0,291.42857142857144L23.527777777777775,1.1368683772161603e-13L47.05555555555555,1.1368683772161603e-13L70.58333333333333,1.1368683772161603e-13L94.1111111111111,1.1368683772161603e-13L117.6388888888889,1.1368683772161603e-13L141.16666666666666,1.1368683772161603e-13L164.69444444444443,1.1368683772161603e-13L188.2222222222222,1.1368683772161603e-13L211.75,1.1368683772161603e-13L235.2777777777778,2.981366459627452L258.80555555555554,1.1368683772161603e-13L282.3333333333333,6.233766233766346L305.8611111111111,7.6190476190477625L329.38888888888886,5.052631578947512L352.91666666666663,14.4578313253013L376.4444444444444,10.000000000000057L399.97222222222223,10.105263157894854L423.5,22.441558441558527L447.02777777777777,11.428571428571558L470.5555555555556,20.221729490022256L494.08333333333326,3.0967741935485265L517.6111111111111,106.03550295857997L541.1388888888888,35.74468085106389L564.6666666666666,3.625798954096581L588.1944444444445,27.05882352941188L611.7222222222222,6.760563380281781L635.25,21.204819277108527L658.7777777777777,22.535211267605746L682.3055555555554,14.273127753303982L705.8333333333333,34.81318681318692L729.3611111111111,63.57615894039748L752.8888888888888,22.966507177033634L776.4166666666666,5.783132530120554L799.9444444444445,8.981288981289083L823.4722222222222,21.254612546125543L847,15.34246575342479L847,153.42465753424665L823.4722222222222,100.95940959409603L799.9444444444445,88.81496881496889L776.4166666666666,31.394148020654086L752.8888888888888,73.49282296650728L729.3611111111111,170.06622516556297L705.8333333333333,208.3516483516484L682.3055555555554,155.94713656387665L658.7777777777777,190.0469483568076L635.25,166.74698795180728L611.7222222222222,163.09859154929586L588.1944444444445,257.6470588235295L564.6666666666666,89.80825101685082L541.1388888888888,181.2765957446809L517.6111111111111,220.59171597633144L494.08333333333326,184.25806451612908L470.5555555555556,128.78048780487813L447.02777777777777,278.0952380952382L423.5,248.10389610389615L399.97222222222223,252.6315789473685L376.4444444444444,124.00000000000006L352.91666666666663,112.77108433734946L329.38888888888886,318.3157894736843L305.8611111111111,175.2380952380953L282.3333333333333,162.07792207792215L258.80555555555554,256.43835616438366L235.2777777777778,113.29192546583863L211.75,96.80672268907574L188.2222222222222,81.89573459715649L164.69444444444443,40.000000000000114L141.16666666666666,30.967741935484014L117.6388888888889,49.655172413793196L94.1111111111111,11.56626506024105L70.58333333333333,33.48837209302337L47.05555555555555,115.2000000000001L23.527777777777775,144.00000000000006L0,360Z" title="" style="fill: rgb(255, 255, 255);"></path><path class="layer" d="M0,1.1368683772161603e-13L23.527777777777775,1.1368683772161603e-13L47.05555555555555,1.1368683772161603e-13L70.58333333333333,1.1368683772161603e-13L94.1111111111111,1.1368683772161603e-13L117.6388888888889,1.1368683772161603e-13L141.16666666666666,1.1368683772161603e-13L164.69444444444443,1.1368683772161603e-13L188.2222222222222,1.1368683772161603e-13L211.75,1.1368683772161603e-13L235.2777777777778,1.1368683772161603e-13L258.80555555555554,1.1368683772161603e-13L282.3333333333333,1.1368683772161603e-13L305.8611111111111,1.1368683772161603e-13L329.38888888888886,1.1368683772161603e-13L352.91666666666663,1.1368683772161603e-13L376.4444444444444,1.1368683772161603e-13L399.97222222222223,1.7053025658242404e-13L423.5,1.1368683772161603e-13L447.02777777777777,1.1368683772161603e-13L470.5555555555556,1.1368683772161603e-13L494.08333333333326,1.1368683772161603e-13L517.6111111111111,1.1368683772161603e-13L541.1388888888888,1.1368683772161603e-13L564.6666666666666,1.7053025658242404e-13L588.1944444444445,1.1368683772161603e-13L611.7222222222222,1.1368683772161603e-13L635.25,1.1368683772161603e-13L658.7777777777777,1.1368683772161603e-13L682.3055555555554,0L705.8333333333333,1.1368683772161603e-13L729.3611111111111,1.1368683772161603e-13L752.8888888888888,1.1368683772161603e-13L776.4166666666666,1.1368683772161603e-13L799.9444444444445,1.1368683772161603e-13L823.4722222222222,1.1368683772161603e-13L847,1.1368683772161603e-13L847,15.34246575342479L823.4722222222222,21.254612546125543L799.9444444444445,8.981288981289083L776.4166666666666,5.783132530120554L752.8888888888888,22.966507177033634L729.3611111111111,63.57615894039748L705.8333333333333,34.81318681318692L682.3055555555554,14.273127753303982L658.7777777777777,22.535211267605746L635.25,21.204819277108527L611.7222222222222,6.760563380281781L588.1944444444445,27.05882352941188L564.6666666666666,3.625798954096581L541.1388888888888,35.74468085106389L517.6111111111111,106.03550295857997L494.08333333333326,3.0967741935485265L470.5555555555556,20.221729490022256L447.02777777777777,11.428571428571558L423.5,22.441558441558527L399.97222222222223,10.105263157894854L376.4444444444444,10.000000000000057L352.91666666666663,14.4578313253013L329.38888888888886,5.052631578947512L305.8611111111111,7.6190476190477625L282.3333333333333,6.233766233766346L258.80555555555554,1.1368683772161603e-13L235.2777777777778,2.981366459627452L211.75,1.1368683772161603e-13L188.2222222222222,1.1368683772161603e-13L164.69444444444443,1.1368683772161603e-13L141.16666666666666,1.1368683772161603e-13L117.6388888888889,1.1368683772161603e-13L94.1111111111111,1.1368683772161603e-13L70.58333333333333,1.1368683772161603e-13L47.05555555555555,1.1368683772161603e-13L23.527777777777775,1.1368683772161603e-13L0,291.42857142857144Z" title="étranger" style="fill: rgb(174, 105, 191);"></path><text x="94.1111111111111" y="257.3493975903615" style="font-size: 11px; font-family: Arial, Helvetica;">domestique</text><text x="564.6666666666666" y="200.813480534573" style="font-size: 11px; font-family: Arial, Helvetica;">import</text><text x="752.8888888888888" y="135.50239234449765" style="font-size: 11px; font-family: Arial, Helvetica;">export</text><text x="329.38888888888886" y="161.68421052631584" style="font-size: 11px; font-family: Arial, Helvetica;"></text><text x="0" y="145.71428571428578" style="font-size: 11px; font-family: Arial, Helvetica;">étranger</text></g></svg>