<svg width="847" height="500" xmlns="http://www.w3.org/2000/svg" version="1.1"><g><g class="x axis" transform="translate(0,480)" style="stroke-width: 1px; font-size: 10px; font-family: Arial, Helvetica;"><g class="tick" transform="translate(0,0)" style="opacity: 1;"><line y2="-480" x2="0" style="shape-rendering: crispEdges; fill: none; stroke: rgb(204, 204, 204);"></line><text y="3" x="0" dy=".71em" style="text-anchor: middle;">1,980</text></g><g class="tick" transform="translate(117.6388888888889,0)" style="opacity: 1;"><line y2="-480" x2="0" style="shape-rendering: crispEdges; fill: none; stroke: rgb(204, 204, 204);"></line><text y="3" x="0" dy=".71em" style="text-anchor: middle;">1,985</text></g><g class="tick" transform="translate(235.2777777777778,0)" style="opacity: 1;"><line y2="-480" x2="0" style="shape-rendering: crispEdges; fill: none; stroke: rgb(204, 204, 204);"></line><text y="3" x="0" dy=".71em" style="text-anchor: middle;">1,990</text></g><g class="tick" transform="translate(352.91666666666663,0)" style="opacity: 1;"><line y2="-480" x2="0" style="shape-rendering: crispEdges; fill: none; stroke: rgb(204, 204, 204);"></line><text y="3" x="0" dy=".71em" style="text-anchor: middle;">1,995</text></g><g class="tick" transform="translate(470.5555555555556,0)" style="opacity: 1;"><line y2="-480" x2="0" style="shape-rendering: crispEdges; fill: none; stroke: rgb(204, 204, 204);"></line><text y="3" x="0" dy=".71em" style="text-anchor: middle;">2,000</text></g><g class="tick" transform="translate(588.1944444444445,0)" style="opacity: 1;"><line y2="-480" x2="0" style="shape-rendering: crispEdges; fill: none; stroke: rgb(204, 204, 204);"></line><text y="3" x="0" dy=".71em" style="text-anchor: middle;">2,005</text></g><g class="tick" transform="translate(705.8333333333333,0)" style="opacity: 1;"><line y2="-480" x2="0" style="shape-rendering: crispEdges; fill: none; stroke: rgb(204, 204, 204);"></line><text y="3" x="0" dy=".71em" style="text-anchor: middle;">2,010</text></g><g class="tick" transform="translate(823.4722222222222,0)" style="opacity: 1;"><line y2="-480" x2="0" style="shape-rendering: crispEdges; fill: none; stroke: rgb(204, 204, 204);"></line><text y="3" x="0" dy=".71em" style="text-anchor: middle;">2,015</text></g><path class="domain" d="M0,-480V0H847V-480" style="shape-rendering: crispEdges; fill: none; stroke: rgb(204, 204, 204);"></path></g><path class="layer" d="M0,478.8843695525857L23.527777777777775,477.7687391051714L47.05555555555555,475.53747821034284L70.58333333333333,457.96629866356767L94.1111111111111,457.40848343986056L117.6388888888889,472.46949447995354L141.16666666666666,446.80999418942474L164.69444444444443,473.30621731551423L188.2222222222222,429.7966298663568L211.75,454.0615920976177L235.2777777777778,448.4834398605462L258.80555555555554,466.61243463102846L282.3333333333333,466.61243463102846L305.8611111111111,459.081929110982L329.38888888888886,470.7960488088321L352.91666666666663,409.4363742010459L376.4444444444444,430.91226031377107L399.97222222222223,442.62638001162117L423.5,430.6333527019175L447.02777777777777,433.9802440441604L470.5555555555556,384.89250435793144L494.08333333333326,428.95990703079605L517.6111111111111,429.23881464264963L541.1388888888888,422.54503195816386L564.6666666666666,37.37361998837889L588.1944444444445,435.37478210342823L611.7222222222222,379.0354445090064L635.25,398.280069726903L658.7777777777777,383.21905868681L682.3055555555554,302.61475886112726L705.8333333333333,324.09064497385236L729.3611111111111,400.7902382335851L752.8888888888888,408.5996513654852L776.4166666666666,325.2062754212667L799.9444444444445,355.60720511330624L823.4722222222222,350.86577571179544L847,404.97385241138875L847,480L823.4722222222222,480L799.9444444444445,480L776.4166666666666,480L752.8888888888888,480L729.3611111111111,480L705.8333333333333,480L682.3055555555554,480L658.7777777777777,480L635.25,480L611.7222222222222,480L588.1944444444445,480L564.6666666666666,480L541.1388888888888,480L517.6111111111111,480L494.08333333333326,480L470.5555555555556,480L447.02777777777777,480L423.5,480L399.97222222222223,480L376.4444444444444,480L352.91666666666663,480L329.38888888888886,480L305.8611111111111,480L282.3333333333333,480L258.80555555555554,480L235.2777777777778,480L211.75,480L188.2222222222222,480L164.69444444444443,480L141.16666666666666,480L117.6388888888889,480L94.1111111111111,480L70.58333333333333,480L47.05555555555555,480L23.527777777777775,480L0,480Z" title="en France" style="fill: rgb(214, 133, 133);"></path><path class="layer" d="M0,473.30621731551423L23.527777777777775,477.7687391051714L47.05555555555555,474.7007553747821L70.58333333333333,457.68739105171414L94.1111111111111,457.40848343986056L117.6388888888889,472.46949447995354L141.16666666666666,445.69436374201047L164.69444444444443,473.30621731551423L188.2222222222222,429.5177222545032L211.75,452.94596165020334L235.2777777777778,445.1365485183033L258.80555555555554,466.0546194073213L282.3333333333333,465.2178965717606L305.8611111111111,457.129575828007L329.38888888888886,469.12260313771066L352.91666666666663,405.25276002324233L376.4444444444444,428.95990703079605L399.97222222222223,439.2794886693783L423.5,420.03486345148167L447.02777777777777,415.5723416618245L470.5555555555556,377.9198140615921L494.08333333333326,425.89192330040675L517.6111111111111,368.7158628704242L541.1388888888888,404.69494479953516L564.6666666666666,27.33294596165024L588.1944444444445,419.198140615921L611.7222222222222,369.83149331783846L635.25,377.9198140615921L658.7777777777777,355.8861127251598L682.3055555555554,283.3701336432307L705.8333333333333,282.81231841952354L729.3611111111111,343.89308541545614L752.8888888888888,369.83149331783846L776.4166666666666,320.1859384079024L799.9444444444445,350.58686809994185L823.4722222222222,330.5055200464846L847,391.02847181871005L847,404.97385241138875L823.4722222222222,350.86577571179544L799.9444444444445,355.60720511330624L776.4166666666666,325.2062754212667L752.8888888888888,408.5996513654852L729.3611111111111,400.7902382335851L705.8333333333333,324.09064497385236L682.3055555555554,302.61475886112726L658.7777777777777,383.21905868681L635.25,398.280069726903L611.7222222222222,379.0354445090064L588.1944444444445,435.37478210342823L564.6666666666666,37.37361998837889L541.1388888888888,422.54503195816386L517.6111111111111,429.23881464264963L494.08333333333326,428.95990703079605L470.5555555555556,384.89250435793144L447.02777777777777,433.9802440441604L423.5,430.6333527019175L399.97222222222223,442.62638001162117L376.4444444444444,430.91226031377107L352.91666666666663,409.4363742010459L329.38888888888886,470.7960488088321L305.8611111111111,459.081929110982L282.3333333333333,466.61243463102846L258.80555555555554,466.61243463102846L235.2777777777778,448.4834398605462L211.75,454.0615920976177L188.2222222222222,429.7966298663568L164.69444444444443,473.30621731551423L141.16666666666666,446.80999418942474L117.6388888888889,472.46949447995354L94.1111111111111,457.40848343986056L70.58333333333333,457.96629866356767L47.05555555555555,475.53747821034284L23.527777777777775,477.7687391051714L0,478.8843695525857Z" title="à l'étranger" style="fill: rgb(105, 191, 165);"></path><path class="layer" d="M0,472.19058686809996L23.527777777777775,477.2109238814643L47.05555555555555,473.02730970366065L70.58333333333333,456.0139453805927L94.1111111111111,456.8506682161534L117.6388888888889,471.9116792562464L141.16666666666666,445.4154561301569L164.69444444444443,473.30621731551423L188.2222222222222,421.150493898896L211.75,446.80999418942474L235.2777777777778,435.09587449157465L258.80555555555554,459.6397443346891L282.3333333333333,458.52411388727484L305.8611111111111,444.8576409064497L329.38888888888886,453.5037768739105L352.91666666666663,387.4026728646136L376.4444444444444,413.0621731551424L399.97222222222223,400.51133062173153L423.5,372.62056943637424L447.02777777777777,339.430563625799L470.5555555555556,354.2126670540383L494.08333333333326,393.5386403253922L517.6111111111111,338.59384079023823L541.1388888888888,375.1307379430564L564.6666666666666,0L588.1944444444445,366.205694363742L611.7222222222222,321.58047646717023L635.25,341.1040092969204L658.7777777777777,301.7780360255665L682.3055555555554,226.75188843695526L705.8333333333333,226.19407321324815L729.3611111111111,311.5398024404416L752.8888888888888,363.4166182452063L776.4166666666666,317.9546775130738L799.9444444444445,345.84543869843117L823.4722222222222,328.83207437536316L847,357.8384660081348L847,391.02847181871005L823.4722222222222,330.5055200464846L799.9444444444445,350.58686809994185L776.4166666666666,320.1859384079024L752.8888888888888,369.83149331783846L729.3611111111111,343.89308541545614L705.8333333333333,282.81231841952354L682.3055555555554,283.3701336432307L658.7777777777777,355.8861127251598L635.25,377.9198140615921L611.7222222222222,369.83149331783846L588.1944444444445,419.198140615921L564.6666666666666,27.33294596165024L541.1388888888888,404.69494479953516L517.6111111111111,368.7158628704242L494.08333333333326,425.89192330040675L470.5555555555556,377.9198140615921L447.02777777777777,415.5723416618245L423.5,420.03486345148167L399.97222222222223,439.2794886693783L376.4444444444444,428.95990703079605L352.91666666666663,405.25276002324233L329.38888888888886,469.12260313771066L305.8611111111111,457.129575828007L282.3333333333333,465.2178965717606L258.80555555555554,466.0546194073213L235.2777777777778,445.1365485183033L211.75,452.94596165020334L188.2222222222222,429.5177222545032L164.69444444444443,473.30621731551423L141.16666666666666,445.69436374201047L117.6388888888889,472.46949447995354L94.1111111111111,457.40848343986056L70.58333333333333,457.68739105171414L47.05555555555555,474.7007553747821L23.527777777777775,477.7687391051714L0,473.30621731551423Z" title="" style="fill: rgb(230, 230, 230);"></path><text x="564.6666666666666" y="258.68680999418945" style="font-size: 11px; font-family: Arial, Helvetica;">en France</text><text x="517.6111111111111" y="398.97733875653694" style="font-size: 11px; font-family: Arial, Helvetica;">à l'étranger</text><text x="447.02777777777777" y="377.5014526438117" style="font-size: 11px; font-family: Arial, Helvetica;"></text></g></svg>