<svg version="1.1" xmlns="http://www.w3.org/2000/svg" height="520" width="2000"><g transform="translate(0,10)"><g><path style="stroke-width: 460; fill: none; stroke: rgb(191, 105, 105); stroke-opacity: 0.4;" d="M1846.9230769230767,250C1918.461538461538,250 1918.461538461538,250 1989.9999999999998,250" class="link"></path><path style="stroke-width: 459.797; fill: none; stroke: rgb(191, 105, 105); stroke-opacity: 0.4;" d="M1693.8461538461538,244.89840989399292C1765.3846153846152,244.89840989399292 1765.3846153846152,249.89840989399292 1836.9230769230767,249.89840989399292" class="link"></path><path style="stroke-width: 459.492; fill: none; stroke: rgb(191, 105, 105); stroke-opacity: 0.4;" d="M1540.7692307692307,244.74602473498234C1612.3076923076924,244.74602473498234 1612.3076923076924,244.74602473498234 1683.8461538461538,244.74602473498234" class="link"></path><path style="stroke-width: 458.984; fill: none; stroke: rgb(191, 105, 105); stroke-opacity: 0.4;" d="M1387.6923076923076,239.49204946996466C1459.230769230769,239.49204946996466 1459.230769230769,244.49204946996466 1530.7692307692307,244.49204946996466" class="link"></path><path style="stroke-width: 457.765; fill: none; stroke: rgb(191, 105, 105); stroke-opacity: 0.4;" d="M1234.6153846153845,233.88250883392226C1306.1538461538462,233.88250883392226 1306.1538461538462,238.88250883392226 1377.6923076923076,238.88250883392226" class="link"></path><path style="stroke-width: 456.444; fill: none; stroke: rgb(191, 105, 105); stroke-opacity: 0.4;" d="M1081.5384615384614,233.22217314487634C1153.0769230769229,233.22217314487634 1153.0769230769229,233.22217314487634 1224.6153846153845,233.22217314487634" class="link"></path><path style="stroke-width: 452.787; fill: none; stroke: rgb(191, 105, 105); stroke-opacity: 0.4;" d="M928.4615384615383,236.39355123674912C999.9999999999999,236.39355123674912 999.9999999999999,231.39355123674912 1071.5384615384614,231.39355123674912" class="link"></path><path style="stroke-width: 442.831; fill: none; stroke: rgb(191, 105, 105); stroke-opacity: 0.4;" d="M775.3846153846154,221.4156360424028C846.9230769230769,221.4156360424028 846.9230769230769,231.41563604240284 918.4615384615383,231.41563604240284" class="link"></path><path style="stroke-width: 420.075; fill: none; stroke: rgb(191, 105, 105); stroke-opacity: 0.4;" d="M622.3076923076923,215.0375441696113C693.8461538461538,215.0375441696113 693.8461538461538,210.03754416961127 765.3846153846154,210.03754416961127" class="link"></path><path style="stroke-width: 378.118; fill: none; stroke: rgb(191, 105, 105); stroke-opacity: 0.4;" d="M10,194.05918727915193C81.53846153846153,194.05918727915193 81.53846153846153,204.05918727915196 153.07692307692307,204.05918727915196" class="link"></path><path style="stroke-width: 376.087; fill: none; stroke: rgb(191, 105, 105); stroke-opacity: 0.4;" d="M469.23076923076917,188.04328621908127C540.7692307692307,188.04328621908127 540.7692307692307,193.04328621908127 612.3076923076923,193.04328621908127" class="link"></path><path style="stroke-width: 256.515; fill: none; stroke: rgb(174, 105, 191); stroke-opacity: 0.4;" d="M163.07692307692307,143.25750883392226C234.61538461538458,143.25750883392226 234.61538461538458,128.2575088339223 306.15384615384613,128.2575088339223" class="link"></path><path style="stroke-width: 256.515; fill: none; stroke: rgb(191, 105, 105); stroke-opacity: 0.4;" d="M316.15384615384613,128.2575088339223C387.6923076923076,128.2575088339223 387.6923076923076,128.25750883392226 459.23076923076917,128.25750883392226" class="link"></path><path style="stroke-width: 166.1; fill: none; stroke: rgb(174, 105, 191); stroke-opacity: 0.4;" d="M163.07692307692307,354.56492932862193C234.61538461538458,354.56492932862193 234.61538461538458,349.56492932862193 306.15384615384613,349.56492932862193" class="link"></path><path style="stroke-width: 88.3834; fill: none; stroke: rgb(174, 191, 105); stroke-opacity: 0.4;" d="M316.15384615384613,310.70671378091873C387.6923076923076,310.70671378091873 387.6923076923076,300.70671378091873 459.23076923076917,300.70671378091873" class="link"></path><path style="stroke-width: 60.8525; fill: none; stroke: rgb(174, 191, 105); stroke-opacity: 0.4;" d="M316.15384615384613,385.32464664310953C387.6923076923076,385.32464664310953 387.6923076923076,416.5128091872791 459.23076923076917,416.5128091872791" class="link"></path><path style="stroke-width: 57.7032; fill: none; stroke: rgb(174, 191, 105); stroke-opacity: 0.4;" d="M10,421.96996466431096C81.53846153846153,421.96996466431096 81.53846153846153,421.96996466431096 153.07692307692307,421.96996466431096" class="link"></path><path style="stroke-width: 31.8993; fill: none; stroke: rgb(174, 191, 105); stroke-opacity: 0.4;" d="M469.23076923076917,402.03621908127207C540.7692307692307,402.03621908127207 540.7692307692307,397.03621908127207 612.3076923076923,397.03621908127207" class="link"></path><path style="stroke-width: 31.0866; fill: none; stroke: rgb(174, 105, 191); stroke-opacity: 0.4;" d="M163.07692307692307,453.15812720848055C234.61538461538458,453.15812720848055 234.61538461538458,458.86925795053 306.15384615384613,458.86925795053" class="link"></path><path style="stroke-width: 26.3118; fill: none; stroke: rgb(105, 191, 139); stroke-opacity: 0.4;" d="M316.15384615384613,456.48189045936397C387.6923076923076,456.48189045936397 387.6923076923076,358.05432862190816 459.23076923076917,358.05432862190816" class="link"></path><path style="stroke-width: 24.9912; fill: none; stroke: rgb(174, 191, 105); stroke-opacity: 0.4;" d="M469.23076923076917,430.48144876325085C540.7692307692307,430.48144876325085 540.7692307692307,447.57067137809184 612.3076923076923,447.57067137809184" class="link"></path><path style="stroke-width: 21.9435; fill: none; stroke: rgb(105, 191, 139); stroke-opacity: 0.4;" d="M10,473.0123674911661C81.53846153846153,473.0123674911661 81.53846153846153,461.79328621908127 153.07692307692307,461.79328621908127" class="link"></path><path style="stroke-width: 17.1687; fill: none; stroke: rgb(174, 191, 105); stroke-opacity: 0.4;" d="M622.3076923076923,443.6594522968198C693.8461538461538,443.6594522968198 693.8461538461538,428.6594522968198 765.3846153846154,428.6594522968198" class="link"></path><path style="stroke-width: 16.7624; fill: none; stroke: rgb(174, 191, 105); stroke-opacity: 0.4;" d="M316.15384615384613,424.13206713780914C387.6923076923076,424.13206713780914 387.6923076923076,469.5870141342756 459.23076923076917,469.5870141342756" class="link"></path><path style="stroke-width: 10.8701; fill: none; stroke: rgb(105, 191, 139); stroke-opacity: 0.4;" d="M469.23076923076917,466.64090106007063C540.7692307692307,466.64090106007063 540.7692307692307,418.42093639575967 612.3076923076923,418.42093639575967" class="link"></path><path style="stroke-width: 10.5654; fill: none; stroke: rgb(174, 191, 105); stroke-opacity: 0.4;" d="M622.3076923076923,457.5265017667844C693.8461538461538,457.5265017667844 693.8461538461538,458.1139575971731 765.3846153846154,458.1139575971731" class="link"></path><path style="stroke-width: 7.31449; fill: none; stroke: rgb(174, 191, 105); stroke-opacity: 0.4;" d="M469.23076923076917,446.63427561837455C540.7692307692307,446.63427561837455 540.7692307692307,480.2252650176678 612.3076923076923,480.2252650176678" class="link"></path><path style="stroke-width: 7.00972; fill: none; stroke: rgb(174, 191, 105); stroke-opacity: 0.4;" d="M775.3846153846154,456.3361307420494C846.9230769230769,456.3361307420494 846.9230769230769,456.3361307420495 918.4615384615383,456.3361307420495" class="link"></path><path style="stroke-width: 6.09541; fill: none; stroke: rgb(105, 191, 139); stroke-opacity: 0.4;" d="M469.23076923076917,475.12367491166077C540.7692307692307,475.12367491166077 540.7692307692307,463.1139575971731 612.3076923076923,463.1139575971731" class="link"></path><path style="stroke-width: 5.07951; fill: none; stroke: rgb(174, 105, 191); stroke-opacity: 0.4;" d="M163.07692307692307,471.2411660777385C234.61538461538458,471.2411660777385 234.61538461538458,486.952296819788 306.15384615384613,486.952296819788" class="link"></path><path style="stroke-width: 5.07951; fill: none; stroke: rgb(174, 191, 105); stroke-opacity: 0.4;" d="M775.3846153846154,462.38074204947C846.9230769230769,462.38074204947 846.9230769230769,475.32685512367493 918.4615384615383,475.32685512367493" class="link"></path><path style="stroke-width: 4.67314; fill: none; stroke: rgb(105, 191, 139); stroke-opacity: 0.4;" d="M622.3076923076923,478.9045936395759C693.8461538461538,478.9045936395759 693.8461538461538,439.5803886925794 765.3846153846154,439.5803886925794" class="link"></path><path style="stroke-width: 4.57155; fill: none; stroke: rgb(105, 139, 191); stroke-opacity: 0.4;" d="M316.15384615384613,486.6983215547703C387.6923076923076,486.6983215547703 387.6923076923076,373.49602473498237 459.23076923076917,373.49602473498237" class="link"></path><path style="stroke-width: 3.86042; fill: none; stroke: rgb(105, 191, 139); stroke-opacity: 0.4;" d="M316.15384615384613,471.56802120141344C387.6923076923076,471.56802120141344 387.6923076923076,448.86925795053 459.23076923076917,448.86925795053" class="link"></path><path style="stroke-width: 3.45406; fill: none; stroke: rgb(174, 191, 105); stroke-opacity: 0.4;" d="M622.3076923076923,464.53621908127207C693.8461538461538,464.53621908127207 693.8461538461538,477.7650176678445 765.3846153846154,477.7650176678445" class="link"></path><path style="stroke-width: 2.84452; fill: none; stroke: rgb(174, 191, 105); stroke-opacity: 0.4;" d="M928.4615384615383,474.2093639575972C999.9999999999999,474.2093639575972 999.9999999999999,459.2093639575972 1071.5384615384614,459.2093639575972" class="link"></path><path style="stroke-width: 2.64134; fill: none; stroke: rgb(105, 191, 139); stroke-opacity: 0.4;" d="M775.3846153846154,477.3586572438162C846.9230769230769,477.3586572438162 846.9230769230769,461.1616607773852 918.4615384615383,461.1616607773852" class="link"></path><path style="stroke-width: 2.53975; fill: none; stroke: rgb(105, 191, 139); stroke-opacity: 0.4;" d="M622.3076923076923,482.5110424028268C693.8461538461538,482.5110424028268 693.8461538461538,464.6665194346289 765.3846153846154,464.6665194346289" class="link"></path><path style="stroke-width: 2.53975; fill: none; stroke: rgb(174, 191, 105); stroke-opacity: 0.4;" d="M928.4615384615383,476.90150176678446C999.9999999999999,476.90150176678446 999.9999999999999,472.714222614841 1071.5384615384614,472.714222614841" class="link"></path><path style="stroke-width: 1.62544; fill: none; stroke: rgb(174, 191, 105); stroke-opacity: 0.4;" d="M1081.5384615384614,473.1713780918728C1153.0769230769229,473.1713780918728 1153.0769230769229,473.57773851590105 1224.6153846153845,473.57773851590105" class="link"></path><path style="stroke-width: 1.21908; fill: none; stroke: rgb(174, 191, 105); stroke-opacity: 0.4;" d="M10,451.43109540636044C81.53846153846153,451.43109540636044 81.53846153846153,484.39045936395763 153.07692307692307,484.39045936395763" class="link"></path><path style="stroke-width: 1.21908; fill: none; stroke: rgb(105, 139, 191); stroke-opacity: 0.4;" d="M469.23076923076917,488.88250883392226C540.7692307692307,488.88250883392226 540.7692307692307,424.4655477031802 612.3076923076923,424.4655477031802" class="link"></path><path style="stroke-width: 1.11749; fill: none; stroke: rgb(174, 191, 105); stroke-opacity: 0.4;" d="M775.3846153846154,465.47924028268545C846.9230769230769,465.47924028268545 846.9230769230769,489.33966431095405 918.4615384615383,489.33966431095405" class="link"></path><path style="stroke-width: 1.0159; fill: none; stroke: rgb(105, 139, 191); stroke-opacity: 0.4;" d="M10,494.4920494699647C81.53846153846153,494.4920494699647 81.53846153846153,473.27296819787983 153.07692307692307,473.27296819787983" class="link"></path><path style="stroke-width: 1.0159; fill: none; stroke: rgb(174, 191, 105); stroke-opacity: 0.4;" d="M1234.6153846153845,473.27296819787983C1306.1538461538462,473.27296819787983 1306.1538461538462,468.27296819787983 1377.6923076923076,468.27296819787983" class="link"></path><path style="stroke-width: 1; fill: none; stroke: rgb(105, 191, 139); stroke-opacity: 0.4;" d="M316.15384615384613,473.9553886925795C387.6923076923076,473.9553886925795 387.6923076923076,489.23807420494694 459.23076923076917,489.23807420494694" class="link"></path><path style="stroke-width: 1; fill: none; stroke: rgb(174, 191, 105); stroke-opacity: 0.4;" d="M469.23076923076917,450.74867491166077C540.7692307692307,450.74867491166077 540.7692307692307,494.4412544169611 612.3076923076923,494.4412544169611" class="link"></path><path style="stroke-width: 1; fill: none; stroke: rgb(105, 139, 191); stroke-opacity: 0.4;" d="M622.3076923076923,494.4412544169611C693.8461538461538,494.4412544169611 693.8461538461538,442.3741166077737 765.3846153846154,442.3741166077737" class="link"></path><path style="stroke-width: 1; fill: none; stroke: rgb(174, 191, 105); stroke-opacity: 0.4;" d="M1081.5384615384614,471.90150176678446C1153.0769230769229,471.90150176678446 1153.0769230769229,461.90150176678446 1224.6153846153845,461.90150176678446" class="link"></path><path style="stroke-width: 1; fill: none; stroke: rgb(105, 191, 139); stroke-opacity: 0.4;" d="M775.3846153846154,479.08568904593636C846.9230769230769,479.08568904593636 846.9230769230769,478.27296819787983 918.4615384615383,478.27296819787983" class="link"></path><path style="stroke-width: 1; fill: none; stroke: rgb(105, 191, 139); stroke-opacity: 0.4;" d="M928.4615384615383,489.18727915194347C999.9999999999999,489.18727915194347 999.9999999999999,461.0379858657244 1071.5384615384614,461.0379858657244" class="link"></path><path style="stroke-width: 1; fill: none; stroke: rgb(174, 191, 105); stroke-opacity: 0.4;" d="M163.07692307692307,484.13648409893995C234.61538461538458,484.13648409893995 234.61538461538458,432.970406360424 306.15384615384613,432.970406360424" class="link"></path><path style="stroke-width: 1; fill: none; stroke: rgb(174, 191, 105); stroke-opacity: 0.4;" d="M1234.6153846153845,474.0856890459364C1306.1538461538462,474.0856890459364 1306.1538461538462,479.2888692579505 1377.6923076923076,479.2888692579505" class="link"></path><path style="stroke-width: 1; fill: none; stroke: rgb(174, 191, 105); stroke-opacity: 0.4;" d="M163.07692307692307,484.74602473498237C234.61538461538458,484.74602473498237 234.61538461538458,499.7460247349823 306.15384615384613,499.7460247349823" class="link"></path><path style="stroke-width: 1; fill: none; stroke: rgb(174, 191, 105); stroke-opacity: 0.4;" d="M316.15384615384613,432.7672261484099C387.6923076923076,432.7672261484099 387.6923076923076,488.5269434628975 459.23076923076917,488.5269434628975" class="link"></path><path style="stroke-width: 1; fill: none; stroke: rgb(174, 191, 105); stroke-opacity: 0.4;" d="M928.4615384615383,478.42535335689047C999.9999999999999,478.42535335689047 999.9999999999999,484.6444346289753 1071.5384615384614,484.6444346289753" class="link"></path><path style="stroke-width: 1; fill: none; stroke: rgb(105, 139, 191); stroke-opacity: 0.4;" d="M316.15384615384613,489.18727915194347C387.6923076923076,489.18727915194347 387.6923076923076,451.00265017667846 459.23076923076917,451.00265017667846" class="link"></path><path style="stroke-width: 1; fill: none; stroke: rgb(105, 191, 139); stroke-opacity: 0.4;" d="M928.4615384615383,489.7968197879859C999.9999999999999,489.7968197879859 999.9999999999999,474.1872791519435 1071.5384615384614,474.1872791519435" class="link"></path><path style="stroke-width: 1; fill: none; stroke: rgb(105, 191, 139); stroke-opacity: 0.4;" d="M1081.5384615384614,484.5936395759718C1153.0769230769229,484.5936395759718 1153.0769230769229,462.5618374558304 1224.6153846153845,462.5618374558304" class="link"></path><path style="stroke-width: 1; fill: none; stroke: rgb(174, 191, 105); stroke-opacity: 0.4;" d="M1387.6923076923076,479.59363957597174C1459.230769230769,479.59363957597174 1459.230769230769,484.69522968197884 1530.7692307692307,484.69522968197884" class="link"></path><path style="stroke-width: 1; fill: none; stroke: rgb(174, 191, 105); stroke-opacity: 0.4;" d="M1387.6923076923076,479.18727915194347C1459.230769230769,479.18727915194347 1459.230769230769,474.18727915194347 1530.7692307692307,474.18727915194347" class="link"></path><path style="stroke-width: 1; fill: none; stroke: rgb(174, 191, 105); stroke-opacity: 0.4;" d="M316.15384615384613,433.1735865724381C387.6923076923076,433.1735865724381 387.6923076923076,499.84761484098937 459.23076923076917,499.84761484098937" class="link"></path><path style="stroke-width: 1; fill: none; stroke: rgb(174, 105, 191); stroke-opacity: 0.4;" d="M316.15384615384613,499.6444346289752C387.6923076923076,499.6444346289752 387.6923076923076,375.93418727915196 459.23076923076917,375.93418727915196" class="link"></path><path style="stroke-width: 1; fill: none; stroke: rgb(174, 105, 191); stroke-opacity: 0.4;" d="M469.23076923076917,499.84761484098937C540.7692307692307,499.84761484098937 540.7692307692307,466.41563604240275 612.3076923076923,466.41563604240275" class="link"></path><path style="stroke-width: 1; fill: none; stroke: rgb(105, 139, 191); stroke-opacity: 0.4;" d="M775.3846153846154,489.6444346289752C846.9230769230769,489.6444346289752 846.9230769230769,462.63471731448766 918.4615384615383,462.63471731448766" class="link"></path><path style="stroke-width: 1; fill: none; stroke: rgb(174, 191, 105); stroke-opacity: 0.4;" d="M1081.5384615384614,474.13648409893995C1153.0769230769229,474.13648409893995 1153.0769230769229,484.7460247349823 1224.6153846153845,484.7460247349823" class="link"></path><path style="stroke-width: 1; fill: none; stroke: rgb(174, 191, 105); stroke-opacity: 0.4;" d="M1540.7692307692307,484.64443462897526C1612.3076923076924,484.64443462897526 1612.3076923076924,474.64443462897526 1683.8461538461538,474.64443462897526" class="link"></path><path style="stroke-width: 1; fill: none; stroke: rgb(174, 105, 191); stroke-opacity: 0.4;" d="M316.15384615384613,499.8984098939929C387.6923076923076,499.8984098939929 387.6923076923076,478.1713780918728 459.23076923076917,478.1713780918728" class="link"></path><path style="stroke-width: 1; fill: none; stroke: rgb(174, 191, 105); stroke-opacity: 0.4;" d="M622.3076923076923,466.46643109540634C693.8461538461538,466.46643109540634 693.8461538461538,499.8984098939929 765.3846153846154,499.8984098939929" class="link"></path><path style="stroke-width: 1; fill: none; stroke: rgb(105, 191, 139); stroke-opacity: 0.4;" d="M622.3076923076923,483.8825088339222C693.8461538461538,483.8825088339222 693.8461538461538,489.69522968197873 765.3846153846154,489.69522968197873" class="link"></path><path style="stroke-width: 1; fill: none; stroke: rgb(174, 191, 105); stroke-opacity: 0.4;" d="M1234.6153846153845,474.4920494699646C1306.1538461538462,474.4920494699646 1306.1538461538462,489.8984098939929 1377.6923076923076,489.8984098939929" class="link"></path><path style="stroke-width: 1; fill: none; stroke: rgb(105, 191, 139); stroke-opacity: 0.4;" d="M1234.6153846153845,484.6952296819788C1306.1538461538462,484.6952296819788 1306.1538461538462,468.88250883392226 1377.6923076923076,468.88250883392226" class="link"></path><path style="stroke-width: 1; fill: none; stroke: rgb(174, 191, 105); stroke-opacity: 0.4;" d="M1540.7692307692307,484.89840989399295C1612.3076923076924,484.89840989399295 1612.3076923076924,484.8984098939929 1683.8461538461538,484.8984098939929" class="link"></path><path style="stroke-width: 1; fill: none; stroke: rgb(174, 191, 105); stroke-opacity: 0.4;" d="M1693.8461538461538,484.8984098939929C1765.3846153846152,484.8984098939929 1765.3846153846152,479.8984098939929 1836.9230769230767,479.8984098939929" class="link"></path><path style="stroke-width: 1; fill: none; stroke: rgb(105, 139, 191); stroke-opacity: 0.4;" d="M316.15384615384613,489.4412544169611C387.6923076923076,489.4412544169611 387.6923076923076,478.01899293286215 459.23076923076917,478.01899293286215" class="link"></path><path style="stroke-width: 1; fill: none; stroke: rgb(105, 191, 139); stroke-opacity: 0.4;" d="M469.23076923076917,478.2221731448763C540.7692307692307,478.2221731448763 540.7692307692307,494.9492049469964 612.3076923076923,494.9492049469964" class="link"></path><path style="stroke-width: 1; fill: none; stroke: rgb(105, 139, 191); stroke-opacity: 0.4;" d="M469.23076923076917,489.54284452296815C540.7692307692307,489.54284452296815 540.7692307692307,466.21245583038865 612.3076923076923,466.21245583038865" class="link"></path><path style="stroke-width: 1; fill: none; stroke: rgb(105, 139, 191); stroke-opacity: 0.4;" d="M469.23076923076917,489.6444346289752C540.7692307692307,489.6444346289752 540.7692307692307,483.9333038869257 612.3076923076923,483.9333038869257" class="link"></path><path style="stroke-width: 1; fill: none; stroke: rgb(174, 191, 105); stroke-opacity: 0.4;" d="M622.3076923076923,466.3140459363957C693.8461538461538,466.3140459363957 693.8461538461538,489.54284452296815 765.3846153846154,489.54284452296815" class="link"></path><path style="stroke-width: 1; fill: none; stroke: rgb(105, 139, 191); stroke-opacity: 0.4;" d="M622.3076923076923,494.9492049469964C693.8461538461538,494.9492049469964 693.8461538461538,465.9871908127208 765.3846153846154,465.9871908127208" class="link"></path><path style="stroke-width: 1; fill: none; stroke: rgb(174, 105, 191); stroke-opacity: 0.4;" d="M775.3846153846154,499.9492049469964C846.9230769230769,499.9492049469964 846.9230769230769,489.9492049469965 918.4615384615383,489.9492049469965" class="link"></path><path style="stroke-width: 1; fill: none; stroke: rgb(174, 105, 191); stroke-opacity: 0.4;" d="M775.3846153846154,499.84761484098937C846.9230769230769,499.84761484098937 846.9230769230769,478.7301236749117 918.4615384615383,478.7301236749117" class="link"></path><path style="stroke-width: 1; fill: none; stroke: rgb(174, 191, 105); stroke-opacity: 0.4;" d="M928.4615384615383,478.7301236749117C999.9999999999999,478.7301236749117 999.9999999999999,494.9492049469965 1071.5384615384614,494.9492049469965" class="link"></path><path style="stroke-width: 1; fill: none; stroke: rgb(174, 191, 105); stroke-opacity: 0.4;" d="M1081.5384615384614,474.3396643109541C1153.0769230769229,474.3396643109541 1153.0769230769229,494.9492049469965 1224.6153846153845,494.9492049469965" class="link"></path><path style="stroke-width: 1; fill: none; stroke: rgb(105, 191, 139); stroke-opacity: 0.4;" d="M1081.5384615384614,484.8476148409894C1153.0769230769229,484.8476148409894 1153.0769230769229,474.4412544169611 1224.6153846153845,474.4412544169611" class="link"></path><path style="stroke-width: 1; fill: none; stroke: rgb(174, 105, 191); stroke-opacity: 0.4;" d="M1081.5384615384614,494.9492049469965C1153.0769230769229,494.9492049469965 1153.0769230769229,474.5428445229682 1224.6153846153845,474.5428445229682" class="link"></path><path style="stroke-width: 1; fill: none; stroke: rgb(105, 191, 139); stroke-opacity: 0.4;" d="M1234.6153846153845,484.8476148409894C1306.1538461538462,484.8476148409894 1306.1538461538462,479.64443462897526 1377.6923076923076,479.64443462897526" class="link"></path><path style="stroke-width: 1; fill: none; stroke: rgb(174, 105, 191); stroke-opacity: 0.4;" d="M1234.6153846153845,494.9492049469965C1306.1538461538462,494.9492049469965 1306.1538461538462,479.7460247349823 1377.6923076923076,479.7460247349823" class="link"></path><path style="stroke-width: 1; fill: none; stroke: rgb(105, 191, 139); stroke-opacity: 0.4;" d="M1387.6923076923076,489.84761484098937C1459.230769230769,489.84761484098937 1459.230769230769,474.4412544169611 1530.7692307692307,474.4412544169611" class="link"></path><path style="stroke-width: 1; fill: none; stroke: rgb(105, 191, 139); stroke-opacity: 0.4;" d="M1387.6923076923076,489.9492049469964C1459.230769230769,489.9492049469964 1459.230769230769,484.9492049469965 1530.7692307692307,484.9492049469965" class="link"></path></g><g><g transform="translate(918.4615384615383,10)" class="node"><rect style="" width="10" height="452.78710247349824"><title>
4,457</title></rect><text style="font-size: 11px; font-family: Arial,Helvetica; pointer-events: none;" text-anchor="start" dy=".35em" y="226.39355123674912" x="16"></text></g><g transform="translate(918.4615384615383,488.7809187279152)" class="node"><rect style="" width="10" height="1.2190812720848057"><title>dernier dépot
12</title></rect><text style="font-size: 11px; font-family: Arial,Helvetica; pointer-events: none;" text-anchor="start" dy=".35em" y="0.6095406360424028" x="16">dernier dépot</text></g><g transform="translate(918.4615384615383,472.78710247349824)" class="node"><rect style="" width="10" height="5.993816254416961"><title>exposition
59</title></rect><text style="font-size: 11px; font-family: Arial,Helvetica; pointer-events: none;" text-anchor="start" dy=".35em" y="2.9969081272084805" x="16">exposition</text></g><g transform="translate(1071.5384615384614,5)" class="node"><rect style="" width="10" height="456.4443462897527"><title>
4,493</title></rect><text style="font-size: 11px; font-family: Arial,Helvetica; pointer-events: none;" text-anchor="end" dy=".35em" y="228.22217314487634" x="-6"></text></g><g transform="translate(1071.5384615384614,494.89840989399295)" class="node"><rect style="" width="10" height="0.10159010600706714"><title>acquisition
1</title></rect><text style="font-size: 11px; font-family: Arial,Helvetica; pointer-events: none;" text-anchor="end" dy=".35em" y="0.05079505300353357" x="-6">acquisition</text></g><g transform="translate(1071.5384615384614,484.39045936395763)" class="node"><rect style="" width="10" height="0.5079505300353357"><title>dernier dépot
5</title></rect><text style="font-size: 11px; font-family: Arial,Helvetica; pointer-events: none;" text-anchor="end" dy=".35em" y="0.2539752650176679" x="-6">dernier dépot</text></g><g transform="translate(1071.5384615384614,471.4443462897527)" class="node"><rect style="" width="10" height="2.946113074204947"><title>exposition
29</title></rect><text style="font-size: 11px; font-family: Arial,Helvetica; pointer-events: none;" text-anchor="end" dy=".35em" y="1.4730565371024735" x="-6">exposition</text></g><g transform="translate(1224.6153846153845,5)" class="node"><rect style="" width="10" height="457.7650176678445"><title>
4,506</title></rect><text style="font-size: 11px; font-family: Arial,Helvetica; pointer-events: none;" text-anchor="end" dy=".35em" y="228.88250883392226" x="-6"></text></g><g transform="translate(1224.6153846153845,494.89840989399295)" class="node"><rect style="" width="10" height="0.10159010600706714"><title>acquisition
1</title></rect><text style="font-size: 11px; font-family: Arial,Helvetica; pointer-events: none;" text-anchor="end" dy=".35em" y="0.05079505300353357" x="-6">acquisition</text></g><g transform="translate(1224.6153846153845,484.59363957597174)" class="node"><rect style="" width="10" height="0.3047703180212014"><title>dernier dépot
3</title></rect><text style="font-size: 11px; font-family: Arial,Helvetica; pointer-events: none;" text-anchor="end" dy=".35em" y="0.1523851590106007" x="-6">dernier dépot</text></g><g transform="translate(1224.6153846153845,472.7650176678445)" class="node"><rect style="" width="10" height="1.8286219081272086"><title>exposition
18</title></rect><text style="font-size: 11px; font-family: Arial,Helvetica; pointer-events: none;" text-anchor="end" dy=".35em" y="0.9143109540636043" x="-6">exposition</text></g><g transform="translate(1377.6923076923076,10)" class="node"><rect style="" width="10" height="458.9840989399293"><title>
4,518</title></rect><text style="font-size: 11px; font-family: Arial,Helvetica; pointer-events: none;" text-anchor="end" dy=".35em" y="229.49204946996466" x="-6"></text></g><g transform="translate(1377.6923076923076,489.79681978798584)" class="node"><rect style="" width="10" height="0.20318021201413428"><title>dernier dépot
2</title></rect><text style="font-size: 11px; font-family: Arial,Helvetica; pointer-events: none;" text-anchor="end" dy=".35em" y="0.10159010600706714" x="-6">dernier dépot</text></g><g transform="translate(1377.6923076923076,478.9840989399293)" class="node"><rect style="" width="10" height="0.8127208480565371"><title>exposition
8</title></rect><text style="font-size: 11px; font-family: Arial,Helvetica; pointer-events: none;" text-anchor="end" dy=".35em" y="0.40636042402826855" x="-6">exposition</text></g><g transform="translate(1530.7692307692307,15)" class="node"><rect style="" width="10" height="459.4920494699647"><title>
4,523</title></rect><text style="font-size: 11px; font-family: Arial,Helvetica; pointer-events: none;" text-anchor="end" dy=".35em" y="229.74602473498234" x="-6"></text></g><g transform="translate(1530.7692307692307,484.4920494699647)" class="node"><rect style="" width="10" height="0.5079505300353357"><title>exposition
5</title></rect><text style="font-size: 11px; font-family: Arial,Helvetica; pointer-events: none;" text-anchor="end" dy=".35em" y="0.2539752650176679" x="-6">exposition</text></g><g transform="translate(1683.8461538461538,15)" class="node"><rect style="" width="10" height="459.79681978798584"><title>
4,526</title></rect><text style="font-size: 11px; font-family: Arial,Helvetica; pointer-events: none;" text-anchor="end" dy=".35em" y="229.89840989399292" x="-6"></text></g><g transform="translate(1683.8461538461538,484.79681978798584)" class="node"><rect style="" width="10" height="0.20318021201413428"><title>exposition
2</title></rect><text style="font-size: 11px; font-family: Arial,Helvetica; pointer-events: none;" text-anchor="end" dy=".35em" y="0.10159010600706714" x="-6">exposition</text></g><g transform="translate(1836.9230769230767,20)" class="node"><rect style="" width="10" height="460"><title>
4,528</title></rect><text style="font-size: 11px; font-family: Arial,Helvetica; pointer-events: none;" text-anchor="end" dy=".35em" y="230" x="-6"></text></g><g transform="translate(1989.9999999999998,20)" class="node"><rect style="fill: rgb(102, 102, 102);" width="10" height="460"><title>
4,528</title></rect><text style="font-size: 11px; font-family: Arial,Helvetica; pointer-events: none;" text-anchor="end" dy=".35em" y="230" x="-6"></text></g><g transform="translate(0,4.999999999999972)" class="node"><rect style="" width="10" height="378.1183745583039"><title>
3,722</title></rect><text style="font-size: 11px; font-family: Arial,Helvetica; pointer-events: none;" text-anchor="start" dy=".35em" y="189.05918727915196" x="16"></text></g><g transform="translate(0,462.04063604240287)" class="node"><rect style="" width="10" height="21.9434628975265"><title>dernier dépot
216</title></rect><text style="font-size: 11px; font-family: Arial,Helvetica; pointer-events: none;" text-anchor="start" dy=".35em" y="10.97173144876325" x="16">dernier dépot</text></g><g transform="translate(0,393.1183745583039)" class="node"><rect style="" width="10" height="58.92226148409894"><title>exposition
580</title></rect><text style="font-size: 11px; font-family: Arial,Helvetica; pointer-events: none;" text-anchor="start" dy=".35em" y="29.46113074204947" x="16">exposition</text></g><g transform="translate(0,493.98409893992937)" class="node"><rect style="" width="10" height="1.0159010600706715"><title>transfert
10</title></rect><text style="font-size: 11px; font-family: Arial,Helvetica; pointer-events: none;" text-anchor="start" dy=".35em" y="0.5079505300353357" x="16">transfert</text></g><g transform="translate(153.07692307692307,15)" class="node"><rect style="" width="10" height="458.7809187279152"><title>acquisition
4,516</title></rect><text style="font-size: 11px; font-family: Arial,Helvetica; pointer-events: none;" text-anchor="start" dy=".35em" y="229.3904593639576" x="16">acquisition</text></g><g transform="translate(153.07692307692307,483.7809187279152)" class="node"><rect style="" width="10" height="1.2190812720848057"><title>exposition
12</title></rect><text style="font-size: 11px; font-family: Arial,Helvetica; pointer-events: none;" text-anchor="start" dy=".35em" y="0.6095406360424028" x="16">exposition</text></g><g transform="translate(306.15384615384613,2.842170943040401e-14)" class="node"><rect style="" width="10" height="256.5150176678445"><title>
2,525</title></rect><text style="font-size: 11px; font-family: Arial,Helvetica; pointer-events: none;" text-anchor="start" dy=".35em" y="128.25750883392226" x="16"></text></g><g transform="translate(306.15384615384613,499.4920494699646)" class="node"><rect style="" width="10" height="0.5079505300353357"><title>acquisition
5</title></rect><text style="font-size: 11px; font-family: Arial,Helvetica; pointer-events: none;" text-anchor="start" dy=".35em" y="0.2539752650176679" x="16">acquisition</text></g><g transform="translate(306.15384615384613,443.32597173144876)" class="node"><rect style="" width="10" height="31.086572438162545"><title>dernier dépot
306</title></rect><text style="font-size: 11px; font-family: Arial,Helvetica; pointer-events: none;" text-anchor="start" dy=".35em" y="15.543286219081272" x="16">dernier dépot</text></g><g transform="translate(306.15384615384613,266.5150176678445)" class="node"><rect style="" width="10" height="166.81095406360424"><title>exposition
1,642</title></rect><text style="font-size: 11px; font-family: Arial,Helvetica; pointer-events: none;" text-anchor="start" dy=".35em" y="83.40547703180212" x="16">exposition</text></g><g transform="translate(306.15384615384613,484.4125441696113)" class="node"><rect style="" width="10" height="5.079505300353357"><title>transfert
50</title></rect><text style="font-size: 11px; font-family: Arial,Helvetica; pointer-events: none;" text-anchor="start" dy=".35em" y="2.5397526501766783" x="16">transfert</text></g><g transform="translate(459.23076923076917,0)" class="node"><rect style="" width="10" height="376.08657243816253"><title>
3,702</title></rect><text style="font-size: 11px; font-family: Arial,Helvetica; pointer-events: none;" text-anchor="start" dy=".35em" y="188.04328621908127" x="16"></text></g><g transform="translate(459.23076923076917,499.6952296819788)" class="node"><rect style="" width="10" height="0.3047703180212014"><title>acquisition
3</title></rect><text style="font-size: 11px; font-family: Arial,Helvetica; pointer-events: none;" text-anchor="start" dy=".35em" y="0.1523851590106007" x="16">acquisition</text></g><g transform="translate(459.23076923076917,461.20583038869256)" class="node"><rect style="" width="10" height="17.06713780918728"><title>dernier dépot
168</title></rect><text style="font-size: 11px; font-family: Arial,Helvetica; pointer-events: none;" text-anchor="start" dy=".35em" y="8.53356890459364" x="16">dernier dépot</text></g><g transform="translate(459.23076923076917,386.08657243816253)" class="node"><rect style="" width="10" height="65.11925795053004"><title>exposition
641</title></rect><text style="font-size: 11px; font-family: Arial,Helvetica; pointer-events: none;" text-anchor="start" dy=".35em" y="32.55962897526502" x="16">exposition</text></g><g transform="translate(459.23076923076917,488.27296819787983)" class="node"><rect style="" width="10" height="1.4222614840989398"><title>transfert
14</title></rect><text style="font-size: 11px; font-family: Arial,Helvetica; pointer-events: none;" text-anchor="start" dy=".35em" y="0.7111307420494699" x="16">transfert</text></g><g transform="translate(612.3076923076923,5)" class="node"><rect style="" width="10" height="420.0750883392226"><title>
4,135</title></rect><text style="font-size: 11px; font-family: Arial,Helvetica; pointer-events: none;" text-anchor="start" dy=".35em" y="210.0375441696113" x="16"></text></g><g transform="translate(612.3076923076923,476.5680212014134)" class="node"><rect style="" width="10" height="7.416077738515901"><title>dernier dépot
73</title></rect><text style="font-size: 11px; font-family: Arial,Helvetica; pointer-events: none;" text-anchor="start" dy=".35em" y="3.7080388692579507" x="16">dernier dépot</text></g><g transform="translate(612.3076923076923,435.0750883392226)" class="node"><rect style="" width="10" height="31.492932862190813"><title>exposition
310</title></rect><text style="font-size: 11px; font-family: Arial,Helvetica; pointer-events: none;" text-anchor="start" dy=".35em" y="15.746466431095406" x="16">exposition</text></g><g transform="translate(612.3076923076923,493.9840989399293)" class="node"><rect style="" width="10" height="1.0159010600706715"><title>transfert
10</title></rect><text style="font-size: 11px; font-family: Arial,Helvetica; pointer-events: none;" text-anchor="start" dy=".35em" y="0.5079505300353357" x="16">transfert</text></g><g transform="translate(765.3846153846154,-2.842170943040401e-14)" class="node"><rect style="" width="10" height="442.8312720848057"><title>
4,359</title></rect><text style="font-size: 11px; font-family: Arial,Helvetica; pointer-events: none;" text-anchor="start" dy=".35em" y="221.41563604240284" x="16"></text></g><g transform="translate(765.3846153846154,499.79681978798584)" class="node"><rect style="" width="10" height="0.20318021201413428"><title>acquisition
2</title></rect><text style="font-size: 11px; font-family: Arial,Helvetica; pointer-events: none;" text-anchor="start" dy=".35em" y="0.10159010600706714" x="16">acquisition</text></g><g transform="translate(765.3846153846154,476.03798586572435)" class="node"><rect style="" width="10" height="3.454063604240283"><title>dernier dépot
34</title></rect><text style="font-size: 11px; font-family: Arial,Helvetica; pointer-events: none;" text-anchor="start" dy=".35em" y="1.7270318021201414" x="16">dernier dépot</text></g><g transform="translate(765.3846153846154,452.8312720848056)" class="node"><rect style="" width="10" height="13.206713780918728"><title>exposition
130</title></rect><text style="font-size: 11px; font-family: Arial,Helvetica; pointer-events: none;" text-anchor="start" dy=".35em" y="6.603356890459364" x="16">exposition</text></g><g transform="translate(765.3846153846154,489.4920494699646)" class="node"><rect style="" width="10" height="0.3047703180212014"><title>transfert
3</title></rect><text style="font-size: 11px; font-family: Arial,Helvetica; pointer-events: none;" text-anchor="start" dy=".35em" y="0.1523851590106007" x="16">transfert</text></g></g></g></svg>