<svg version="1.1" xmlns="http://www.w3.org/2000/svg" height="520" width="2000"><g transform="translate(0,10)"><g><path style="stroke-width: 459.863; fill: none; stroke: rgb(244, 239, 239); stroke-opacity: 0.4;" d="M1801,244.93150684931507C1895.5,244.93150684931507 1895.5,249.93150684931504 1990,249.93150684931504" class="link"></path><path style="stroke-width: 459.726; fill: none; stroke: rgb(244, 239, 239); stroke-opacity: 0.4;" d="M1602,244.86301369863014C1696.5,244.86301369863014 1696.5,244.86301369863014 1791,244.86301369863014" class="link"></path><path style="stroke-width: 459.589; fill: none; stroke: rgb(244, 239, 239); stroke-opacity: 0.4;" d="M1403,244.7945205479452C1497.5,244.7945205479452 1497.5,244.7945205479452 1592,244.7945205479452" class="link"></path><path style="stroke-width: 459.041; fill: none; stroke: rgb(244, 239, 239); stroke-opacity: 0.4;" d="M1204,239.5205479452055C1298.5,239.5205479452055 1298.5,244.5205479452055 1393,244.5205479452055" class="link"></path><path style="stroke-width: 456.575; fill: none; stroke: rgb(244, 239, 239); stroke-opacity: 0.4;" d="M1005,233.2876712328767C1099.5,233.2876712328767 1099.5,238.28767123287673 1194,238.28767123287673" class="link"></path><path style="stroke-width: 443.151; fill: none; stroke: rgb(244, 239, 239); stroke-opacity: 0.4;" d="M806,226.5753424657534C900.5,226.5753424657534 900.5,226.5753424657534 995,226.5753424657534" class="link"></path><path style="stroke-width: 412.466; fill: none; stroke: rgb(244, 239, 239); stroke-opacity: 0.4;" d="M607,211.2328767123288C701.5,211.2328767123288 701.5,211.23287671232876 796,211.23287671232876" class="link"></path><path style="stroke-width: 364.247; fill: none; stroke: rgb(244, 239, 239); stroke-opacity: 0.4;" d="M10,187.12328767123287C104.5,187.12328767123287 104.5,197.1232876712329 199,197.1232876712329" class="link"></path><path style="stroke-width: 332.329; fill: none; stroke: rgb(174, 105, 191); stroke-opacity: 0.4;" d="M209,181.16438356164386C303.5,181.16438356164386 303.5,166.16438356164383 398,166.16438356164383" class="link"></path><path style="stroke-width: 332.329; fill: none; stroke: rgb(244, 239, 239); stroke-opacity: 0.4;" d="M408,166.16438356164383C502.5,166.16438356164383 502.5,171.16438356164386 597,171.16438356164386" class="link"></path><path style="stroke-width: 67.8082; fill: none; stroke: rgb(174, 105, 191); stroke-opacity: 0.4;" d="M209,381.23287671232873C303.5,381.23287671232873 303.5,376.23287671232873 398,376.23287671232873" class="link"></path><path style="stroke-width: 54.1096; fill: none; stroke: rgb(174, 105, 191); stroke-opacity: 0.4;" d="M209,442.19178082191786C303.5,442.19178082191786 303.5,447.4657534246575 398,447.4657534246575" class="link"></path><path style="stroke-width: 49.0411; fill: none; stroke: rgb(174, 191, 105); stroke-opacity: 0.4;" d="M10,403.7671232876712C104.5,403.7671232876712 104.5,403.76712328767127 199,403.76712328767127" class="link"></path><path style="stroke-width: 46.3014; fill: none; stroke: rgb(174, 191, 105); stroke-opacity: 0.4;" d="M408,365.47945205479454C502.5,365.47945205479454 502.5,360.47945205479454 597,360.47945205479454" class="link"></path><path style="stroke-width: 44.9315; fill: none; stroke: rgb(105, 191, 139); stroke-opacity: 0.4;" d="M10,461.43835616438355C104.5,461.43835616438355 104.5,450.75342465753425 199,450.75342465753425" class="link"></path><path style="stroke-width: 29.1781; fill: none; stroke: rgb(105, 191, 139); stroke-opacity: 0.4;" d="M408,435C502.5,435 502.5,398.21917808219183 597,398.21917808219183" class="link"></path><path style="stroke-width: 24.7945; fill: none; stroke: rgb(174, 191, 105); stroke-opacity: 0.4;" d="M607,439.8630136986302C701.5,439.8630136986302 701.5,429.86301369863014 796,429.86301369863014" class="link"></path><path style="stroke-width: 24.5205; fill: none; stroke: rgb(105, 191, 139); stroke-opacity: 0.4;" d="M408,461.8493150684932C502.5,461.8493150684932 502.5,455.4794520547946 597,455.4794520547946" class="link"></path><path style="stroke-width: 15.7534; fill: none; stroke: rgb(174, 191, 105); stroke-opacity: 0.4;" d="M408,396.50684931506845C502.5,396.50684931506845 502.5,435.3424657534247 597,435.3424657534247" class="link"></path><path style="stroke-width: 14.5205; fill: none; stroke: rgb(174, 191, 105); stroke-opacity: 0.4;" d="M607,459.5205479452055C701.5,459.5205479452055 701.5,465.4109589041096 796,465.4109589041096" class="link"></path><path style="stroke-width: 12.3288; fill: none; stroke: rgb(174, 191, 105); stroke-opacity: 0.4;" d="M806,464.31506849315065C900.5,464.31506849315065 900.5,454.31506849315065 995,454.31506849315065" class="link"></path><path style="stroke-width: 5.47945; fill: none; stroke: rgb(174, 191, 105); stroke-opacity: 0.4;" d="M408,407.12328767123284C502.5,407.12328767123284 502.5,481.1643835616439 597,481.1643835616439" class="link"></path><path style="stroke-width: 5.06849; fill: none; stroke: rgb(174, 105, 191); stroke-opacity: 0.4;" d="M209,471.7808219178083C303.5,471.7808219178083 303.5,487.05479452054794 398,487.05479452054794" class="link"></path><path style="stroke-width: 5.06849; fill: none; stroke: rgb(105, 191, 139); stroke-opacity: 0.4;" d="M607,480.9589041095891C701.5,480.9589041095891 701.5,444.7945205479452 796,444.7945205479452" class="link"></path><path style="stroke-width: 4.65753; fill: none; stroke: rgb(105, 139, 191); stroke-opacity: 0.4;" d="M408,486.8493150684931C502.5,486.8493150684931 502.5,415.1369863013699 597,415.1369863013699" class="link"></path><path style="stroke-width: 2.46575; fill: none; stroke: rgb(174, 191, 105); stroke-opacity: 0.4;" d="M806,471.71232876712327C900.5,471.71232876712327 900.5,472.8082191780822 995,472.8082191780822" class="link"></path><path style="stroke-width: 2.19178; fill: none; stroke: rgb(174, 191, 105); stroke-opacity: 0.4;" d="M1005,472.67123287671234C1099.5,472.67123287671234 1099.5,467.6712328767124 1194,467.6712328767124" class="link"></path><path style="stroke-width: 1.36986; fill: none; stroke: rgb(174, 191, 105); stroke-opacity: 0.4;" d="M607,467.4657534246576C701.5,467.4657534246576 701.5,484.04109589041093 796,484.04109589041093" class="link"></path><path style="stroke-width: 1.09589; fill: none; stroke: rgb(105, 139, 191); stroke-opacity: 0.4;" d="M10,494.4520547945205C104.5,494.4520547945205 104.5,473.7671232876712 199,473.7671232876712" class="link"></path><path style="stroke-width: 1; fill: none; stroke: rgb(105, 191, 139); stroke-opacity: 0.4;" d="M806,483.83561643835617C900.5,483.83561643835617 900.5,460.958904109589 995,460.958904109589" class="link"></path><path style="stroke-width: 1; fill: none; stroke: rgb(105, 139, 191); stroke-opacity: 0.4;" d="M607,494.4520547945206C701.5,494.4520547945206 701.5,447.73972602739724 796,447.73972602739724" class="link"></path><path style="stroke-width: 1; fill: none; stroke: rgb(174, 191, 105); stroke-opacity: 0.4;" d="M10,428.6301369863014C104.5,428.6301369863014 104.5,484.6575342465753 199,484.6575342465753" class="link"></path><path style="stroke-width: 1; fill: none; stroke: rgb(174, 191, 105); stroke-opacity: 0.4;" d="M1005,474.1095890410959C1099.5,474.1095890410959 1099.5,479.3835616438356 1194,479.3835616438356" class="link"></path><path style="stroke-width: 1; fill: none; stroke: rgb(174, 191, 105); stroke-opacity: 0.4;" d="M408,410.13698630136986C502.5,410.13698630136986 502.5,494.31506849315076 597,494.31506849315076" class="link"></path><path style="stroke-width: 1; fill: none; stroke: rgb(105, 191, 139); stroke-opacity: 0.4;" d="M607,483.7671232876713C701.5,483.7671232876713 701.5,472.945205479452 796,472.945205479452" class="link"></path><path style="stroke-width: 1; fill: none; stroke: rgb(174, 191, 105); stroke-opacity: 0.4;" d="M209,484.7945205479452C303.5,484.7945205479452 303.5,499.79452054794524 398,499.79452054794524" class="link"></path><path style="stroke-width: 1; fill: none; stroke: rgb(105, 191, 139); stroke-opacity: 0.4;" d="M408,474.3150684931507C502.5,474.3150684931507 502.5,494.7945205479453 597,494.7945205479453" class="link"></path><path style="stroke-width: 1; fill: none; stroke: rgb(105, 139, 191); stroke-opacity: 0.4;" d="M408,489.3835616438356C502.5,489.3835616438356 502.5,467.9452054794521 597,467.9452054794521" class="link"></path><path style="stroke-width: 1; fill: none; stroke: rgb(105, 191, 139); stroke-opacity: 0.4;" d="M806,484.52054794520546C900.5,484.52054794520546 900.5,474.24657534246575 995,474.24657534246575" class="link"></path><path style="stroke-width: 1; fill: none; stroke: rgb(174, 191, 105); stroke-opacity: 0.4;" d="M1204,479.24657534246575C1298.5,479.24657534246575 1298.5,474.24657534246575 1393,474.24657534246575" class="link"></path><path style="stroke-width: 1; fill: none; stroke: rgb(174, 191, 105); stroke-opacity: 0.4;" d="M209,484.4520547945205C303.5,484.4520547945205 303.5,410.2739726027397 398,410.2739726027397" class="link"></path><path style="stroke-width: 1; fill: none; stroke: rgb(174, 105, 191); stroke-opacity: 0.4;" d="M408,499.7260273972603C502.5,499.7260273972603 502.5,468.28767123287673 597,468.28767123287673" class="link"></path><path style="stroke-width: 1; fill: none; stroke: rgb(174, 191, 105); stroke-opacity: 0.4;" d="M607,468.28767123287673C701.5,468.28767123287673 701.5,494.86301369863014 796,494.86301369863014" class="link"></path><path style="stroke-width: 1; fill: none; stroke: rgb(174, 191, 105); stroke-opacity: 0.4;" d="M806,473.08219178082186C900.5,473.08219178082186 900.5,484.7260273972602 995,484.7260273972602" class="link"></path><path style="stroke-width: 1; fill: none; stroke: rgb(174, 191, 105); stroke-opacity: 0.4;" d="M1204,479.58904109589037C1298.5,479.58904109589037 1298.5,484.7260273972602 1393,484.7260273972602" class="link"></path><path style="stroke-width: 1; fill: none; stroke: rgb(174, 191, 105); stroke-opacity: 0.4;" d="M1403,484.8630136986301C1497.5,484.8630136986301 1497.5,484.86301369863014 1592,484.86301369863014" class="link"></path><path style="stroke-width: 1; fill: none; stroke: rgb(174, 105, 191); stroke-opacity: 0.4;" d="M408,499.9315068493151C502.5,499.9315068493151 502.5,483.97260273972614 597,483.97260273972614" class="link"></path><path style="stroke-width: 1; fill: none; stroke: rgb(105, 139, 191); stroke-opacity: 0.4;" d="M607,494.93150684931516C701.5,494.93150684931516 701.5,473.28767123287673 796,473.28767123287673" class="link"></path><path style="stroke-width: 1; fill: none; stroke: rgb(174, 191, 105); stroke-opacity: 0.4;" d="M806,473.28767123287673C900.5,473.28767123287673 900.5,494.93150684931504 995,494.93150684931504" class="link"></path><path style="stroke-width: 1; fill: none; stroke: rgb(105, 139, 191); stroke-opacity: 0.4;" d="M806,494.9315068493151C900.5,494.9315068493151 900.5,474.52054794520546 995,474.52054794520546" class="link"></path><path style="stroke-width: 1; fill: none; stroke: rgb(105, 139, 191); stroke-opacity: 0.4;" d="M806,494.79452054794524C900.5,494.79452054794524 900.5,461.50684931506845 995,461.50684931506845" class="link"></path><path style="stroke-width: 1; fill: none; stroke: rgb(174, 191, 105); stroke-opacity: 0.4;" d="M1005,474.52054794520546C1099.5,474.52054794520546 1099.5,489.7945205479452 1194,489.7945205479452" class="link"></path><path style="stroke-width: 1; fill: none; stroke: rgb(105, 191, 139); stroke-opacity: 0.4;" d="M1005,494.93150684931504C1099.5,494.93150684931504 1099.5,468.9726027397261 1194,468.9726027397261" class="link"></path><path style="stroke-width: 1; fill: none; stroke: rgb(174, 105, 191); stroke-opacity: 0.4;" d="M1005,484.7945205479452C1099.5,484.7945205479452 1099.5,489.93150684931504 1194,489.93150684931504" class="link"></path><path style="stroke-width: 1; fill: none; stroke: rgb(174, 105, 191); stroke-opacity: 0.4;" d="M1005,484.6575342465753C1099.5,484.6575342465753 1099.5,468.83561643835617 1194,468.83561643835617" class="link"></path><path style="stroke-width: 1; fill: none; stroke: rgb(105, 191, 139); stroke-opacity: 0.4;" d="M1204,489.7945205479452C1298.5,489.7945205479452 1298.5,474.5205479452055 1393,474.5205479452055" class="link"></path><path style="stroke-width: 1; fill: none; stroke: rgb(105, 191, 139); stroke-opacity: 0.4;" d="M1204,489.93150684931504C1298.5,489.93150684931504 1298.5,484.93150684931504 1393,484.93150684931504" class="link"></path><path style="stroke-width: 1; fill: none; stroke: rgb(174, 191, 105); stroke-opacity: 0.4;" d="M1403,484.6575342465753C1497.5,484.6575342465753 1497.5,474.6575342465753 1592,474.6575342465753" class="link"></path><path style="stroke-width: 1; fill: none; stroke: rgb(174, 191, 105); stroke-opacity: 0.4;" d="M1602,484.79452054794524C1696.5,484.79452054794524 1696.5,474.79452054794524 1791,474.79452054794524" class="link"></path><path style="stroke-width: 1; fill: none; stroke: rgb(174, 191, 105); stroke-opacity: 0.4;" d="M1602,484.9315068493151C1696.5,484.9315068493151 1696.5,484.93150684931504 1791,484.93150684931504" class="link"></path><path style="stroke-width: 1; fill: none; stroke: rgb(174, 191, 105); stroke-opacity: 0.4;" d="M1801,484.93150684931504C1895.5,484.93150684931504 1895.5,479.93150684931504 1990,479.93150684931504" class="link"></path></g><g><g transform="translate(1194,10.000000000000028)" class="node"><rect style="" width="10" height="459.04109589041093"><title>
3,351</title></rect><text style="font-size: 11px; font-family: Arial,Helvetica; pointer-events: none;" text-anchor="end" dy=".35em" y="229.52054794520546" x="-6"></text></g><g transform="translate(1194,489.7260273972602)" class="node"><rect style="" width="10" height="0.273972602739726"><title>dernier dépot
2</title></rect><text style="font-size: 11px; font-family: Arial,Helvetica; pointer-events: none;" text-anchor="end" dy=".35em" y="0.136986301369863" x="-6">dernier dépot</text></g><g transform="translate(1194,479.04109589041093)" class="node"><rect style="" width="10" height="0.684931506849315"><title>exposition
5</title></rect><text style="font-size: 11px; font-family: Arial,Helvetica; pointer-events: none;" text-anchor="end" dy=".35em" y="0.3424657534246575" x="-6">exposition</text></g><g transform="translate(1393,15.000000000000028)" class="node"><rect style="" width="10" height="459.58904109589037"><title>
3,355</title></rect><text style="font-size: 11px; font-family: Arial,Helvetica; pointer-events: none;" text-anchor="end" dy=".35em" y="229.79452054794518" x="-6"></text></g><g transform="translate(1393,484.58904109589037)" class="node"><rect style="" width="10" height="0.410958904109589"><title>exposition
3</title></rect><text style="font-size: 11px; font-family: Arial,Helvetica; pointer-events: none;" text-anchor="end" dy=".35em" y="0.2054794520547945" x="-6">exposition</text></g><g transform="translate(1592,15.000000000000028)" class="node"><rect style="" width="10" height="459.7260273972602"><title>
3,356</title></rect><text style="font-size: 11px; font-family: Arial,Helvetica; pointer-events: none;" text-anchor="end" dy=".35em" y="229.8630136986301" x="-6"></text></g><g transform="translate(1592,484.7260273972603)" class="node"><rect style="" width="10" height="0.273972602739726"><title>exposition
2</title></rect><text style="font-size: 11px; font-family: Arial,Helvetica; pointer-events: none;" text-anchor="end" dy=".35em" y="0.136986301369863" x="-6">exposition</text></g><g transform="translate(1791,15.000000000000028)" class="node"><rect style="" width="10" height="459.8630136986301"><title>
3,357</title></rect><text style="font-size: 11px; font-family: Arial,Helvetica; pointer-events: none;" text-anchor="end" dy=".35em" y="229.93150684931504" x="-6"></text></g><g transform="translate(1791,484.8630136986301)" class="node"><rect style="" width="10" height="0.136986301369863"><title>exposition
1</title></rect><text style="font-size: 11px; font-family: Arial,Helvetica; pointer-events: none;" text-anchor="end" dy=".35em" y="0.0684931506849315" x="-6">exposition</text></g><g transform="translate(1990,20)" class="node"><rect style="fill: rgb(102, 102, 102);" width="10" height="460"><title>
3,358</title></rect><text style="font-size: 11px; font-family: Arial,Helvetica; pointer-events: none;" text-anchor="end" dy=".35em" y="230" x="-6"></text></g><g transform="translate(0,5)" class="node"><rect style="" width="10" height="364.24657534246575"><title>
2,659</title></rect><text style="font-size: 11px; font-family: Arial,Helvetica; pointer-events: none;" text-anchor="start" dy=".35em" y="182.12328767123287" x="16"></text></g><g transform="translate(0,438.972602739726)" class="node"><rect style="" width="10" height="44.93150684931506"><title>dernier dépot
328</title></rect><text style="font-size: 11px; font-family: Arial,Helvetica; pointer-events: none;" text-anchor="start" dy=".35em" y="22.46575342465753" x="16">dernier dépot</text></g><g transform="translate(0,379.24657534246575)" class="node"><rect style="" width="10" height="49.726027397260275"><title>exposition
363</title></rect><text style="font-size: 11px; font-family: Arial,Helvetica; pointer-events: none;" text-anchor="start" dy=".35em" y="24.863013698630137" x="16">exposition</text></g><g transform="translate(0,493.90410958904107)" class="node"><rect style="" width="10" height="1.095890410958904"><title>transfert
8</title></rect><text style="font-size: 11px; font-family: Arial,Helvetica; pointer-events: none;" text-anchor="start" dy=".35em" y="0.547945205479452" x="16">transfert</text></g><g transform="translate(199,15.000000000000028)" class="node"><rect style="" width="10" height="459.31506849315065"><title>acquisition
3,353</title></rect><text style="font-size: 11px; font-family: Arial,Helvetica; pointer-events: none;" text-anchor="start" dy=".35em" y="229.65753424657532" x="16">acquisition</text></g><g transform="translate(199,484.31506849315065)" class="node"><rect style="" width="10" height="0.684931506849315"><title>exposition
5</title></rect><text style="font-size: 11px; font-family: Arial,Helvetica; pointer-events: none;" text-anchor="start" dy=".35em" y="0.3424657534246575" x="16">exposition</text></g><g transform="translate(398,0)" class="node"><rect style="" width="10" height="332.32876712328766"><title>
2,426</title></rect><text style="font-size: 11px; font-family: Arial,Helvetica; pointer-events: none;" text-anchor="start" dy=".35em" y="166.16438356164383" x="16"></text></g><g transform="translate(398,499.5890410958904)" class="node"><rect style="" width="10" height="0.410958904109589"><title>acquisition
3</title></rect><text style="font-size: 11px; font-family: Arial,Helvetica; pointer-events: none;" text-anchor="start" dy=".35em" y="0.2054794520547945" x="16">acquisition</text></g><g transform="translate(398,420.4109589041096)" class="node"><rect style="" width="10" height="54.10958904109589"><title>dernier dépot
395</title></rect><text style="font-size: 11px; font-family: Arial,Helvetica; pointer-events: none;" text-anchor="start" dy=".35em" y="27.054794520547944" x="16">dernier dépot</text></g><g transform="translate(398,342.32876712328766)" class="node"><rect style="" width="10" height="68.08219178082192"><title>exposition
497</title></rect><text style="font-size: 11px; font-family: Arial,Helvetica; pointer-events: none;" text-anchor="start" dy=".35em" y="34.04109589041096" x="16">exposition</text></g><g transform="translate(398,484.52054794520546)" class="node"><rect style="" width="10" height="5.068493150684931"><title>transfert
37</title></rect><text style="font-size: 11px; font-family: Arial,Helvetica; pointer-events: none;" text-anchor="start" dy=".35em" y="2.5342465753424657" x="16">transfert</text></g><g transform="translate(597,5.000000000000028)" class="node"><rect style="" width="10" height="412.4657534246575"><title>
3,011</title></rect><text style="font-size: 11px; font-family: Arial,Helvetica; pointer-events: none;" text-anchor="start" dy=".35em" y="206.23287671232876" x="16"></text></g><g transform="translate(597,478.42465753424665)" class="node"><rect style="" width="10" height="5.616438356164383"><title>dernier dépot
41</title></rect><text style="font-size: 11px; font-family: Arial,Helvetica; pointer-events: none;" text-anchor="start" dy=".35em" y="2.8082191780821915" x="16">dernier dépot</text></g><g transform="translate(597,427.4657534246576)" class="node"><rect style="" width="10" height="40.95890410958904"><title>exposition
299</title></rect><text style="font-size: 11px; font-family: Arial,Helvetica; pointer-events: none;" text-anchor="start" dy=".35em" y="20.47945205479452" x="16">exposition</text></g><g transform="translate(597,494.04109589041104)" class="node"><rect style="" width="10" height="0.958904109589041"><title>transfert
7</title></rect><text style="font-size: 11px; font-family: Arial,Helvetica; pointer-events: none;" text-anchor="start" dy=".35em" y="0.4794520547945205" x="16">transfert</text></g><g transform="translate(796,5)" class="node"><rect style="" width="10" height="443.1506849315068"><title>
3,235</title></rect><text style="font-size: 11px; font-family: Arial,Helvetica; pointer-events: none;" text-anchor="start" dy=".35em" y="221.5753424657534" x="16"></text></g><g transform="translate(796,483.35616438356163)" class="node"><rect style="" width="10" height="1.36986301369863"><title>dernier dépot
10</title></rect><text style="font-size: 11px; font-family: Arial,Helvetica; pointer-events: none;" text-anchor="start" dy=".35em" y="0.684931506849315" x="16">dernier dépot</text></g><g transform="translate(796,458.1506849315068)" class="node"><rect style="" width="10" height="15.205479452054794"><title>exposition
111</title></rect><text style="font-size: 11px; font-family: Arial,Helvetica; pointer-events: none;" text-anchor="start" dy=".35em" y="7.602739726027397" x="16">exposition</text></g><g transform="translate(796,494.7260273972603)" class="node"><rect style="" width="10" height="0.273972602739726"><title>transfert
2</title></rect><text style="font-size: 11px; font-family: Arial,Helvetica; pointer-events: none;" text-anchor="start" dy=".35em" y="0.136986301369863" x="16">transfert</text></g><g transform="translate(995,5)" class="node"><rect style="" width="10" height="456.5753424657534"><title>
3,333</title></rect><text style="font-size: 11px; font-family: Arial,Helvetica; pointer-events: none;" text-anchor="start" dy=".35em" y="228.2876712328767" x="16"></text></g><g transform="translate(995,484.58904109589037)" class="node"><rect style="" width="10" height="0.273972602739726"><title>acquisition
2</title></rect><text style="font-size: 11px; font-family: Arial,Helvetica; pointer-events: none;" text-anchor="start" dy=".35em" y="0.136986301369863" x="16">acquisition</text></g><g transform="translate(995,494.8630136986301)" class="node"><rect style="" width="10" height="0.136986301369863"><title>dernier dépot
1</title></rect><text style="font-size: 11px; font-family: Arial,Helvetica; pointer-events: none;" text-anchor="start" dy=".35em" y="0.0684931506849315" x="16">dernier dépot</text></g><g transform="translate(995,471.5753424657534)" class="node"><rect style="" width="10" height="3.013698630136986"><title>exposition
22</title></rect><text style="font-size: 11px; font-family: Arial,Helvetica; pointer-events: none;" text-anchor="start" dy=".35em" y="1.506849315068493" x="16">exposition</text></g></g></g></svg>