<svg version="1.1" xmlns="http://www.w3.org/2000/svg" height="520" width="2000"><g transform="translate(0,10)"><g><path style="stroke-width: 459.449; fill: none; stroke: rgb(244, 239, 239); stroke-opacity: 0.4;" d="M1875.625,244.7247157390784C1932.8125,244.7247157390784 1932.8125,244.72471573907842 1990,244.72471573907842" class="link"></path><path style="stroke-width: 458.968; fill: none; stroke: rgb(244, 239, 239); stroke-opacity: 0.4;" d="M1751.25,244.48384201077198C1808.4375,244.48384201077198 1808.4375,244.48384201077198 1865.625,244.48384201077198" class="link"></path><path style="stroke-width: 458.417; fill: none; stroke: rgb(244, 239, 239); stroke-opacity: 0.4;" d="M1626.875,244.2085577498504C1684.0625,244.2085577498504 1684.0625,244.20855774985037 1741.25,244.20855774985037" class="link"></path><path style="stroke-width: 457.935; fill: none; stroke: rgb(244, 239, 239); stroke-opacity: 0.4;" d="M1502.5,243.967684021544C1559.6875,243.967684021544 1559.6875,243.96768402154402 1616.875,243.96768402154402" class="link"></path><path style="stroke-width: 455.871; fill: none; stroke: rgb(244, 239, 239); stroke-opacity: 0.4;" d="M1378.125,242.93536804308798C1435.3125,242.93536804308798 1435.3125,242.93536804308795 1492.5,242.93536804308795" class="link"></path><path style="stroke-width: 454.907; fill: none; stroke: rgb(244, 239, 239); stroke-opacity: 0.4;" d="M1253.75,237.45362058647518C1310.9375,237.45362058647518 1310.9375,242.45362058647518 1368.125,242.45362058647518" class="link"></path><path style="stroke-width: 451.26; fill: none; stroke: rgb(244, 239, 239); stroke-opacity: 0.4;" d="M1129.375,230.62986235786957C1186.5625,230.62986235786957 1186.5625,235.62986235786957 1243.75,235.62986235786957" class="link"></path><path style="stroke-width: 445.823; fill: none; stroke: rgb(244, 239, 239); stroke-opacity: 0.4;" d="M1005,232.9114302812687C1062.1875,232.9114302812687 1062.1875,227.9114302812687 1119.375,227.9114302812687" class="link"></path><path style="stroke-width: 439.285; fill: none; stroke: rgb(244, 239, 239); stroke-opacity: 0.4;" d="M880.625,229.64242968282466C937.8125,229.64242968282466 937.8125,229.64242968282468 995,229.64242968282468" class="link"></path><path style="stroke-width: 425.521; fill: none; stroke: rgb(244, 239, 239); stroke-opacity: 0.4;" d="M756.25,217.76032315978455C813.4375,217.76032315978455 813.4375,222.76032315978455 870.625,222.76032315978455" class="link"></path><path style="stroke-width: 407.971; fill: none; stroke: rgb(244, 239, 239); stroke-opacity: 0.4;" d="M631.875,208.98563734290843C689.0625,208.98563734290843 689.0625,208.98563734290843 746.25,208.98563734290843" class="link"></path><path style="stroke-width: 395.652; fill: none; stroke: rgb(244, 239, 239); stroke-opacity: 0.4;" d="M10,207.82615200478756C67.1875,207.82615200478756 67.1875,212.82615200478753 124.375,212.82615200478753" class="link"></path><path style="stroke-width: 358.764; fill: none; stroke: rgb(244, 239, 239); stroke-opacity: 0.4;" d="M507.5,179.38210652304014C564.6875,179.38210652304014 564.6875,184.38210652304008 621.875,184.38210652304008" class="link"></path><path style="stroke-width: 259.249; fill: none; stroke: rgb(244, 239, 239); stroke-opacity: 0.4;" d="M383.125,129.6244763614602C440.3125,129.6244763614602 440.3125,129.62447636146024 497.5,129.62447636146024" class="link"></path><path style="stroke-width: 220.709; fill: none; stroke: rgb(105, 139, 191); stroke-opacity: 0.4;" d="M134.375,125.35457809694792C191.5625,125.35457809694792 191.5625,110.35457809694792 248.75,110.35457809694792" class="link"></path><path style="stroke-width: 150.03; fill: none; stroke: rgb(105, 139, 191); stroke-opacity: 0.4;" d="M134.375,310.7241172950329C191.5625,310.7241172950329 191.5625,306.06822262118493 248.75,306.06822262118493" class="link"></path><path style="stroke-width: 150.03; fill: none; stroke: rgb(244, 239, 239); stroke-opacity: 0.4;" d="M258.75,306.06822262118493C315.9375,306.06822262118493 315.9375,143.0789946140036 373.125,143.0789946140036" class="link"></path><path style="stroke-width: 133.582; fill: none; stroke: rgb(174, 191, 105); stroke-opacity: 0.4;" d="M258.75,134.85487731897067C315.9375,134.85487731897067 315.9375,336.03979652902456 373.125,336.03979652902456" class="link"></path><path style="stroke-width: 87.4028; fill: none; stroke: rgb(174, 191, 105); stroke-opacity: 0.4;" d="M383.125,399.2519449431478C440.3125,399.2519449431478 440.3125,412.46558946738486 497.5,412.46558946738486" class="link"></path><path style="stroke-width: 86.3016; fill: none; stroke: rgb(174, 191, 105); stroke-opacity: 0.4;" d="M383.125,312.39976062238185C440.3125,312.39976062238185 440.3125,302.39976062238185 497.5,302.39976062238185" class="link"></path><path style="stroke-width: 82.2412; fill: none; stroke: rgb(105, 139, 191); stroke-opacity: 0.4;" d="M134.375,426.85966487133453C191.5625,426.85966487133453 191.5625,432.2037701974865 248.75,432.2037701974865" class="link"></path><path style="stroke-width: 68.064; fill: none; stroke: rgb(174, 191, 105); stroke-opacity: 0.4;" d="M258.75,34.03201675643325C315.9375,34.03201675643325 315.9375,34.03201675643328 373.125,34.03201675643328" class="link"></path><path style="stroke-width: 61.5949; fill: none; stroke: rgb(174, 191, 105); stroke-opacity: 0.4;" d="M10,446.44973070017954C67.1875,446.44973070017954 67.1875,441.44973070017954 124.375,441.44973070017954" class="link"></path><path style="stroke-width: 45.009; fill: none; stroke: rgb(105, 191, 139); stroke-opacity: 0.4;" d="M258.75,450.5445840813884C315.9375,450.5445840813884 315.9375,425.3351286654698 373.125,425.3351286654698" class="link"></path><path style="stroke-width: 44.5961; fill: none; stroke: rgb(174, 191, 105); stroke-opacity: 0.4;" d="M507.5,391.06223818073016C564.6875,391.06223818073016 564.6875,386.06223818073005 621.875,386.06223818073005" class="link"></path><path style="stroke-width: 44.4584; fill: none; stroke: rgb(174, 191, 105); stroke-opacity: 0.4;" d="M507.5,435.5894673847996C564.6875,435.5894673847996 564.6875,445.20047875523636 621.875,445.20047875523636" class="link"></path><path style="stroke-width: 36.9569; fill: none; stroke: rgb(105, 191, 139); stroke-opacity: 0.4;" d="M258.75,409.56163973668464C315.9375,409.56163973668464 315.9375,236.5724117295033 373.125,236.5724117295033" class="link"></path><path style="stroke-width: 29.1801; fill: none; stroke: rgb(174, 191, 105); stroke-opacity: 0.4;" d="M631.875,453.7342908438061C689.0625,453.7342908438061 689.0625,455.1107121484141 746.25,455.1107121484141" class="link"></path><path style="stroke-width: 18.9258; fill: none; stroke: rgb(174, 191, 105); stroke-opacity: 0.4;" d="M756.25,462.7154398563734C813.4375,462.7154398563734 813.4375,468.7477558348295 870.625,468.7477558348295" class="link"></path><path style="stroke-width: 17.2053; fill: none; stroke: rgb(174, 191, 105); stroke-opacity: 0.4;" d="M258.75,210.24835427887493C315.9375,210.24835427887493 315.9375,468.7821663674447 373.125,468.7821663674447" class="link"></path><path style="stroke-width: 16.173; fill: none; stroke: rgb(174, 191, 105); stroke-opacity: 0.4;" d="M631.875,431.057749850389C689.0625,431.057749850389 689.0625,421.057749850389 746.25,421.057749850389" class="link"></path><path style="stroke-width: 13.1448; fill: none; stroke: rgb(174, 191, 105); stroke-opacity: 0.4;" d="M880.625,472.25763016158C937.8125,472.25763016158 937.8125,472.3952722920407 995,472.3952722920407" class="link"></path><path style="stroke-width: 12.7319; fill: none; stroke: rgb(174, 191, 105); stroke-opacity: 0.4;" d="M756.25,446.8865948533812C813.4375,446.8865948533812 813.4375,441.8865948533812 870.625,441.8865948533812" class="link"></path><path style="stroke-width: 11.3555; fill: none; stroke: rgb(105, 191, 139); stroke-opacity: 0.4;" d="M383.125,465.85727109515267C440.3125,465.85727109515267 440.3125,351.2283064033513 497.5,351.2283064033513" class="link"></path><path style="stroke-width: 8.18971; fill: none; stroke: rgb(174, 191, 105); stroke-opacity: 0.4;" d="M1005,475.21693596648714C1062.1875,475.21693596648714 1062.1875,470.354578096948 1119.375,470.354578096948" class="link"></path><path style="stroke-width: 6.40036; fill: none; stroke: rgb(105, 139, 191); stroke-opacity: 0.4;" d="M134.375,471.1804308797128C191.5625,471.1804308797128 191.5625,486.52453620586476 248.75,486.52453620586476" class="link"></path><path style="stroke-width: 6.40036; fill: none; stroke: rgb(174, 191, 105); stroke-opacity: 0.4;" d="M880.625,462.485038898863C937.8125,462.485038898863 937.8125,452.485038898863 995,452.485038898863" class="link"></path><path style="stroke-width: 6.26272; fill: none; stroke: rgb(174, 191, 105); stroke-opacity: 0.4;" d="M383.125,446.0846798324357C440.3125,446.0846798324357 440.3125,475.7675044883304 497.5,475.7675044883304" class="link"></path><path style="stroke-width: 5.91861; fill: none; stroke: rgb(105, 191, 139); stroke-opacity: 0.4;" d="M383.125,474.49431478156794C440.3125,474.49431478156794 440.3125,459.1262716935967 497.5,459.1262716935967" class="link"></path><path style="stroke-width: 5.29922; fill: none; stroke: rgb(174, 191, 105); stroke-opacity: 0.4;" d="M1005,468.47247157390785C1062.1875,468.47247157390785 1062.1875,453.47247157390785 1119.375,453.47247157390785" class="link"></path><path style="stroke-width: 4.95512; fill: none; stroke: rgb(174, 191, 105); stroke-opacity: 0.4;" d="M1129.375,472.04069419509284C1186.5625,472.04069419509284 1186.5625,477.3847995212448 1243.75,477.3847995212448" class="link"></path><path style="stroke-width: 4.19808; fill: none; stroke: rgb(174, 105, 191); stroke-opacity: 0.4;" d="M258.75,485.4233991621783C315.9375,485.4233991621783 315.9375,257.1499102333932 373.125,257.1499102333932" class="link"></path><path style="stroke-width: 4.19808; fill: none; stroke: rgb(174, 191, 105); stroke-opacity: 0.4;" d="M507.5,459.9177139437463C564.6875,459.9177139437463 564.6875,482.28156792339917 621.875,482.28156792339917" class="link"></path><path style="stroke-width: 4.06044; fill: none; stroke: rgb(174, 191, 105); stroke-opacity: 0.4;" d="M1253.75,477.9009575104728C1310.9375,477.9009575104728 1310.9375,482.9009575104728 1368.125,482.9009575104728" class="link"></path><path style="stroke-width: 3.85398; fill: none; stroke: rgb(105, 191, 139); stroke-opacity: 0.4;" d="M507.5,474.5631358467984C564.6875,474.5631358467984 564.6875,410.2872531418313 621.875,410.2872531418313" class="link"></path><path style="stroke-width: 3.37223; fill: none; stroke: rgb(105, 191, 139); stroke-opacity: 0.4;" d="M631.875,482.6256732495512C689.0625,482.6256732495512 689.0625,471.386894075404 746.25,471.386894075404" class="link"></path><path style="stroke-width: 3.30341; fill: none; stroke: rgb(174, 191, 105); stroke-opacity: 0.4;" d="M1129.375,467.91143028126874C1186.5625,467.91143028126874 1186.5625,462.91143028126874 1243.75,462.91143028126874" class="link"></path><path style="stroke-width: 2.47756; fill: none; stroke: rgb(105, 191, 139); stroke-opacity: 0.4;" d="M507.5,477.72890484739685C564.6875,477.72890484739685 564.6875,468.6684619988031 621.875,468.6684619988031" class="link"></path><path style="stroke-width: 2.20227; fill: none; stroke: rgb(174, 105, 191); stroke-opacity: 0.4;" d="M258.75,488.623578695392C315.9375,488.623578695392 315.9375,448.9407540394974 373.125,448.9407540394974" class="link"></path><path style="stroke-width: 2.13345; fill: none; stroke: rgb(105, 191, 139); stroke-opacity: 0.4;" d="M10,488.9332734889288C67.1875,488.9332734889288 67.1875,473.3138839018552 124.375,473.3138839018552" class="link"></path><path style="stroke-width: 2.06463; fill: none; stroke: rgb(174, 191, 105); stroke-opacity: 0.4;" d="M1378.125,483.967684021544C1435.3125,483.967684021544 1435.3125,483.9676840215441 1492.5,483.9676840215441" class="link"></path><path style="stroke-width: 2.06463; fill: none; stroke: rgb(174, 191, 105); stroke-opacity: 0.4;" d="M1378.125,481.903052064632C1435.3125,481.903052064632 1435.3125,471.903052064632 1492.5,471.903052064632" class="link"></path><path style="stroke-width: 1.99581; fill: none; stroke: rgb(174, 191, 105); stroke-opacity: 0.4;" d="M258.75,219.84889287851587C315.9375,219.84889287851587 315.9375,488.5203470975464 373.125,488.5203470975464" class="link"></path><path style="stroke-width: 1.85817; fill: none; stroke: rgb(174, 105, 191); stroke-opacity: 0.4;" d="M383.125,488.451526032316C440.3125,488.451526032316 440.3125,357.83512866546977 497.5,357.83512866546977" class="link"></path><path style="stroke-width: 1.58288; fill: none; stroke: rgb(174, 191, 105); stroke-opacity: 0.4;" d="M1502.5,484.20855774985046C1559.6875,484.20855774985046 1559.6875,484.2085577498504 1616.875,484.2085577498504" class="link"></path><path style="stroke-width: 1.51406; fill: none; stroke: rgb(174, 191, 105); stroke-opacity: 0.4;" d="M631.875,469.0813883901855C689.0625,469.0813883901855 689.0625,483.83004189108317 746.25,483.83004189108317" class="link"></path><path style="stroke-width: 1.03232; fill: none; stroke: rgb(174, 191, 105); stroke-opacity: 0.4;" d="M1626.875,484.48384201077204C1684.0625,484.48384201077204 1684.0625,484.483842010772 1741.25,484.483842010772" class="link"></path><path style="stroke-width: 1; fill: none; stroke: rgb(174, 191, 105); stroke-opacity: 0.4;" d="M1253.75,475.3889886295632C1310.9375,475.3889886295632 1310.9375,470.3889886295632 1368.125,470.3889886295632" class="link"></path><path style="stroke-width: 1; fill: none; stroke: rgb(174, 191, 105); stroke-opacity: 0.4;" d="M756.25,472.62567324955114C813.4375,472.62567324955114 813.4375,489.5526630760025 870.625,489.5526630760025" class="link"></path><path style="stroke-width: 1; fill: none; stroke: rgb(105, 191, 139); stroke-opacity: 0.4;" d="M756.25,484.13973668462C813.4375,484.13973668462 813.4375,478.65798922800724 870.625,478.65798922800724" class="link"></path><path style="stroke-width: 1; fill: none; stroke: rgb(174, 191, 105); stroke-opacity: 0.4;" d="M383.125,449.6289646918014C440.3125,449.6289646918014 440.3125,489.3806104129265 497.5,489.3806104129265" class="link"></path><path style="stroke-width: 1; fill: none; stroke: rgb(174, 105, 191); stroke-opacity: 0.4;" d="M507.5,489.3461998803113C564.6875,489.3461998803113 564.6875,412.59275882704975 621.875,412.59275882704975" class="link"></path><path style="stroke-width: 1; fill: none; stroke: rgb(105, 191, 139); stroke-opacity: 0.4;" d="M631.875,480.5610412926392C689.0625,480.5610412926392 689.0625,429.5227408737283 746.25,429.5227408737283" class="link"></path><path style="stroke-width: 1; fill: none; stroke: rgb(105, 191, 139); stroke-opacity: 0.4;" d="M880.625,489.6214841412329C937.8125,489.6214841412329 937.8125,479.34619988031125 995,479.34619988031125" class="link"></path><path style="stroke-width: 1; fill: none; stroke: rgb(174, 191, 105); stroke-opacity: 0.4;" d="M10,477.55685218432075C67.1875,477.55685218432075 67.1875,484.6903052064632 124.375,484.6903052064632" class="link"></path><path style="stroke-width: 1; fill: none; stroke: rgb(174, 191, 105); stroke-opacity: 0.4;" d="M507.5,462.3264512268104C564.6875,462.3264512268104 564.6875,494.69030520646317 621.875,494.69030520646317" class="link"></path><path style="stroke-width: 1; fill: none; stroke: rgb(174, 105, 191); stroke-opacity: 0.4;" d="M631.875,494.69030520646317C689.0625,494.69030520646317 689.0625,430.2109515260323 746.25,430.2109515260323" class="link"></path><path style="stroke-width: 1; fill: none; stroke: rgb(105, 191, 139); stroke-opacity: 0.4;" d="M756.25,483.38270496708554C813.4375,483.38270496708554 813.4375,448.5622381807301 870.625,448.5622381807301" class="link"></path><path style="stroke-width: 1; fill: none; stroke: rgb(174, 191, 105); stroke-opacity: 0.4;" d="M1626.875,483.6923997606224C1684.0625,483.6923997606224 1684.0625,473.6923997606224 1741.25,473.6923997606224" class="link"></path><path style="stroke-width: 1; fill: none; stroke: rgb(174, 191, 105); stroke-opacity: 0.4;" d="M1751.25,484.72471573907836C1808.4375,484.72471573907836 1808.4375,484.7247157390784 1865.625,484.7247157390784" class="link"></path><path style="stroke-width: 1; fill: none; stroke: rgb(174, 191, 105); stroke-opacity: 0.4;" d="M1502.5,483.1762417713944C1559.6875,483.1762417713944 1559.6875,473.1762417713944 1616.875,473.1762417713944" class="link"></path><path style="stroke-width: 1; fill: none; stroke: rgb(174, 191, 105); stroke-opacity: 0.4;" d="M1751.25,484.20855774985034C1808.4375,484.20855774985034 1808.4375,474.20855774985034 1865.625,474.20855774985034" class="link"></path><path style="stroke-width: 1; fill: none; stroke: rgb(174, 105, 191); stroke-opacity: 0.4;" d="M383.125,489.58707360861763C440.3125,489.58707360861763 440.3125,462.2920406941952 497.5,462.2920406941952" class="link"></path><path style="stroke-width: 1; fill: none; stroke: rgb(174, 105, 191); stroke-opacity: 0.4;" d="M756.25,494.79353680430876C813.4375,494.79353680430876 813.4375,449.07839616995807 870.625,449.07839616995807" class="link"></path><path style="stroke-width: 1; fill: none; stroke: rgb(174, 191, 105); stroke-opacity: 0.4;" d="M134.375,484.55266307600243C191.5625,484.55266307600243 191.5625,220.88120885697188 248.75,220.88120885697188" class="link"></path><path style="stroke-width: 1; fill: none; stroke: rgb(174, 191, 105); stroke-opacity: 0.4;" d="M631.875,470.0104727707959C689.0625,470.0104727707959 689.0625,494.75912627169356 746.25,494.75912627169356" class="link"></path><path style="stroke-width: 1; fill: none; stroke: rgb(174, 191, 105); stroke-opacity: 0.4;" d="M1005,479.483842010772C1062.1875,479.483842010772 1062.1875,484.7591262716936 1119.375,484.7591262716936" class="link"></path><path style="stroke-width: 1; fill: none; stroke: rgb(105, 191, 139); stroke-opacity: 0.4;" d="M1129.375,484.7591262716936C1186.5625,484.7591262716936 1186.5625,464.7351885098744 1243.75,464.7351885098744" class="link"></path><path style="stroke-width: 1; fill: none; stroke: rgb(174, 191, 105); stroke-opacity: 0.4;" d="M1875.625,484.6214841412328C1932.8125,484.6214841412328 1932.8125,474.6214841412328 1990,474.6214841412328" class="link"></path><path style="stroke-width: 1; fill: none; stroke: rgb(174, 191, 105); stroke-opacity: 0.4;" d="M134.375,484.86235786953927C191.5625,484.86235786953927 191.5625,499.8623578695392 248.75,499.8623578695392" class="link"></path><path style="stroke-width: 1; fill: none; stroke: rgb(105, 191, 139); stroke-opacity: 0.4;" d="M258.75,473.1867145421903C315.9375,473.1867145421903 315.9375,489.655894673848 373.125,489.655894673848" class="link"></path><path style="stroke-width: 1; fill: none; stroke: rgb(174, 191, 105); stroke-opacity: 0.4;" d="M880.625,478.967684021544C937.8125,478.967684021544 937.8125,489.8623578695392 995,489.8623578695392" class="link"></path><path style="stroke-width: 1; fill: none; stroke: rgb(174, 191, 105); stroke-opacity: 0.4;" d="M258.75,220.95002992220228C315.9375,220.95002992220228 315.9375,499.8967684021544 373.125,499.8967684021544" class="link"></path><path style="stroke-width: 1; fill: none; stroke: rgb(174, 191, 105); stroke-opacity: 0.4;" d="M1875.625,484.89676840215446C1932.8125,484.89676840215446 1932.8125,484.8967684021544 1990,484.8967684021544" class="link"></path><path style="stroke-width: 1; fill: none; stroke: rgb(105, 139, 191); stroke-opacity: 0.4;" d="M258.75,499.7935368043088C315.9375,499.7935368043088 315.9375,450.11071214841417 373.125,450.11071214841417" class="link"></path><path style="stroke-width: 1; fill: none; stroke: rgb(105, 139, 191); stroke-opacity: 0.4;" d="M258.75,499.9311789347696C315.9375,499.9311789347696 315.9375,477.4536205864752 373.125,477.4536205864752" class="link"></path><path style="stroke-width: 1; fill: none; stroke: rgb(174, 191, 105); stroke-opacity: 0.4;" d="M383.125,450.1107121484141C440.3125,450.1107121484141 440.3125,499.93117893476966 497.5,499.93117893476966" class="link"></path><path style="stroke-width: 1; fill: none; stroke: rgb(105, 139, 191); stroke-opacity: 0.4;" d="M383.125,499.8623578695392C440.3125,499.8623578695392 440.3125,462.56732495511676 497.5,462.56732495511676" class="link"></path><path style="stroke-width: 1; fill: none; stroke: rgb(174, 105, 191); stroke-opacity: 0.4;" d="M507.5,489.79353680430887C564.6875,489.79353680430887 564.6875,469.9760622381807 621.875,469.9760622381807" class="link"></path><path style="stroke-width: 1; fill: none; stroke: rgb(105, 139, 191); stroke-opacity: 0.4;" d="M507.5,499.93117893476966C564.6875,499.93117893476966 564.6875,470.1137043686415 621.875,470.1137043686415" class="link"></path><path style="stroke-width: 1; fill: none; stroke: rgb(105, 191, 139); stroke-opacity: 0.4;" d="M880.625,489.17414721723526C937.8125,489.17414721723526 937.8125,455.7540394973071 995,455.7540394973071" class="link"></path><path style="stroke-width: 1; fill: none; stroke: rgb(105, 191, 139); stroke-opacity: 0.4;" d="M1005,489.7935368043088C1062.1875,489.7935368043088 1062.1875,456.1909036505087 1119.375,456.1909036505087" class="link"></path><path style="stroke-width: 1; fill: none; stroke: rgb(105, 191, 139); stroke-opacity: 0.4;" d="M1005,489.9311789347696C1062.1875,489.9311789347696 1062.1875,474.51825254338723 1119.375,474.51825254338723" class="link"></path><path style="stroke-width: 1; fill: none; stroke: rgb(105, 191, 139); stroke-opacity: 0.4;" d="M383.125,477.4880311190904C440.3125,477.4880311190904 440.3125,489.82794733692407 497.5,489.82794733692407" class="link"></path><path style="stroke-width: 1; fill: none; stroke: rgb(105, 139, 191); stroke-opacity: 0.4;" d="M383.125,499.9655894673848C440.3125,499.9655894673848 440.3125,478.9332734889288 497.5,478.9332734889288" class="link"></path><path style="stroke-width: 1; fill: none; stroke: rgb(105, 191, 139); stroke-opacity: 0.4;" d="M631.875,484.3461998803112C689.0625,484.3461998803112 689.0625,494.9655894673848 746.25,494.9655894673848" class="link"></path><path style="stroke-width: 1; fill: none; stroke: rgb(174, 191, 105); stroke-opacity: 0.4;" d="M1005,479.6903052064632C1062.1875,479.6903052064632 1062.1875,494.9655894673848 1119.375,494.9655894673848" class="link"></path><path style="stroke-width: 1; fill: none; stroke: rgb(174, 191, 105); stroke-opacity: 0.4;" d="M1129.375,474.55266307600243C1186.5625,474.55266307600243 1186.5625,489.9655894673848 1243.75,489.9655894673848" class="link"></path><path style="stroke-width: 1; fill: none; stroke: rgb(174, 105, 191); stroke-opacity: 0.4;" d="M1129.375,494.9655894673848C1186.5625,494.9655894673848 1186.5625,479.8967684021544 1243.75,479.8967684021544" class="link"></path><path style="stroke-width: 1; fill: none; stroke: rgb(105, 191, 139); stroke-opacity: 0.4;" d="M1253.75,489.9655894673848C1310.9375,489.9655894673848 1310.9375,484.9655894673848 1368.125,484.9655894673848" class="link"></path></g><g><g transform="translate(746.25,4.999999999999972)" class="node"><rect style="" width="10" height="425.52064631956915"><title>
6,183</title></rect><text style="font-size: 11px; font-family: Arial,Helvetica; pointer-events: none;" text-anchor="start" dy=".35em" y="212.76032315978458" x="16"></text></g><g transform="translate(746.25,483.07301017354877)" class="node"><rect style="" width="10" height="1.5140634350688211"><title>dernier dépot
22</title></rect><text style="font-size: 11px; font-family: Arial,Helvetica; pointer-events: none;" text-anchor="start" dy=".35em" y="0.7570317175344106" x="16">dernier dépot</text></g><g transform="translate(746.25,440.5206463195691)" class="node"><rect style="" width="10" height="32.55236385397966"><title>exposition
473</title></rect><text style="font-size: 11px; font-family: Arial,Helvetica; pointer-events: none;" text-anchor="start" dy=".35em" y="16.27618192698983" x="16">exposition</text></g><g transform="translate(746.25,494.5870736086176)" class="node"><rect style="" width="10" height="0.4129263913824058"><title>transfert
6</title></rect><text style="font-size: 11px; font-family: Arial,Helvetica; pointer-events: none;" text-anchor="start" dy=".35em" y="0.2064631956912029" x="16">transfert</text></g><g transform="translate(870.625,9.999999999999972)" class="node"><rect style="" width="10" height="439.28485936564937"><title>
6,383</title></rect><text style="font-size: 11px; font-family: Arial,Helvetica; pointer-events: none;" text-anchor="start" dy=".35em" y="219.64242968282468" x="16"></text></g><g transform="translate(870.625,489.10532615200486)" class="node"><rect style="" width="10" height="0.8946738479952125"><title>dernier dépot
13</title></rect><text style="font-size: 11px; font-family: Arial,Helvetica; pointer-events: none;" text-anchor="start" dy=".35em" y="0.4473369239976063" x="16">dernier dépot</text></g><g transform="translate(870.625,459.28485936564937)" class="node"><rect style="" width="10" height="19.820466786355478"><title>exposition
288</title></rect><text style="font-size: 11px; font-family: Arial,Helvetica; pointer-events: none;" text-anchor="start" dy=".35em" y="9.910233393177739" x="16">exposition</text></g><g transform="translate(995,10)" class="node"><rect style="" width="10" height="445.8228605625374"><title>
6,478</title></rect><text style="font-size: 11px; font-family: Arial,Helvetica; pointer-events: none;" text-anchor="start" dy=".35em" y="222.9114302812687" x="16"></text></g><g transform="translate(995,489.7247157390784)" class="node"><rect style="" width="10" height="0.27528426092160385"><title>dernier dépot
4</title></rect><text style="font-size: 11px; font-family: Arial,Helvetica; pointer-events: none;" text-anchor="start" dy=".35em" y="0.13764213046080193" x="16">dernier dépot</text></g><g transform="translate(995,465.8228605625374)" class="node"><rect style="" width="10" height="13.901855176540995"><title>exposition
202</title></rect><text style="font-size: 11px; font-family: Arial,Helvetica; pointer-events: none;" text-anchor="start" dy=".35em" y="6.950927588270497" x="16">exposition</text></g><g transform="translate(1119.375,5)" class="node"><rect style="" width="10" height="451.25972471573914"><title>
6,557</title></rect><text style="font-size: 11px; font-family: Arial,Helvetica; pointer-events: none;" text-anchor="end" dy=".35em" y="225.62986235786957" x="-6"></text></g><g transform="translate(1119.375,484.58707360861763)" class="node"><rect style="" width="10" height="0.34410532615200484"><title>dernier dépot
5</title></rect><text style="font-size: 11px; font-family: Arial,Helvetica; pointer-events: none;" text-anchor="end" dy=".35em" y="0.17205266307600242" x="-6">dernier dépot</text></g><g transform="translate(1119.375,466.25972471573914)" class="node"><rect style="" width="10" height="8.327348892878517"><title>exposition
121</title></rect><text style="font-size: 11px; font-family: Arial,Helvetica; pointer-events: none;" text-anchor="end" dy=".35em" y="4.163674446439258" x="-6">exposition</text></g><g transform="translate(1119.375,494.9311789347696)" class="node"><rect style="" width="10" height="0.06882106523040096"><title>transfert
1</title></rect><text style="font-size: 11px; font-family: Arial,Helvetica; pointer-events: none;" text-anchor="end" dy=".35em" y="0.03441053261520048" x="-6">transfert</text></g><g transform="translate(1243.75,10)" class="node"><rect style="" width="10" height="454.90724117295036"><title>
6,610</title></rect><text style="font-size: 11px; font-family: Arial,Helvetica; pointer-events: none;" text-anchor="end" dy=".35em" y="227.45362058647518" x="-6"></text></g><g transform="translate(1243.75,489.9311789347696)" class="node"><rect style="" width="10" height="0.06882106523040096"><title>dernier dépot
1</title></rect><text style="font-size: 11px; font-family: Arial,Helvetica; pointer-events: none;" text-anchor="end" dy=".35em" y="0.03441053261520048" x="-6">dernier dépot</text></g><g transform="translate(1243.75,474.90724117295036)" class="node"><rect style="" width="10" height="5.02393776181927"><title>exposition
73</title></rect><text style="font-size: 11px; font-family: Arial,Helvetica; pointer-events: none;" text-anchor="end" dy=".35em" y="2.511968880909635" x="-6">exposition</text></g><g transform="translate(1368.125,15)" class="node"><rect style="" width="10" height="455.87073608617595"><title>
6,624</title></rect><text style="font-size: 11px; font-family: Arial,Helvetica; pointer-events: none;" text-anchor="end" dy=".35em" y="227.93536804308798" x="-6"></text></g><g transform="translate(1368.125,480.87073608617595)" class="node"><rect style="" width="10" height="4.129263913824058"><title>exposition
60</title></rect><text style="font-size: 11px; font-family: Arial,Helvetica; pointer-events: none;" text-anchor="end" dy=".35em" y="2.064631956912029" x="-6">exposition</text></g><g transform="translate(1492.5,14.999999999999972)" class="node"><rect style="" width="10" height="457.93536804308803"><title>
6,654</title></rect><text style="font-size: 11px; font-family: Arial,Helvetica; pointer-events: none;" text-anchor="end" dy=".35em" y="228.96768402154402" x="-6"></text></g><g transform="translate(1492.5,482.93536804308803)" class="node"><rect style="" width="10" height="2.064631956912029"><title>exposition
30</title></rect><text style="font-size: 11px; font-family: Arial,Helvetica; pointer-events: none;" text-anchor="end" dy=".35em" y="1.0323159784560145" x="-6">exposition</text></g><g transform="translate(1616.875,15)" class="node"><rect style="" width="10" height="458.4171154997008"><title>
6,661</title></rect><text style="font-size: 11px; font-family: Arial,Helvetica; pointer-events: none;" text-anchor="end" dy=".35em" y="229.2085577498504" x="-6"></text></g><g transform="translate(1616.875,483.4171154997008)" class="node"><rect style="" width="10" height="1.5828845002992222"><title>exposition
23</title></rect><text style="font-size: 11px; font-family: Arial,Helvetica; pointer-events: none;" text-anchor="end" dy=".35em" y="0.7914422501496111" x="-6">exposition</text></g><g transform="translate(1741.25,14.999999999999972)" class="node"><rect style="" width="10" height="458.967684021544"><title>
6,669</title></rect><text style="font-size: 11px; font-family: Arial,Helvetica; pointer-events: none;" text-anchor="end" dy=".35em" y="229.483842010772" x="-6"></text></g><g transform="translate(1741.25,483.96768402154396)" class="node"><rect style="" width="10" height="1.0323159784560145"><title>exposition
15</title></rect><text style="font-size: 11px; font-family: Arial,Helvetica; pointer-events: none;" text-anchor="end" dy=".35em" y="0.5161579892280073" x="-6">exposition</text></g><g transform="translate(1865.625,14.999999999999972)" class="node"><rect style="" width="10" height="459.44943147815684"><title>
6,676</title></rect><text style="font-size: 11px; font-family: Arial,Helvetica; pointer-events: none;" text-anchor="end" dy=".35em" y="229.72471573907842" x="-6"></text></g><g transform="translate(1865.625,484.44943147815684)" class="node"><rect style="" width="10" height="0.5505685218432077"><title>exposition
8</title></rect><text style="font-size: 11px; font-family: Arial,Helvetica; pointer-events: none;" text-anchor="end" dy=".35em" y="0.27528426092160385" x="-6">exposition</text></g><g transform="translate(1990,15)" class="node"><rect style="fill: rgb(102, 102, 102);" width="10" height="459.7935368043088"><title>
6,681</title></rect><text style="font-size: 11px; font-family: Arial,Helvetica; pointer-events: none;" text-anchor="end" dy=".35em" y="229.8967684021544" x="-6"></text></g><g transform="translate(1990,484.7935368043088)" class="node"><rect style="fill: rgb(102, 102, 102);" width="10" height="0.2064631956912029"><title>exposition
3</title></rect><text style="font-size: 11px; font-family: Arial,Helvetica; pointer-events: none;" text-anchor="end" dy=".35em" y="0.10323159784560144" x="-6">exposition</text></g><g transform="translate(0,10)" class="node"><rect style="" width="10" height="395.6523040095751"><title>
5,749</title></rect><text style="font-size: 11px; font-family: Arial,Helvetica; pointer-events: none;" text-anchor="start" dy=".35em" y="197.82615200478756" x="16"></text></g><g transform="translate(0,487.8665469778576)" class="node"><rect style="" width="10" height="2.13345302214243"><title>dernier dépot
31</title></rect><text style="font-size: 11px; font-family: Arial,Helvetica; pointer-events: none;" text-anchor="start" dy=".35em" y="1.066726511071215" x="16">dernier dépot</text></g><g transform="translate(0,415.6523040095751)" class="node"><rect style="" width="10" height="62.21424296828247"><title>exposition
904</title></rect><text style="font-size: 11px; font-family: Arial,Helvetica; pointer-events: none;" text-anchor="start" dy=".35em" y="31.107121484141235" x="16">exposition</text></g><g transform="translate(124.375,14.999999999999972)" class="node"><rect style="" width="10" height="459.38061041292644"><title>acquisition
6,675</title></rect><text style="font-size: 11px; font-family: Arial,Helvetica; pointer-events: none;" text-anchor="start" dy=".35em" y="229.69030520646322" x="16">acquisition</text></g><g transform="translate(124.375,484.38061041292644)" class="node"><rect style="" width="10" height="0.6193895870736087"><title>exposition
9</title></rect><text style="font-size: 11px; font-family: Arial,Helvetica; pointer-events: none;" text-anchor="start" dy=".35em" y="0.30969479353680435" x="16">exposition</text></g><g transform="translate(248.75,231.05326152004787)" class="node"><rect style="" width="10" height="150.0299222022741"><title>
2,180</title></rect><text style="font-size: 11px; font-family: Arial,Helvetica; pointer-events: none;" text-anchor="start" dy=".35em" y="75.01496110113705" x="16"></text></g><g transform="translate(248.75,499.7247157390784)" class="node"><rect style="" width="10" height="0.27528426092160385"><title>acquisition
4</title></rect><text style="font-size: 11px; font-family: Arial,Helvetica; pointer-events: none;" text-anchor="start" dy=".35em" y="0.13764213046080193" x="16">acquisition</text></g><g transform="translate(248.75,391.08318372232196)" class="node"><rect style="" width="10" height="82.24117295032914"><title>dernier dépot
1,195</title></rect><text style="font-size: 11px; font-family: Arial,Helvetica; pointer-events: none;" text-anchor="start" dy=".35em" y="41.12058647516457" x="16">dernier dépot</text></g><g transform="translate(248.75,-2.842170943040401e-14)" class="node"><rect style="" width="10" height="221.0532615200479"><title>exposition
3,212</title></rect><text style="font-size: 11px; font-family: Arial,Helvetica; pointer-events: none;" text-anchor="start" dy=".35em" y="110.52663076002395" x="16">exposition</text></g><g transform="translate(248.75,483.3243566726511)" class="node"><rect style="" width="10" height="6.400359066427289"><title>transfert
93</title></rect><text style="font-size: 11px; font-family: Arial,Helvetica; pointer-events: none;" text-anchor="start" dy=".35em" y="3.2001795332136447" x="16">transfert</text></g><g transform="translate(373.125,0)" class="node"><rect style="" width="10" height="259.2489527229204"><title>
3,767</title></rect><text style="font-size: 11px; font-family: Arial,Helvetica; pointer-events: none;" text-anchor="start" dy=".35em" y="129.6244763614602" x="16"></text></g><g transform="translate(373.125,499.7935368043088)" class="node"><rect style="" width="10" height="0.2064631956912029"><title>acquisition
3</title></rect><text style="font-size: 11px; font-family: Arial,Helvetica; pointer-events: none;" text-anchor="start" dy=".35em" y="0.10323159784560144" x="16">acquisition</text></g><g transform="translate(373.125,460.17953321364456)" class="node"><rect style="" width="10" height="17.34290843806104"><title>dernier dépot
252</title></rect><text style="font-size: 11px; font-family: Arial,Helvetica; pointer-events: none;" text-anchor="start" dy=".35em" y="8.67145421903052" x="16">dernier dépot</text></g><g transform="translate(373.125,269.2489527229204)" class="node"><rect style="" width="10" height="180.93058049072414"><title>exposition
2,629</title></rect><text style="font-size: 11px; font-family: Arial,Helvetica; pointer-events: none;" text-anchor="start" dy=".35em" y="90.46529024536207" x="16">exposition</text></g><g transform="translate(373.125,487.5224416517056)" class="node"><rect style="" width="10" height="2.2710951526032317"><title>transfert
33</title></rect><text style="font-size: 11px; font-family: Arial,Helvetica; pointer-events: none;" text-anchor="start" dy=".35em" y="1.1355475763016158" x="16">transfert</text></g><g transform="translate(497.5,2.842170943040401e-14)" class="node"><rect style="" width="10" height="358.7642130460802"><title>
5,213</title></rect><text style="font-size: 11px; font-family: Arial,Helvetica; pointer-events: none;" text-anchor="start" dy=".35em" y="179.3821065230401" x="16"></text></g><g transform="translate(497.5,499.86235786953927)" class="node"><rect style="" width="10" height="0.13764213046080193"><title>acquisition
2</title></rect><text style="font-size: 11px; font-family: Arial,Helvetica; pointer-events: none;" text-anchor="start" dy=".35em" y="0.06882106523040096" x="16">acquisition</text></g><g transform="translate(497.5,472.63614602034716)" class="node"><rect style="" width="10" height="6.331538001196889"><title>dernier dépot
92</title></rect><text style="font-size: 11px; font-family: Arial,Helvetica; pointer-events: none;" text-anchor="start" dy=".35em" y="3.1657690005984445" x="16">dernier dépot</text></g><g transform="translate(497.5,368.7642130460803)" class="node"><rect style="" width="10" height="93.87193297426691"><title>exposition
1,364</title></rect><text style="font-size: 11px; font-family: Arial,Helvetica; pointer-events: none;" text-anchor="start" dy=".35em" y="46.935966487133456" x="16">exposition</text></g><g transform="translate(497.5,488.9676840215441)" class="node"><rect style="" width="10" height="0.8946738479952125"><title>transfert
13</title></rect><text style="font-size: 11px; font-family: Arial,Helvetica; pointer-events: none;" text-anchor="start" dy=".35em" y="0.4473369239976063" x="16">transfert</text></g><g transform="translate(621.875,4.999999999999972)" class="node"><rect style="" width="10" height="407.9712746858169"><title>
5,928</title></rect><text style="font-size: 11px; font-family: Arial,Helvetica; pointer-events: none;" text-anchor="start" dy=".35em" y="203.98563734290846" x="16"></text></g><g transform="translate(621.875,480.18252543387194)" class="node"><rect style="" width="10" height="4.1980849790544585"><title>dernier dépot
61</title></rect><text style="font-size: 11px; font-family: Arial,Helvetica; pointer-events: none;" text-anchor="start" dy=".35em" y="2.0990424895272293" x="16">dernier dépot</text></g><g transform="translate(621.875,422.97127468581687)" class="node"><rect style="" width="10" height="47.21125074805506"><title>exposition
686</title></rect><text style="font-size: 11px; font-family: Arial,Helvetica; pointer-events: none;" text-anchor="start" dy=".35em" y="23.60562537402753" x="16">exposition</text></g><g transform="translate(621.875,494.3806104129264)" class="node"><rect style="" width="10" height="0.6193895870736087"><title>transfert
9</title></rect><text style="font-size: 11px; font-family: Arial,Helvetica; pointer-events: none;" text-anchor="start" dy=".35em" y="0.30969479353680435" x="16">transfert</text></g></g></g></svg>